<ttFont>
<head>
    <!-- Most of this table will be recalculated by the compiler -->
    <tableVersion value="1.0"/>
    <fontRevision value="2.202"/>
    <checkSumAdjustment value="0xb1220aad"/>
    <magicNumber value="0x5f0f3cf5"/>
    <flags value="00000000 00011011"/>
    <unitsPerEm value="1000"/>
    <created value="Sat Jan 23 04:31:22 2016"/>
    <modified value="Thu Mar 10 20:57:42 2016"/>
    <xMin value="-89"/>
    <yMin value="-267"/>
    <xMax value="983"/>
    <yMax value="1047"/>
    <macStyle value="00000000 00000000"/>
    <lowestRecPPEM value="5"/>
    <fontDirectionHint value="2"/>
    <indexToLocFormat value="0"/>
    <glyphDataFormat value="0"/>
  </head>
    <TTGlyph name=".notdef" xMin="0" yMin="-200" xMax="500" yMax="800">
      <contour>
        <pt x="0" y="800" on="1"/>
        <pt x="500" y="800" on="1"/>
        <pt x="500" y="-200" on="1"/>
        <pt x="0" y="-200" on="1"/>
      </contour>
      <contour>
        <pt x="250" y="360" on="1"/>
        <pt x="429" y="750" on="1"/>
        <pt x="71" y="750" on="1"/>
      </contour>
      <contour>
        <pt x="222" y="300" on="1"/>
        <pt x="50" y="676" on="1"/>
        <pt x="50" y="-76" on="1"/>
      </contour>
      <contour>
        <pt x="278" y="300" on="1"/>
        <pt x="450" y="-76" on="1"/>
        <pt x="450" y="676" on="1"/>
      </contour>
      <contour>
        <pt x="71" y="-150" on="1"/>
        <pt x="429" y="-150" on="1"/>
        <pt x="250" y="240" on="1"/>
      </contour>
    </TTGlyph>
    <TTGlyph name="A" xMin="30" yMin="-7" xMax="607" yMax="728">
      <contour>
        <pt x="269" y="728" on="1"/>
        <pt x="372" y="728" on="1"/>
        <pt x="607" y="14" on="1"/>
        <pt x="509" y="-7" on="1"/>
        <pt x="439" y="215" on="1"/>
        <pt x="200" y="215" on="1"/>
        <pt x="133" y="0" on="1"/>
        <pt x="30" y="0" on="1"/>
      </contour>
      <contour>
        <pt x="226" y="304" on="1"/>
        <pt x="412" y="304" on="1"/>
        <pt x="318" y="606" on="1"/>
      </contour>
    </TTGlyph>
    <TTGlyph name="A.flat" xMin="30" yMin="0" xMax="611" yMax="728">
      <contour>
        <pt x="269" y="728" on="1"/>
        <pt x="372" y="728" on="1"/>
        <pt x="611" y="0" on="1"/>
        <pt x="506" y="0" on="1"/>
        <pt x="439" y="215" on="1"/>
        <pt x="200" y="215" on="1"/>
        <pt x="133" y="0" on="1"/>
        <pt x="30" y="0" on="1"/>
      </contour>
      <contour>
        <pt x="226" y="304" on="1"/>
        <pt x="412" y="304" on="1"/>
        <pt x="318" y="606" on="1"/>
      </contour>
    </TTGlyph>
    <TTGlyph name="AE" xMin="8" yMin="0" xMax="797" yMax="725">
      <contour>
        <pt x="376" y="725" on="1"/>
        <pt x="786" y="725" on="1"/>
        <pt x="786" y="632" on="1"/>
        <pt x="531" y="632" on="1"/>
        <pt x="531" y="425" on="1"/>
        <pt x="727" y="425" on="1"/>
        <pt x="742" y="333" on="1"/>
        <pt x="531" y="333" on="1"/>
        <pt x="531" y="93" on="1"/>
        <pt x="797" y="93" on="1"/>
        <pt x="797" y="0" on="1"/>
        <pt x="431" y="0" on="1"/>
        <pt x="431" y="216" on="1"/>
        <pt x="223" y="216" on="1"/>
        <pt x="115" y="0" on="1"/>
        <pt x="8" y="0" on="1"/>
      </contour>
      <contour>
        <pt x="431" y="304" on="1"/>
        <pt x="431" y="633" on="1"/>
        <pt x="266" y="304" on="1"/>
      </contour>
    </TTGlyph>
    <TTGlyph name="AE.flat" xMin="8" yMin="0" xMax="797" yMax="725">
      <contour>
        <pt x="376" y="725" on="1"/>
        <pt x="786" y="725" on="1"/>
        <pt x="786" y="632" on="1"/>
        <pt x="531" y="632" on="1"/>
        <pt x="531" y="425" on="1"/>
        <pt x="735" y="425" on="1"/>
        <pt x="735" y="333" on="1"/>
        <pt x="531" y="333" on="1"/>
        <pt x="531" y="93" on="1"/>
        <pt x="797" y="93" on="1"/>
        <pt x="797" y="0" on="1"/>
        <pt x="431" y="0" on="1"/>
        <pt x="431" y="216" on="1"/>
        <pt x="223" y="216" on="1"/>
        <pt x="115" y="0" on="1"/>
        <pt x="8" y="0" on="1"/>
      </contour>
      <contour>
        <pt x="431" y="304" on="1"/>
        <pt x="431" y="633" on="1"/>
        <pt x="266" y="304" on="1"/>
      </contour>
    </TTGlyph>
    <TTGlyph name="AEacute" xMin="8" yMin="0" xMax="797" yMax="938">
      <component glyphName="acute.cap" x="316" y="213" flags="0x4"/>
      <component glyphName="AE" x="0" y="0" flags="0x4"/>
    </TTGlyph>
    <TTGlyph name="AEacute.flat" xMin="8" yMin="0" xMax="797" yMax="938">
      <component glyphName="acute.cap" x="316" y="213" flags="0x4"/>
      <component glyphName="AE.flat" x="0" y="0" flags="0x4"/>
    </TTGlyph>
    <TTGlyph name="Aacute" xMin="30" yMin="-7" xMax="607" yMax="945">
      <component glyphName="A" x="0" y="0" flags="0x204"/>
      <component glyphName="acute.cap" x="152" y="220" flags="0x4"/>
    </TTGlyph>
    <TTGlyph name="Aacute.flat" xMin="30" yMin="0" xMax="611" yMax="945">
      <component glyphName="acute.cap" x="153" y="220" flags="0x4"/>
      <component glyphName="A.flat" x="0" y="0" flags="0x4"/>
    </TTGlyph>
    <TTGlyph name="Abreve" xMin="30" yMin="-7" xMax="607" yMax="923">
      <component glyphName="A" x="0" y="0" flags="0x204"/>
      <component glyphName="breve.cap" x="98" y="220" flags="0x4"/>
    </TTGlyph>
    <TTGlyph name="Abreve.flat" xMin="30" yMin="0" xMax="611" yMax="923">
      <component glyphName="breve.cap" x="99" y="220" flags="0x4"/>
      <component glyphName="A.flat" x="0" y="0" flags="0x4"/>
    </TTGlyph>
    <TTGlyph name="Acircumflex" xMin="30" yMin="-7" xMax="607" yMax="936">
      <component glyphName="A" x="0" y="0" flags="0x4"/>
      <component glyphName="circumflex.cap" x="100" y="219" flags="0x4"/>
    </TTGlyph>
    <TTGlyph name="Acircumflex.flat" xMin="30" yMin="0" xMax="611" yMax="936">
      <component glyphName="A.flat" x="0" y="0" flags="0x4"/>
      <component glyphName="circumflex.cap" x="102" y="219" flags="0x4"/>
    </TTGlyph>
    <TTGlyph name="Adieresis" xMin="30" yMin="-7" xMax="607" yMax="901">
      <component glyphName="A" x="0" y="0" flags="0x204"/>
      <component glyphName="dieresis.cap" x="98" y="220" flags="0x4"/>
    </TTGlyph>
    <TTGlyph name="Adieresis.flat" xMin="30" yMin="0" xMax="611" yMax="901">
      <component glyphName="dieresis.cap" x="99" y="220" flags="0x4"/>
      <component glyphName="A.flat" x="0" y="0" flags="0x4"/>
    </TTGlyph>
    <TTGlyph name="Agrave" xMin="30" yMin="-7" xMax="607" yMax="945">
      <component glyphName="A" x="0" y="0" flags="0x204"/>
      <component glyphName="grave.cap" x="44" y="220" flags="0x4"/>
    </TTGlyph>
    <TTGlyph name="Agrave.flat" xMin="30" yMin="0" xMax="611" yMax="945">
      <component glyphName="grave.cap" x="45" y="220" flags="0x4"/>
      <component glyphName="A.flat" x="0" y="0" flags="0x4"/>
    </TTGlyph>
    <TTGlyph name="Amacron" xMin="30" yMin="-7" xMax="607" yMax="887">
      <component glyphName="A" x="0" y="0" flags="0x204"/>
      <component glyphName="macron.cap" x="98" y="220" flags="0x4"/>
    </TTGlyph>
    <TTGlyph name="Amacron.flat" xMin="30" yMin="0" xMax="611" yMax="887">
      <component glyphName="macron.cap" x="99" y="220" flags="0x4"/>
      <component glyphName="A.flat" x="0" y="0" flags="0x4"/>
    </TTGlyph>
    <TTGlyph name="Aogonek" xMin="30" yMin="-192" xMax="607" yMax="728">
      <contour>
        <pt x="269" y="728" on="1"/>
        <pt x="372" y="728" on="1"/>
        <pt x="607" y="14" on="1"/>
        <pt x="580" y="8" on="1"/>
        <pt x="555" y="-28" on="1"/>
        <pt x="541" y="-47" on="0"/>
        <pt x="524" y="-78" on="0"/>
        <pt x="524" y="-94" on="1"/>
        <pt x="524" y="-124" on="0"/>
        <pt x="563" y="-124" on="1"/>
        <pt x="572" y="-124" on="0"/>
        <pt x="591" y="-122" on="0"/>
        <pt x="602" y="-120" on="1"/>
        <pt x="601" y="-177" on="1"/>
        <pt x="585" y="-183" on="0"/>
        <pt x="549" y="-192" on="0"/>
        <pt x="529" y="-192" on="1"/>
        <pt x="491" y="-192" on="0"/>
        <pt x="447" y="-154" on="0"/>
        <pt x="447" y="-117" on="1"/>
        <pt x="447" y="-89" on="0"/>
        <pt x="478" y="-31" on="0"/>
        <pt x="506" y="1" on="1"/>
        <pt x="439" y="215" on="1"/>
        <pt x="200" y="215" on="1"/>
        <pt x="133" y="0" on="1"/>
        <pt x="30" y="0" on="1"/>
      </contour>
      <contour>
        <pt x="226" y="304" on="1"/>
        <pt x="412" y="304" on="1"/>
        <pt x="318" y="606" on="1"/>
      </contour>
    </TTGlyph>
    <TTGlyph name="Aogonek.flat" xMin="30" yMin="-192" xMax="611" yMax="728">
      <contour>
        <pt x="602" y="-177" on="1"/>
        <pt x="586" y="-183" on="0"/>
        <pt x="550" y="-192" on="0"/>
        <pt x="530" y="-192" on="1"/>
        <pt x="492" y="-192" on="0"/>
        <pt x="448" y="-154" on="0"/>
        <pt x="448" y="-117" on="1"/>
        <pt x="448" y="-89" on="0"/>
        <pt x="479" y="-31" on="0"/>
        <pt x="506" y="0" on="1"/>
        <pt x="439" y="215" on="1"/>
        <pt x="200" y="215" on="1"/>
        <pt x="133" y="0" on="1"/>
        <pt x="30" y="0" on="1"/>
        <pt x="269" y="728" on="1"/>
        <pt x="372" y="728" on="1"/>
        <pt x="611" y="0" on="1"/>
        <pt x="575" y="0" on="1"/>
        <pt x="556" y="-28" on="1"/>
        <pt x="542" y="-48" on="0"/>
        <pt x="525" y="-78" on="0"/>
        <pt x="525" y="-94" on="1"/>
        <pt x="525" y="-124" on="0"/>
        <pt x="564" y="-124" on="1"/>
        <pt x="573" y="-124" on="0"/>
        <pt x="592" y="-122" on="0"/>
        <pt x="603" y="-120" on="1"/>
      </contour>
      <contour>
        <pt x="226" y="304" on="1"/>
        <pt x="412" y="304" on="1"/>
        <pt x="318" y="606" on="1"/>
      </contour>
    </TTGlyph>
    <TTGlyph name="Aring" xMin="30" yMin="-7" xMax="611" yMax="865">
      <contour>
        <pt x="425" y="762" on="1"/>
        <pt x="425" y="736" on="0"/>
        <pt x="406" y="695" on="0"/>
        <pt x="389" y="681" on="1"/>
        <pt x="611" y="14" on="1"/>
        <pt x="515" y="-7" on="1"/>
        <pt x="444" y="215" on="1"/>
        <pt x="199" y="215" on="1"/>
        <pt x="132" y="0" on="1"/>
        <pt x="30" y="0" on="1"/>
        <pt x="256" y="679" on="1"/>
        <pt x="238" y="693" on="0"/>
        <pt x="217" y="736" on="0"/>
        <pt x="217" y="762" on="1"/>
        <pt x="217" y="807" on="0"/>
        <pt x="276" y="865" on="0"/>
        <pt x="322" y="865" on="1"/>
        <pt x="367" y="865" on="0"/>
        <pt x="425" y="807" on="0"/>
      </contour>
      <contour>
        <pt x="227" y="304" on="1"/>
        <pt x="416" y="304" on="1"/>
        <pt x="320" y="605" on="1"/>
      </contour>
      <contour>
        <pt x="376" y="762" on="1"/>
        <pt x="376" y="787" on="0"/>
        <pt x="345" y="820" on="0"/>
        <pt x="322" y="820" on="1"/>
        <pt x="297" y="820" on="0"/>
        <pt x="266" y="787" on="0"/>
        <pt x="266" y="762" on="1"/>
        <pt x="266" y="736" on="0"/>
        <pt x="297" y="703" on="0"/>
        <pt x="322" y="703" on="1"/>
        <pt x="345" y="703" on="0"/>
        <pt x="376" y="736" on="0"/>
      </contour>
    </TTGlyph>
    <TTGlyph name="Aring.flat" xMin="30" yMin="0" xMax="615" yMax="865">
      <contour>
        <pt x="425" y="762" on="1"/>
        <pt x="425" y="736" on="0"/>
        <pt x="406" y="695" on="0"/>
        <pt x="389" y="681" on="1"/>
        <pt x="615" y="0" on="1"/>
        <pt x="511" y="0" on="1"/>
        <pt x="444" y="215" on="1"/>
        <pt x="199" y="215" on="1"/>
        <pt x="132" y="0" on="1"/>
        <pt x="30" y="0" on="1"/>
        <pt x="256" y="679" on="1"/>
        <pt x="238" y="693" on="0"/>
        <pt x="217" y="736" on="0"/>
        <pt x="217" y="762" on="1"/>
        <pt x="217" y="807" on="0"/>
        <pt x="276" y="865" on="0"/>
        <pt x="322" y="865" on="1"/>
        <pt x="367" y="865" on="0"/>
        <pt x="425" y="807" on="0"/>
      </contour>
      <contour>
        <pt x="227" y="304" on="1"/>
        <pt x="416" y="304" on="1"/>
        <pt x="320" y="605" on="1"/>
      </contour>
      <contour>
        <pt x="376" y="762" on="1"/>
        <pt x="376" y="787" on="0"/>
        <pt x="345" y="820" on="0"/>
        <pt x="322" y="820" on="1"/>
        <pt x="297" y="820" on="0"/>
        <pt x="266" y="787" on="0"/>
        <pt x="266" y="762" on="1"/>
        <pt x="266" y="736" on="0"/>
        <pt x="297" y="703" on="0"/>
        <pt x="322" y="703" on="1"/>
        <pt x="345" y="703" on="0"/>
        <pt x="376" y="736" on="0"/>
      </contour>
    </TTGlyph>
    <TTGlyph name="Aringacute" xMin="30" yMin="-7" xMax="611" yMax="1047">
      <contour>
        <pt x="425" y="762" on="1"/>
        <pt x="425" y="736" on="0"/>
        <pt x="406" y="695" on="0"/>
        <pt x="389" y="681" on="1"/>
        <pt x="611" y="14" on="1"/>
        <pt x="515" y="-7" on="1"/>
        <pt x="444" y="215" on="1"/>
        <pt x="199" y="215" on="1"/>
        <pt x="132" y="0" on="1"/>
        <pt x="30" y="0" on="1"/>
        <pt x="256" y="679" on="1"/>
        <pt x="238" y="693" on="0"/>
        <pt x="217" y="736" on="0"/>
        <pt x="217" y="762" on="1"/>
        <pt x="217" y="807" on="0"/>
        <pt x="276" y="865" on="0"/>
        <pt x="322" y="865" on="1"/>
        <pt x="367" y="865" on="0"/>
        <pt x="425" y="807" on="0"/>
      </contour>
      <contour>
        <pt x="227" y="304" on="1"/>
        <pt x="416" y="304" on="1"/>
        <pt x="320" y="605" on="1"/>
      </contour>
      <contour>
        <pt x="376" y="762" on="1"/>
        <pt x="376" y="787" on="0"/>
        <pt x="345" y="820" on="0"/>
        <pt x="322" y="820" on="1"/>
        <pt x="297" y="820" on="0"/>
        <pt x="266" y="787" on="0"/>
        <pt x="266" y="762" on="1"/>
        <pt x="266" y="736" on="0"/>
        <pt x="297" y="703" on="0"/>
        <pt x="322" y="703" on="1"/>
        <pt x="345" y="703" on="0"/>
        <pt x="376" y="736" on="0"/>
      </contour>
      <contour>
        <pt x="354" y="893" on="1"/>
        <pt x="289" y="893" on="1"/>
        <pt x="367" y="1047" on="1"/>
        <pt x="476" y="1020" on="1"/>
      </contour>
    </TTGlyph>
    <TTGlyph name="Aringacute.flat" xMin="30" yMin="0" xMax="615" yMax="1047">
      <contour>
        <pt x="425" y="762" on="1"/>
        <pt x="425" y="736" on="0"/>
        <pt x="406" y="695" on="0"/>
        <pt x="389" y="681" on="1"/>
        <pt x="615" y="0" on="1"/>
        <pt x="511" y="0" on="1"/>
        <pt x="444" y="215" on="1"/>
        <pt x="199" y="215" on="1"/>
        <pt x="132" y="0" on="1"/>
        <pt x="30" y="0" on="1"/>
        <pt x="256" y="679" on="1"/>
        <pt x="238" y="693" on="0"/>
        <pt x="217" y="736" on="0"/>
        <pt x="217" y="762" on="1"/>
        <pt x="217" y="807" on="0"/>
        <pt x="276" y="865" on="0"/>
        <pt x="322" y="865" on="1"/>
        <pt x="367" y="865" on="0"/>
        <pt x="425" y="807" on="0"/>
      </contour>
      <contour>
        <pt x="227" y="304" on="1"/>
        <pt x="416" y="304" on="1"/>
        <pt x="320" y="605" on="1"/>
      </contour>
      <contour>
        <pt x="376" y="762" on="1"/>
        <pt x="376" y="787" on="0"/>
        <pt x="345" y="820" on="0"/>
        <pt x="322" y="820" on="1"/>
        <pt x="297" y="820" on="0"/>
        <pt x="266" y="787" on="0"/>
        <pt x="266" y="762" on="1"/>
        <pt x="266" y="736" on="0"/>
        <pt x="297" y="703" on="0"/>
        <pt x="322" y="703" on="1"/>
        <pt x="345" y="703" on="0"/>
        <pt x="376" y="736" on="0"/>
      </contour>
      <contour>
        <pt x="354" y="893" on="1"/>
        <pt x="289" y="893" on="1"/>
        <pt x="367" y="1047" on="1"/>
        <pt x="476" y="1020" on="1"/>
      </contour>
    </TTGlyph>
    <TTGlyph name="Atilde" xMin="30" yMin="-7" xMax="607" yMax="924">
      <component glyphName="A" x="0" y="0" flags="0x204"/>
      <component glyphName="tilde.cap" x="101" y="220" flags="0x4"/>
    </TTGlyph>
    <TTGlyph name="Atilde.flat" xMin="30" yMin="0" xMax="611" yMax="924">
      <component glyphName="tilde.cap" x="102" y="220" flags="0x4"/>
      <component glyphName="A.flat" x="0" y="0" flags="0x4"/>
    </TTGlyph>
    <TTGlyph name="B" xMin="79" yMin="0" xMax="498" yMax="725">
      <contour>
        <pt x="498" y="211" on="1"/>
        <pt x="498" y="158" on="0"/>
        <pt x="461" y="79" on="0"/>
        <pt x="394" y="26" on="0"/>
        <pt x="298" y="0" on="0"/>
        <pt x="239" y="0" on="1"/>
        <pt x="79" y="0" on="1"/>
        <pt x="79" y="725" on="1"/>
        <pt x="242" y="725" on="1"/>
        <pt x="299" y="725" on="0"/>
        <pt x="385" y="697" on="0"/>
        <pt x="442" y="648" on="0"/>
        <pt x="471" y="579" on="0"/>
        <pt x="471" y="539" on="1"/>
        <pt x="471" y="484" on="0"/>
        <pt x="417" y="407" on="0"/>
        <pt x="370" y="386" on="1"/>
        <pt x="428" y="368" on="0"/>
        <pt x="498" y="282" on="0"/>
      </contour>
      <contour>
        <pt x="372" y="532" on="1"/>
        <pt x="372" y="579" on="0"/>
        <pt x="312" y="638" on="0"/>
        <pt x="240" y="638" on="1"/>
        <pt x="178" y="638" on="1"/>
        <pt x="178" y="422" on="1"/>
        <pt x="235" y="422" on="1"/>
        <pt x="304" y="422" on="0"/>
        <pt x="372" y="482" on="0"/>
      </contour>
      <contour>
        <pt x="399" y="210" on="1"/>
        <pt x="399" y="270" on="0"/>
        <pt x="320" y="337" on="0"/>
        <pt x="242" y="337" on="1"/>
        <pt x="178" y="337" on="1"/>
        <pt x="178" y="88" on="1"/>
        <pt x="245" y="88" on="1"/>
        <pt x="320" y="88" on="0"/>
        <pt x="399" y="149" on="0"/>
      </contour>
    </TTGlyph>
    <TTGlyph name="C" xMin="51" yMin="-13" xMax="529" yMax="737">
      <contour>
        <pt x="529" y="53" on="1"/>
        <pt x="491" y="24" on="0"/>
        <pt x="396" y="-13" on="0"/>
        <pt x="341" y="-13" on="1"/>
        <pt x="272" y="-13" on="0"/>
        <pt x="164" y="41" on="0"/>
        <pt x="90" y="140" on="0"/>
        <pt x="51" y="277" on="0"/>
        <pt x="51" y="361" on="1"/>
        <pt x="51" y="446" on="0"/>
        <pt x="91" y="584" on="0"/>
        <pt x="167" y="683" on="0"/>
        <pt x="277" y="737" on="0"/>
        <pt x="347" y="737" on="1"/>
        <pt x="404" y="737" on="0"/>
        <pt x="483" y="709" on="0"/>
        <pt x="520" y="684" on="1"/>
        <pt x="504" y="581" on="1"/>
        <pt x="467" y="610" on="0"/>
        <pt x="393" y="645" on="0"/>
        <pt x="345" y="645" on="1"/>
        <pt x="299" y="645" on="0"/>
        <pt x="228" y="605" on="0"/>
        <pt x="179" y="532" on="0"/>
        <pt x="154" y="427" on="0"/>
        <pt x="154" y="362" on="1"/>
        <pt x="154" y="231" on="0"/>
        <pt x="253" y="81" on="0"/>
        <pt x="343" y="81" on="1"/>
        <pt x="390" y="81" on="0"/>
        <pt x="473" y="119" on="0"/>
        <pt x="515" y="151" on="1"/>
      </contour>
    </TTGlyph>
    <TTGlyph name="Cacute" xMin="51" yMin="-13" xMax="529" yMax="945">
      <component glyphName="C" x="0" y="0" flags="0x204"/>
      <component glyphName="acute.cap" x="169" y="220" flags="0x4"/>
    </TTGlyph>
    <TTGlyph name="Ccaron" xMin="51" yMin="-13" xMax="529" yMax="936">
      <component glyphName="C" x="0" y="0" flags="0x204"/>
      <component glyphName="caron.cap" x="114" y="220" flags="0x4"/>
    </TTGlyph>
    <TTGlyph name="Ccedilla" xMin="51" yMin="-203" xMax="529" yMax="737">
      <component glyphName="C" x="0" y="0" flags="0x204"/>
      <component glyphName="cedilla.cap" x="91" y="-3" flags="0x4"/>
    </TTGlyph>
    <TTGlyph name="Cdotaccent" xMin="51" yMin="-13" xMax="529" yMax="901">
      <component glyphName="dotaccent.cap" x="114" y="220" flags="0x4"/>
      <component glyphName="C" x="0" y="0" flags="0x4"/>
    </TTGlyph>
    <TTGlyph name="D" xMin="79" yMin="0" xMax="590" yMax="725">
      <contour>
        <pt x="590" y="363" on="1"/>
        <pt x="590" y="283" on="0"/>
        <pt x="546" y="149" on="0"/>
        <pt x="459" y="53" on="0"/>
        <pt x="328" y="0" on="0"/>
        <pt x="240" y="0" on="1"/>
        <pt x="79" y="0" on="1"/>
        <pt x="79" y="725" on="1"/>
        <pt x="246" y="725" on="1"/>
        <pt x="333" y="725" on="0"/>
        <pt x="462" y="672" on="0"/>
        <pt x="548" y="576" on="0"/>
        <pt x="590" y="443" on="0"/>
      </contour>
      <contour>
        <pt x="487" y="362" on="1"/>
        <pt x="487" y="497" on="0"/>
        <pt x="360" y="633" on="0"/>
        <pt x="253" y="633" on="1"/>
        <pt x="180" y="633" on="1"/>
        <pt x="180" y="92" on="1"/>
        <pt x="249" y="92" on="1"/>
        <pt x="362" y="92" on="0"/>
        <pt x="487" y="225" on="0"/>
      </contour>
    </TTGlyph>
    <TTGlyph name="Dcaron" xMin="79" yMin="0" xMax="590" yMax="929">
      <component glyphName="caron.cap" x="87" y="213" flags="0x4"/>
      <component glyphName="D" x="0" y="0" flags="0x4"/>
    </TTGlyph>
    <TTGlyph name="Dcroat" xMin="19" yMin="0" xMax="599" yMax="725">
      <component glyphName="Eth" x="0" y="0" flags="0x204"/>
    </TTGlyph>
    <TTGlyph name="Dcroat.flat" xMin="25" yMin="0" xMax="599" yMax="725">
      <component glyphName="Eth.flat" x="0" y="0" flags="0x204"/>
    </TTGlyph>
    <TTGlyph name="E" xMin="79" yMin="0" xMax="447" yMax="725">
      <contour>
        <pt x="79" y="0" on="1"/>
        <pt x="79" y="725" on="1"/>
        <pt x="436" y="725" on="1"/>
        <pt x="436" y="632" on="1"/>
        <pt x="180" y="632" on="1"/>
        <pt x="180" y="425" on="1"/>
        <pt x="377" y="425" on="1"/>
        <pt x="392" y="333" on="1"/>
        <pt x="180" y="333" on="1"/>
        <pt x="180" y="93" on="1"/>
        <pt x="447" y="93" on="1"/>
        <pt x="447" y="0" on="1"/>
      </contour>
    </TTGlyph>
    <TTGlyph name="E.flat" xMin="79" yMin="0" xMax="447" yMax="725">
      <contour>
        <pt x="79" y="0" on="1"/>
        <pt x="79" y="725" on="1"/>
        <pt x="436" y="725" on="1"/>
        <pt x="436" y="632" on="1"/>
        <pt x="180" y="632" on="1"/>
        <pt x="180" y="425" on="1"/>
        <pt x="385" y="425" on="1"/>
        <pt x="385" y="333" on="1"/>
        <pt x="180" y="333" on="1"/>
        <pt x="180" y="93" on="1"/>
        <pt x="447" y="93" on="1"/>
        <pt x="447" y="0" on="1"/>
      </contour>
    </TTGlyph>
    <TTGlyph name="Eacute" xMin="79" yMin="0" xMax="447" yMax="938">
      <component glyphName="acute.cap" x="93" y="213" flags="0x4"/>
      <component glyphName="E" x="0" y="0" flags="0x4"/>
    </TTGlyph>
    <TTGlyph name="Eacute.flat" xMin="79" yMin="0" xMax="447" yMax="938">
      <component glyphName="E.flat" x="0" y="0" flags="0x204"/>
      <component glyphName="acute.cap" x="93" y="213" flags="0x4"/>
    </TTGlyph>
    <TTGlyph name="Ebreve" xMin="79" yMin="0" xMax="447" yMax="916">
      <component glyphName="breve.cap" x="38" y="213" flags="0x4"/>
      <component glyphName="E" x="0" y="0" flags="0x4"/>
    </TTGlyph>
    <TTGlyph name="Ebreve.flat" xMin="79" yMin="0" xMax="447" yMax="916">
      <component glyphName="breve.cap" x="38" y="213" flags="0x4"/>
      <component glyphName="E.flat" x="0" y="0" flags="0x4"/>
    </TTGlyph>
    <TTGlyph name="Ecaron" xMin="79" yMin="0" xMax="447" yMax="929">
      <component glyphName="caron.cap" x="39" y="213" flags="0x4"/>
      <component glyphName="E" x="0" y="0" flags="0x4"/>
    </TTGlyph>
    <TTGlyph name="Ecaron.flat" xMin="79" yMin="0" xMax="447" yMax="929">
      <component glyphName="E.flat" x="0" y="0" flags="0x204"/>
      <component glyphName="caron.cap" x="39" y="213" flags="0x4"/>
    </TTGlyph>
    <TTGlyph name="Ecircumflex" xMin="79" yMin="0" xMax="447" yMax="930">
      <component glyphName="E" x="0" y="0" flags="0x204"/>
      <component glyphName="circumflex.cap" x="40" y="213" flags="0x4"/>
    </TTGlyph>
    <TTGlyph name="Ecircumflex.flat" xMin="79" yMin="0" xMax="447" yMax="930">
      <component glyphName="E.flat" x="0" y="0" flags="0x204"/>
      <component glyphName="circumflex.cap" x="40" y="213" flags="0x4"/>
    </TTGlyph>
    <TTGlyph name="Edieresis" xMin="79" yMin="0" xMax="447" yMax="894">
      <component glyphName="dieresis.cap" x="39" y="213" flags="0x4"/>
      <component glyphName="E" x="0" y="0" flags="0x4"/>
    </TTGlyph>
    <TTGlyph name="Edieresis.flat" xMin="79" yMin="0" xMax="447" yMax="894">
      <component glyphName="E.flat" x="0" y="0" flags="0x204"/>
      <component glyphName="dieresis.cap" x="39" y="213" flags="0x4"/>
    </TTGlyph>
    <TTGlyph name="Edotaccent" xMin="79" yMin="0" xMax="447" yMax="894">
      <component glyphName="dotaccent.cap" x="38" y="213" flags="0x4"/>
      <component glyphName="E" x="0" y="0" flags="0x4"/>
    </TTGlyph>
    <TTGlyph name="Edotaccent.flat" xMin="79" yMin="0" xMax="447" yMax="894">
      <component glyphName="dotaccent.cap" x="38" y="213" flags="0x4"/>
      <component glyphName="E.flat" x="0" y="0" flags="0x4"/>
    </TTGlyph>
    <TTGlyph name="Egrave" xMin="79" yMin="0" xMax="447" yMax="938">
      <component glyphName="grave.cap" x="-16" y="213" flags="0x4"/>
      <component glyphName="E" x="0" y="0" flags="0x4"/>
    </TTGlyph>
    <TTGlyph name="Egrave.flat" xMin="79" yMin="0" xMax="447" yMax="938">
      <component glyphName="grave.cap" x="-16" y="213" flags="0x4"/>
      <component glyphName="E.flat" x="0" y="0" flags="0x4"/>
    </TTGlyph>
    <TTGlyph name="Emacron" xMin="79" yMin="0" xMax="447" yMax="880">
      <component glyphName="macron.cap" x="38" y="213" flags="0x4"/>
      <component glyphName="E" x="0" y="0" flags="0x4"/>
    </TTGlyph>
    <TTGlyph name="Emacron.flat" xMin="79" yMin="0" xMax="447" yMax="880">
      <component glyphName="E.flat" x="0" y="0" flags="0x204"/>
      <component glyphName="macron.cap" x="38" y="213" flags="0x4"/>
    </TTGlyph>
    <TTGlyph name="Eogonek" xMin="79" yMin="-192" xMax="448" yMax="725">
      <contour>
        <pt x="447" y="-177" on="1"/>
        <pt x="431" y="-183" on="0"/>
        <pt x="395" y="-192" on="0"/>
        <pt x="375" y="-192" on="1"/>
        <pt x="337" y="-192" on="0"/>
        <pt x="293" y="-154" on="0"/>
        <pt x="293" y="-117" on="1"/>
        <pt x="293" y="-89" on="0"/>
        <pt x="324" y="-31" on="0"/>
        <pt x="351" y="0" on="1"/>
        <pt x="79" y="0" on="1"/>
        <pt x="79" y="725" on="1"/>
        <pt x="436" y="725" on="1"/>
        <pt x="436" y="632" on="1"/>
        <pt x="180" y="632" on="1"/>
        <pt x="180" y="425" on="1"/>
        <pt x="377" y="425" on="1"/>
        <pt x="392" y="333" on="1"/>
        <pt x="180" y="333" on="1"/>
        <pt x="180" y="93" on="1"/>
        <pt x="447" y="93" on="1"/>
        <pt x="447" y="0" on="1"/>
        <pt x="420" y="0" on="1"/>
        <pt x="401" y="-28" on="1"/>
        <pt x="387" y="-47" on="0"/>
        <pt x="370" y="-78" on="0"/>
        <pt x="370" y="-94" on="1"/>
        <pt x="370" y="-124" on="0"/>
        <pt x="409" y="-124" on="1"/>
        <pt x="418" y="-124" on="0"/>
        <pt x="437" y="-122" on="0"/>
        <pt x="448" y="-120" on="1"/>
        <pt x="447" y="-177" on="1"/>
      </contour>
    </TTGlyph>
    <TTGlyph name="Eogonek.flat" xMin="79" yMin="-192" xMax="448" yMax="725">
      <contour>
        <pt x="447" y="-177" on="1"/>
        <pt x="431" y="-183" on="0"/>
        <pt x="395" y="-192" on="0"/>
        <pt x="375" y="-192" on="1"/>
        <pt x="337" y="-192" on="0"/>
        <pt x="293" y="-154" on="0"/>
        <pt x="293" y="-117" on="1"/>
        <pt x="293" y="-89" on="0"/>
        <pt x="324" y="-31" on="0"/>
        <pt x="351" y="0" on="1"/>
        <pt x="79" y="0" on="1"/>
        <pt x="79" y="725" on="1"/>
        <pt x="436" y="725" on="1"/>
        <pt x="436" y="632" on="1"/>
        <pt x="180" y="632" on="1"/>
        <pt x="180" y="425" on="1"/>
        <pt x="385" y="425" on="1"/>
        <pt x="385" y="333" on="1"/>
        <pt x="180" y="333" on="1"/>
        <pt x="180" y="93" on="1"/>
        <pt x="447" y="93" on="1"/>
        <pt x="447" y="0" on="1"/>
        <pt x="420" y="0" on="1"/>
        <pt x="401" y="-28" on="1"/>
        <pt x="387" y="-47" on="0"/>
        <pt x="370" y="-78" on="0"/>
        <pt x="370" y="-94" on="1"/>
        <pt x="370" y="-124" on="0"/>
        <pt x="409" y="-124" on="1"/>
        <pt x="418" y="-124" on="0"/>
        <pt x="437" y="-122" on="0"/>
        <pt x="448" y="-120" on="1"/>
        <pt x="447" y="-177" on="1"/>
      </contour>
    </TTGlyph>
    <TTGlyph name="Eth" xMin="19" yMin="0" xMax="599" yMax="725">
      <contour>
        <pt x="599" y="363" on="1"/>
        <pt x="599" y="283" on="0"/>
        <pt x="555" y="149" on="0"/>
        <pt x="468" y="53" on="0"/>
        <pt x="336" y="0" on="0"/>
        <pt x="249" y="0" on="1"/>
        <pt x="89" y="0" on="1"/>
        <pt x="89" y="334" on="1"/>
        <pt x="33" y="334" on="1"/>
        <pt x="19" y="423" on="1"/>
        <pt x="89" y="423" on="1"/>
        <pt x="89" y="725" on="1"/>
        <pt x="256" y="725" on="1"/>
        <pt x="343" y="725" on="0"/>
        <pt x="471" y="672" on="0"/>
        <pt x="557" y="576" on="0"/>
        <pt x="599" y="443" on="0"/>
      </contour>
      <contour>
        <pt x="496" y="362" on="1"/>
        <pt x="496" y="497" on="0"/>
        <pt x="369" y="633" on="0"/>
        <pt x="261" y="633" on="1"/>
        <pt x="190" y="633" on="1"/>
        <pt x="190" y="423" on="1"/>
        <pt x="342" y="423" on="1"/>
        <pt x="342" y="335" on="1"/>
        <pt x="190" y="335" on="1"/>
        <pt x="190" y="92" on="1"/>
        <pt x="258" y="92" on="1"/>
        <pt x="370" y="92" on="0"/>
        <pt x="496" y="225" on="0"/>
      </contour>
    </TTGlyph>
    <TTGlyph name="Eth.flat" xMin="25" yMin="0" xMax="599" yMax="725">
      <contour>
        <pt x="599" y="363" on="1"/>
        <pt x="599" y="283" on="0"/>
        <pt x="555" y="149" on="0"/>
        <pt x="468" y="53" on="0"/>
        <pt x="336" y="0" on="0"/>
        <pt x="249" y="0" on="1"/>
        <pt x="89" y="0" on="1"/>
        <pt x="89" y="334" on="1"/>
        <pt x="25" y="334" on="1"/>
        <pt x="25" y="423" on="1"/>
        <pt x="89" y="423" on="1"/>
        <pt x="89" y="725" on="1"/>
        <pt x="256" y="725" on="1"/>
        <pt x="343" y="725" on="0"/>
        <pt x="471" y="672" on="0"/>
        <pt x="557" y="576" on="0"/>
        <pt x="599" y="443" on="0"/>
      </contour>
      <contour>
        <pt x="496" y="362" on="1"/>
        <pt x="496" y="497" on="0"/>
        <pt x="369" y="633" on="0"/>
        <pt x="261" y="633" on="1"/>
        <pt x="190" y="633" on="1"/>
        <pt x="190" y="423" on="1"/>
        <pt x="342" y="423" on="1"/>
        <pt x="342" y="335" on="1"/>
        <pt x="190" y="335" on="1"/>
        <pt x="190" y="92" on="1"/>
        <pt x="258" y="92" on="1"/>
        <pt x="370" y="92" on="0"/>
        <pt x="496" y="225" on="0"/>
      </contour>
    </TTGlyph>
    <TTGlyph name="Euro" xMin="26" yMin="-14" xMax="548" yMax="731">
      <contour>
        <pt x="32" y="486" on="1"/>
        <pt x="121" y="486" on="1"/>
        <pt x="132" y="540" on="0"/>
        <pt x="176" y="630" on="0"/>
        <pt x="240" y="695" on="0"/>
        <pt x="324" y="731" on="0"/>
        <pt x="377" y="731" on="1"/>
        <pt x="428" y="731" on="0"/>
        <pt x="503" y="706" on="0"/>
        <pt x="537" y="684" on="1"/>
        <pt x="520" y="592" on="1"/>
        <pt x="484" y="618" on="0"/>
        <pt x="420" y="647" on="0"/>
        <pt x="378" y="647" on="1"/>
        <pt x="313" y="647" on="0"/>
        <pt x="231" y="558" on="0"/>
        <pt x="214" y="486" on="1"/>
        <pt x="436" y="486" on="1"/>
        <pt x="448" y="409" on="1"/>
        <pt x="203" y="409" on="1"/>
        <pt x="202" y="397" on="0"/>
        <pt x="201" y="373" on="0"/>
        <pt x="201" y="359" on="1"/>
        <pt x="201" y="346" on="0"/>
        <pt x="202" y="322" on="0"/>
        <pt x="203" y="311" on="1"/>
        <pt x="442" y="311" on="1"/>
        <pt x="442" y="235" on="1"/>
        <pt x="214" y="235" on="1"/>
        <pt x="232" y="163" on="0"/>
        <pt x="315" y="72" on="0"/>
        <pt x="379" y="72" on="1"/>
        <pt x="421" y="72" on="0"/>
        <pt x="494" y="102" on="0"/>
        <pt x="533" y="131" on="1"/>
        <pt x="548" y="43" on="1"/>
        <pt x="511" y="17" on="0"/>
        <pt x="426" y="-14" on="0"/>
        <pt x="374" y="-14" on="1"/>
        <pt x="321" y="-14" on="0"/>
        <pt x="236" y="22" on="0"/>
        <pt x="173" y="88" on="0"/>
        <pt x="130" y="180" on="0"/>
        <pt x="119" y="235" on="1"/>
        <pt x="38" y="235" on="1"/>
        <pt x="26" y="311" on="1"/>
        <pt x="110" y="311" on="1"/>
        <pt x="109" y="322" on="0"/>
        <pt x="108" y="346" on="0"/>
        <pt x="108" y="358" on="1"/>
        <pt x="108" y="371" on="0"/>
        <pt x="109" y="396" on="0"/>
        <pt x="110" y="409" on="1"/>
        <pt x="32" y="409" on="1"/>
      </contour>
    </TTGlyph>
    <TTGlyph name="Euro.flat" xMin="32" yMin="-14" xMax="548" yMax="731">
      <contour>
        <pt x="32" y="486" on="1"/>
        <pt x="121" y="486" on="1"/>
        <pt x="132" y="540" on="0"/>
        <pt x="176" y="630" on="0"/>
        <pt x="240" y="695" on="0"/>
        <pt x="324" y="731" on="0"/>
        <pt x="377" y="731" on="1"/>
        <pt x="428" y="731" on="0"/>
        <pt x="503" y="706" on="0"/>
        <pt x="537" y="684" on="1"/>
        <pt x="520" y="592" on="1"/>
        <pt x="484" y="618" on="0"/>
        <pt x="420" y="647" on="0"/>
        <pt x="378" y="647" on="1"/>
        <pt x="313" y="647" on="0"/>
        <pt x="231" y="558" on="0"/>
        <pt x="214" y="486" on="1"/>
        <pt x="442" y="486" on="1"/>
        <pt x="442" y="409" on="1"/>
        <pt x="203" y="409" on="1"/>
        <pt x="202" y="397" on="0"/>
        <pt x="201" y="373" on="0"/>
        <pt x="201" y="359" on="1"/>
        <pt x="201" y="346" on="0"/>
        <pt x="202" y="322" on="0"/>
        <pt x="203" y="311" on="1"/>
        <pt x="442" y="311" on="1"/>
        <pt x="442" y="235" on="1"/>
        <pt x="214" y="235" on="1"/>
        <pt x="232" y="163" on="0"/>
        <pt x="315" y="72" on="0"/>
        <pt x="379" y="72" on="1"/>
        <pt x="421" y="72" on="0"/>
        <pt x="494" y="102" on="0"/>
        <pt x="533" y="131" on="1"/>
        <pt x="548" y="43" on="1"/>
        <pt x="511" y="17" on="0"/>
        <pt x="426" y="-14" on="0"/>
        <pt x="374" y="-14" on="1"/>
        <pt x="321" y="-14" on="0"/>
        <pt x="236" y="22" on="0"/>
        <pt x="173" y="88" on="0"/>
        <pt x="130" y="180" on="0"/>
        <pt x="119" y="235" on="1"/>
        <pt x="32" y="235" on="1"/>
        <pt x="32" y="311" on="1"/>
        <pt x="110" y="311" on="1"/>
        <pt x="109" y="322" on="0"/>
        <pt x="108" y="346" on="0"/>
        <pt x="108" y="358" on="1"/>
        <pt x="108" y="371" on="0"/>
        <pt x="109" y="396" on="0"/>
        <pt x="110" y="409" on="1"/>
        <pt x="32" y="409" on="1"/>
      </contour>
    </TTGlyph>
    <TTGlyph name="Euro.tab" xMin="28" yMin="-14" xMax="505" yMax="731">
      <contour>
        <pt x="33" y="485" on="1"/>
        <pt x="111" y="485" on="1"/>
        <pt x="121" y="538" on="0"/>
        <pt x="159" y="628" on="0"/>
        <pt x="217" y="694" on="0"/>
        <pt x="295" y="731" on="0"/>
        <pt x="346" y="731" on="1"/>
        <pt x="393" y="731" on="0"/>
        <pt x="466" y="707" on="0"/>
        <pt x="496" y="686" on="1"/>
        <pt x="481" y="597" on="1"/>
        <pt x="447" y="623" on="0"/>
        <pt x="387" y="648" on="0"/>
        <pt x="346" y="648" on="1"/>
        <pt x="315" y="648" on="0"/>
        <pt x="267" y="623" on="0"/>
        <pt x="231" y="580" on="0"/>
        <pt x="207" y="520" on="0"/>
        <pt x="200" y="485" on="1"/>
        <pt x="397" y="485" on="1"/>
        <pt x="408" y="410" on="1"/>
        <pt x="191" y="410" on="1"/>
        <pt x="190" y="398" on="0"/>
        <pt x="189" y="373" on="0"/>
        <pt x="189" y="360" on="1"/>
        <pt x="189" y="347" on="0"/>
        <pt x="190" y="323" on="0"/>
        <pt x="191" y="311" on="1"/>
        <pt x="403" y="311" on="1"/>
        <pt x="403" y="237" on="1"/>
        <pt x="200" y="237" on="1"/>
        <pt x="216" y="159" on="0"/>
        <pt x="289" y="71" on="0"/>
        <pt x="348" y="71" on="1"/>
        <pt x="390" y="71" on="0"/>
        <pt x="453" y="97" on="0"/>
        <pt x="490" y="126" on="1"/>
        <pt x="505" y="41" on="1"/>
        <pt x="470" y="15" on="0"/>
        <pt x="391" y="-14" on="0"/>
        <pt x="339" y="-14" on="1"/>
        <pt x="289" y="-14" on="0"/>
        <pt x="212" y="23" on="0"/>
        <pt x="155" y="89" on="0"/>
        <pt x="118" y="181" on="0"/>
        <pt x="109" y="237" on="1"/>
        <pt x="39" y="237" on="1"/>
        <pt x="28" y="311" on="1"/>
        <pt x="101" y="311" on="1"/>
        <pt x="100" y="322" on="0"/>
        <pt x="100" y="346" on="0"/>
        <pt x="100" y="358" on="1"/>
        <pt x="100" y="372" on="0"/>
        <pt x="101" y="397" on="0"/>
        <pt x="102" y="410" on="1"/>
        <pt x="33" y="410" on="1"/>
      </contour>
    </TTGlyph>
    <TTGlyph name="Euro.tab_flat" xMin="33" yMin="-14" xMax="505" yMax="731">
      <contour>
        <pt x="33" y="485" on="1"/>
        <pt x="111" y="485" on="1"/>
        <pt x="121" y="538" on="0"/>
        <pt x="159" y="628" on="0"/>
        <pt x="217" y="694" on="0"/>
        <pt x="295" y="731" on="0"/>
        <pt x="346" y="731" on="1"/>
        <pt x="393" y="731" on="0"/>
        <pt x="466" y="707" on="0"/>
        <pt x="496" y="686" on="1"/>
        <pt x="481" y="597" on="1"/>
        <pt x="447" y="623" on="0"/>
        <pt x="387" y="648" on="0"/>
        <pt x="346" y="648" on="1"/>
        <pt x="315" y="648" on="0"/>
        <pt x="267" y="623" on="0"/>
        <pt x="231" y="580" on="0"/>
        <pt x="207" y="520" on="0"/>
        <pt x="200" y="485" on="1"/>
        <pt x="403" y="485" on="1"/>
        <pt x="403" y="410" on="1"/>
        <pt x="191" y="410" on="1"/>
        <pt x="190" y="398" on="0"/>
        <pt x="189" y="373" on="0"/>
        <pt x="189" y="360" on="1"/>
        <pt x="189" y="347" on="0"/>
        <pt x="190" y="323" on="0"/>
        <pt x="191" y="311" on="1"/>
        <pt x="403" y="311" on="1"/>
        <pt x="403" y="237" on="1"/>
        <pt x="200" y="237" on="1"/>
        <pt x="216" y="159" on="0"/>
        <pt x="289" y="71" on="0"/>
        <pt x="348" y="71" on="1"/>
        <pt x="390" y="71" on="0"/>
        <pt x="453" y="97" on="0"/>
        <pt x="490" y="126" on="1"/>
        <pt x="505" y="41" on="1"/>
        <pt x="470" y="15" on="0"/>
        <pt x="391" y="-14" on="0"/>
        <pt x="339" y="-14" on="1"/>
        <pt x="289" y="-14" on="0"/>
        <pt x="212" y="23" on="0"/>
        <pt x="155" y="89" on="0"/>
        <pt x="118" y="181" on="0"/>
        <pt x="109" y="237" on="1"/>
        <pt x="33" y="237" on="1"/>
        <pt x="33" y="311" on="1"/>
        <pt x="101" y="311" on="1"/>
        <pt x="100" y="322" on="0"/>
        <pt x="100" y="346" on="0"/>
        <pt x="100" y="358" on="1"/>
        <pt x="100" y="372" on="0"/>
        <pt x="101" y="397" on="0"/>
        <pt x="102" y="410" on="1"/>
        <pt x="33" y="410" on="1"/>
      </contour>
    </TTGlyph>
    <TTGlyph name="F" xMin="79" yMin="0" xMax="425" yMax="725">
      <contour>
        <pt x="180" y="632" on="1"/>
        <pt x="180" y="415" on="1"/>
        <pt x="369" y="415" on="1"/>
        <pt x="384" y="321" on="1"/>
        <pt x="180" y="321" on="1"/>
        <pt x="180" y="0" on="1"/>
        <pt x="79" y="0" on="1"/>
        <pt x="79" y="725" on="1"/>
        <pt x="425" y="725" on="1"/>
        <pt x="425" y="632" on="1"/>
      </contour>
    </TTGlyph>
    <TTGlyph name="F.flat" xMin="79" yMin="0" xMax="425" yMax="725">
      <contour>
        <pt x="180" y="632" on="1"/>
        <pt x="180" y="415" on="1"/>
        <pt x="376" y="415" on="1"/>
        <pt x="376" y="321" on="1"/>
        <pt x="180" y="321" on="1"/>
        <pt x="180" y="0" on="1"/>
        <pt x="79" y="0" on="1"/>
        <pt x="79" y="725" on="1"/>
        <pt x="425" y="725" on="1"/>
        <pt x="425" y="632" on="1"/>
      </contour>
    </TTGlyph>
    <TTGlyph name="G" xMin="51" yMin="-14" xMax="565" yMax="738">
      <contour>
        <pt x="565" y="50" on="1"/>
        <pt x="523" y="24" on="0"/>
        <pt x="419" y="-14" on="0"/>
        <pt x="354" y="-14" on="1"/>
        <pt x="277" y="-14" on="0"/>
        <pt x="164" y="42" on="0"/>
        <pt x="88" y="141" on="0"/>
        <pt x="51" y="279" on="0"/>
        <pt x="51" y="361" on="1"/>
        <pt x="51" y="446" on="0"/>
        <pt x="91" y="585" on="0"/>
        <pt x="170" y="684" on="0"/>
        <pt x="286" y="738" on="0"/>
        <pt x="362" y="738" on="1"/>
        <pt x="419" y="738" on="0"/>
        <pt x="506" y="710" on="0"/>
        <pt x="542" y="687" on="1"/>
        <pt x="527" y="585" on="1"/>
        <pt x="491" y="612" on="0"/>
        <pt x="409" y="645" on="0"/>
        <pt x="359" y="645" on="1"/>
        <pt x="308" y="645" on="0"/>
        <pt x="231" y="605" on="0"/>
        <pt x="180" y="532" on="0"/>
        <pt x="154" y="427" on="0"/>
        <pt x="154" y="362" on="1"/>
        <pt x="154" y="302" on="0"/>
        <pt x="178" y="200" on="0"/>
        <pt x="228" y="124" on="0"/>
        <pt x="305" y="81" on="0"/>
        <pt x="358" y="81" on="1"/>
        <pt x="393" y="81" on="0"/>
        <pt x="444" y="95" on="0"/>
        <pt x="467" y="107" on="1"/>
        <pt x="467" y="304" on="1"/>
        <pt x="334" y="304" on="1"/>
        <pt x="320" y="397" on="1"/>
        <pt x="565" y="397" on="1"/>
      </contour>
    </TTGlyph>
    <TTGlyph name="G.flat" xMin="51" yMin="-14" xMax="565" yMax="738">
      <contour>
        <pt x="565" y="50" on="1"/>
        <pt x="523" y="24" on="0"/>
        <pt x="419" y="-14" on="0"/>
        <pt x="354" y="-14" on="1"/>
        <pt x="277" y="-14" on="0"/>
        <pt x="164" y="42" on="0"/>
        <pt x="88" y="141" on="0"/>
        <pt x="51" y="279" on="0"/>
        <pt x="51" y="361" on="1"/>
        <pt x="51" y="446" on="0"/>
        <pt x="91" y="585" on="0"/>
        <pt x="170" y="684" on="0"/>
        <pt x="286" y="738" on="0"/>
        <pt x="362" y="738" on="1"/>
        <pt x="419" y="738" on="0"/>
        <pt x="506" y="710" on="0"/>
        <pt x="542" y="687" on="1"/>
        <pt x="527" y="585" on="1"/>
        <pt x="491" y="612" on="0"/>
        <pt x="409" y="645" on="0"/>
        <pt x="359" y="645" on="1"/>
        <pt x="308" y="645" on="0"/>
        <pt x="231" y="605" on="0"/>
        <pt x="180" y="532" on="0"/>
        <pt x="154" y="427" on="0"/>
        <pt x="154" y="362" on="1"/>
        <pt x="154" y="302" on="0"/>
        <pt x="178" y="200" on="0"/>
        <pt x="228" y="124" on="0"/>
        <pt x="305" y="81" on="0"/>
        <pt x="358" y="81" on="1"/>
        <pt x="393" y="81" on="0"/>
        <pt x="444" y="95" on="0"/>
        <pt x="467" y="107" on="1"/>
        <pt x="467" y="304" on="1"/>
        <pt x="327" y="304" on="1"/>
        <pt x="327" y="397" on="1"/>
        <pt x="565" y="397" on="1"/>
      </contour>
    </TTGlyph>
    <TTGlyph name="Gbreve" xMin="51" yMin="-14" xMax="565" yMax="923">
      <component glyphName="breve.cap" x="121" y="220" flags="0x4"/>
      <component glyphName="G" x="0" y="0" flags="0x4"/>
    </TTGlyph>
    <TTGlyph name="Gbreve.flat" xMin="51" yMin="-14" xMax="565" yMax="923">
      <component glyphName="breve.cap" x="121" y="220" flags="0x4"/>
      <component glyphName="G.flat" x="0" y="0" flags="0x4"/>
    </TTGlyph>
    <TTGlyph name="Gcommaaccent" xMin="51" yMin="-260" xMax="565" yMax="738">
      <component glyphName="G" x="0" y="0" flags="0x204"/>
      <component glyphName="commaaccent.cap" x="123" y="-8" flags="0x4"/>
    </TTGlyph>
    <TTGlyph name="Gcommaaccent.flat" xMin="51" yMin="-260" xMax="565" yMax="738">
      <component glyphName="G.flat" x="0" y="0" flags="0x204"/>
      <component glyphName="commaaccent.cap" x="123" y="-8" flags="0x4"/>
    </TTGlyph>
    <TTGlyph name="Gdotaccent" xMin="51" yMin="-14" xMax="565" yMax="901">
      <component glyphName="dotaccent.cap" x="121" y="220" flags="0x4"/>
      <component glyphName="G" x="0" y="0" flags="0x4"/>
    </TTGlyph>
    <TTGlyph name="Gdotaccent.flat" xMin="51" yMin="-14" xMax="565" yMax="901">
      <component glyphName="dotaccent.cap" x="121" y="220" flags="0x4"/>
      <component glyphName="G.flat" x="0" y="0" flags="0x4"/>
    </TTGlyph>
    <TTGlyph name="H" xMin="79" yMin="0" xMax="572" yMax="725">
      <contour>
        <pt x="472" y="0" on="1"/>
        <pt x="472" y="333" on="1"/>
        <pt x="180" y="333" on="1"/>
        <pt x="180" y="0" on="1"/>
        <pt x="79" y="0" on="1"/>
        <pt x="79" y="725" on="1"/>
        <pt x="180" y="725" on="1"/>
        <pt x="180" y="425" on="1"/>
        <pt x="472" y="425" on="1"/>
        <pt x="472" y="725" on="1"/>
        <pt x="572" y="725" on="1"/>
        <pt x="572" y="0" on="1"/>
      </contour>
    </TTGlyph>
    <TTGlyph name="Hbar" xMin="16" yMin="0" xMax="668" yMax="725">
      <contour>
        <pt x="490" y="0" on="1"/>
        <pt x="490" y="325" on="1"/>
        <pt x="199" y="325" on="1"/>
        <pt x="199" y="0" on="1"/>
        <pt x="98" y="0" on="1"/>
        <pt x="98" y="539" on="1"/>
        <pt x="29" y="539" on="1"/>
        <pt x="16" y="624" on="1"/>
        <pt x="98" y="624" on="1"/>
        <pt x="98" y="725" on="1"/>
        <pt x="199" y="725" on="1"/>
        <pt x="199" y="624" on="1"/>
        <pt x="490" y="624" on="1"/>
        <pt x="490" y="725" on="1"/>
        <pt x="591" y="725" on="1"/>
        <pt x="591" y="624" on="1"/>
        <pt x="668" y="624" on="1"/>
        <pt x="668" y="539" on="1"/>
        <pt x="591" y="539" on="1"/>
        <pt x="591" y="0" on="1"/>
      </contour>
      <contour>
        <pt x="490" y="415" on="1"/>
        <pt x="490" y="542" on="1"/>
        <pt x="199" y="542" on="1"/>
        <pt x="199" y="415" on="1"/>
      </contour>
    </TTGlyph>
    <TTGlyph name="Hbar.flat" xMin="22" yMin="0" xMax="668" yMax="725">
      <contour>
        <pt x="490" y="0" on="1"/>
        <pt x="490" y="325" on="1"/>
        <pt x="199" y="325" on="1"/>
        <pt x="199" y="0" on="1"/>
        <pt x="98" y="0" on="1"/>
        <pt x="98" y="539" on="1"/>
        <pt x="22" y="539" on="1"/>
        <pt x="22" y="624" on="1"/>
        <pt x="98" y="624" on="1"/>
        <pt x="98" y="725" on="1"/>
        <pt x="199" y="725" on="1"/>
        <pt x="199" y="624" on="1"/>
        <pt x="490" y="624" on="1"/>
        <pt x="490" y="725" on="1"/>
        <pt x="591" y="725" on="1"/>
        <pt x="591" y="624" on="1"/>
        <pt x="668" y="624" on="1"/>
        <pt x="668" y="539" on="1"/>
        <pt x="591" y="539" on="1"/>
        <pt x="591" y="0" on="1"/>
      </contour>
      <contour>
        <pt x="490" y="415" on="1"/>
        <pt x="490" y="542" on="1"/>
        <pt x="199" y="542" on="1"/>
        <pt x="199" y="415" on="1"/>
      </contour>
    </TTGlyph>
    <TTGlyph name="I" xMin="85" yMin="0" xMax="186" yMax="725">
      <contour>
        <pt x="85" y="0" on="1"/>
        <pt x="85" y="725" on="1"/>
        <pt x="186" y="725" on="1"/>
        <pt x="186" y="0" on="1"/>
      </contour>
    </TTGlyph>
    <TTGlyph name="Iacute" xMin="85" yMin="0" xMax="287" yMax="938">
      <component glyphName="I" x="0" y="0" flags="0x204"/>
      <component glyphName="acute.cap" x="-31" y="213" flags="0x4"/>
    </TTGlyph>
    <TTGlyph name="Ibreve" xMin="1" yMin="0" xMax="271" yMax="916">
      <component glyphName="I" x="0" y="0" flags="0x204"/>
      <component glyphName="breve.cap" x="-85" y="213" flags="0x4"/>
    </TTGlyph>
    <TTGlyph name="Icircumflex" xMin="1" yMin="0" xMax="271" yMax="930">
      <component glyphName="I" x="0" y="0" flags="0x204"/>
      <component glyphName="circumflex.cap" x="-84" y="213" flags="0x4"/>
    </TTGlyph>
    <TTGlyph name="Idieresis" xMin="2" yMin="0" xMax="270" yMax="894">
      <component glyphName="I" x="0" y="0" flags="0x204"/>
      <component glyphName="dieresis.cap" x="-85" y="213" flags="0x4"/>
    </TTGlyph>
    <TTGlyph name="Idotaccent" xMin="85" yMin="0" xMax="186" yMax="894">
      <component glyphName="I" x="0" y="0" flags="0x204"/>
      <component glyphName="dotaccent.cap" x="-85" y="213" flags="0x4"/>
    </TTGlyph>
    <TTGlyph name="Igrave" xMin="-16" yMin="0" xMax="186" yMax="938">
      <component glyphName="I" x="0" y="0" flags="0x204"/>
      <component glyphName="grave.cap" x="-139" y="213" flags="0x4"/>
    </TTGlyph>
    <TTGlyph name="Imacron" xMin="3" yMin="0" xMax="270" yMax="880">
      <component glyphName="I" x="0" y="0" flags="0x204"/>
      <component glyphName="macron.cap" x="-85" y="213" flags="0x4"/>
    </TTGlyph>
    <TTGlyph name="Iogonek" xMin="45" yMin="-192" xMax="200" yMax="725">
      <contour>
        <pt x="199" y="-177" on="1"/>
        <pt x="183" y="-183" on="0"/>
        <pt x="147" y="-192" on="0"/>
        <pt x="127" y="-192" on="1"/>
        <pt x="89" y="-192" on="0"/>
        <pt x="45" y="-154" on="0"/>
        <pt x="45" y="-117" on="1"/>
        <pt x="45" y="-89" on="0"/>
        <pt x="76" y="-31" on="0"/>
        <pt x="103" y="0" on="1"/>
        <pt x="85" y="0" on="1"/>
        <pt x="85" y="725" on="1"/>
        <pt x="186" y="725" on="1"/>
        <pt x="186" y="0" on="1"/>
        <pt x="172" y="0" on="1"/>
        <pt x="153" y="-28" on="1"/>
        <pt x="139" y="-47" on="0"/>
        <pt x="122" y="-78" on="0"/>
        <pt x="122" y="-94" on="1"/>
        <pt x="122" y="-124" on="0"/>
        <pt x="161" y="-124" on="1"/>
        <pt x="170" y="-124" on="0"/>
        <pt x="189" y="-122" on="0"/>
        <pt x="200" y="-120" on="1"/>
        <pt x="199" y="-177" on="1"/>
      </contour>
    </TTGlyph>
    <TTGlyph name="J" xMin="24" yMin="-7" xMax="287" yMax="725">
      <contour>
        <pt x="287" y="166" on="1"/>
        <pt x="287" y="120" on="0"/>
        <pt x="260" y="55" on="0"/>
        <pt x="211" y="13" on="0"/>
        <pt x="141" y="-7" on="0"/>
        <pt x="99" y="-7" on="1"/>
        <pt x="83" y="-7" on="0"/>
        <pt x="51" y="-5" on="0"/>
        <pt x="40" y="-3" on="1"/>
        <pt x="24" y="89" on="1"/>
        <pt x="53" y="82" on="0"/>
        <pt x="94" y="82" on="1"/>
        <pt x="138" y="82" on="0"/>
        <pt x="186" y="123" on="0"/>
        <pt x="186" y="174" on="1"/>
        <pt x="186" y="725" on="1"/>
        <pt x="287" y="725" on="1"/>
      </contour>
    </TTGlyph>
    <TTGlyph name="K" xMin="79" yMin="-7" xMax="564" yMax="725">
      <contour>
        <pt x="458" y="-7" on="1"/>
        <pt x="180" y="366" on="1"/>
        <pt x="180" y="0" on="1"/>
        <pt x="79" y="0" on="1"/>
        <pt x="79" y="725" on="1"/>
        <pt x="180" y="725" on="1"/>
        <pt x="180" y="403" on="1"/>
        <pt x="427" y="725" on="1"/>
        <pt x="547" y="725" on="1"/>
        <pt x="282" y="386" on="1"/>
        <pt x="564" y="16" on="1"/>
      </contour>
    </TTGlyph>
    <TTGlyph name="K.flat" xMin="79" yMin="0" xMax="576" yMax="725">
      <contour>
        <pt x="453" y="0" on="1"/>
        <pt x="180" y="366" on="1"/>
        <pt x="180" y="0" on="1"/>
        <pt x="79" y="0" on="1"/>
        <pt x="79" y="725" on="1"/>
        <pt x="180" y="725" on="1"/>
        <pt x="180" y="403" on="1"/>
        <pt x="427" y="725" on="1"/>
        <pt x="547" y="725" on="1"/>
        <pt x="282" y="386" on="1"/>
        <pt x="576" y="0" on="1"/>
      </contour>
    </TTGlyph>
    <TTGlyph name="Kcommaaccent" xMin="79" yMin="-243" xMax="564" yMax="725">
      <component glyphName="K" x="0" y="0" flags="0x204"/>
      <component glyphName="commaaccent.cap" x="82" y="9" flags="0x4"/>
    </TTGlyph>
    <TTGlyph name="Kcommaaccent.flat" xMin="79" yMin="-243" xMax="576" yMax="725">
      <component glyphName="K.flat" x="0" y="0" flags="0x204"/>
      <component glyphName="commaaccent.cap" x="82" y="9" flags="0x4"/>
    </TTGlyph>
    <TTGlyph name="L" xMin="79" yMin="0" xMax="422" yMax="725">
      <contour>
        <pt x="79" y="0" on="1"/>
        <pt x="79" y="725" on="1"/>
        <pt x="180" y="725" on="1"/>
        <pt x="180" y="94" on="1"/>
        <pt x="408" y="94" on="1"/>
        <pt x="422" y="0" on="1"/>
      </contour>
    </TTGlyph>
    <TTGlyph name="L.flat" xMin="79" yMin="0" xMax="416" yMax="725">
      <contour>
        <pt x="79" y="0" on="1"/>
        <pt x="79" y="725" on="1"/>
        <pt x="180" y="725" on="1"/>
        <pt x="180" y="94" on="1"/>
        <pt x="416" y="94" on="1"/>
        <pt x="416" y="0" on="1"/>
      </contour>
    </TTGlyph>
    <TTGlyph name="Lacute" xMin="79" yMin="0" xMax="422" yMax="935">
      <component glyphName="acute.cap" x="-17" y="210" flags="0x4"/>
      <component glyphName="L" x="0" y="0" flags="0x4"/>
    </TTGlyph>
    <TTGlyph name="Lacute.flat" xMin="79" yMin="0" xMax="416" yMax="935">
      <component glyphName="acute.cap" x="-17" y="210" flags="0x4"/>
      <component glyphName="L.flat" x="0" y="0" flags="0x4"/>
    </TTGlyph>
    <TTGlyph name="Lcaron" xMin="79" yMin="0" xMax="422" yMax="732">
      <component glyphName="L" x="0" y="0" flags="0x204"/>
      <component glyphName="caron.alt.cap" x="76" y="-27" flags="0x4"/>
    </TTGlyph>
    <TTGlyph name="Lcaron.flat" xMin="79" yMin="0" xMax="416" yMax="732">
      <component glyphName="L.flat" x="0" y="0" flags="0x204"/>
      <component glyphName="caron.alt.cap" x="76" y="-27" flags="0x4"/>
    </TTGlyph>
    <TTGlyph name="Lcommaaccent" xMin="79" yMin="-252" xMax="422" yMax="725">
      <component glyphName="L" x="0" y="0" flags="0x204"/>
      <component glyphName="commaaccent.cap" x="31" y="0" flags="0x4"/>
    </TTGlyph>
    <TTGlyph name="Lcommaaccent.flat" xMin="79" yMin="-252" xMax="416" yMax="725">
      <component glyphName="L.flat" x="0" y="0" flags="0x204"/>
      <component glyphName="commaaccent.cap" x="31" y="0" flags="0x4"/>
    </TTGlyph>
    <TTGlyph name="Ldot" xMin="79" yMin="0" xMax="422" yMax="725">
      <contour>
        <pt x="300" y="319" on="1"/>
        <pt x="300" y="428" on="1"/>
        <pt x="402" y="428" on="1"/>
        <pt x="402" y="319" on="1"/>
      </contour>
      <contour>
        <pt x="79" y="0" on="1"/>
        <pt x="79" y="725" on="1"/>
        <pt x="180" y="725" on="1"/>
        <pt x="180" y="94" on="1"/>
        <pt x="408" y="94" on="1"/>
        <pt x="422" y="0" on="1"/>
      </contour>
    </TTGlyph>
    <TTGlyph name="Ldot.flat" xMin="79" yMin="0" xMax="416" yMax="725">
      <contour>
        <pt x="300" y="319" on="1"/>
        <pt x="300" y="428" on="1"/>
        <pt x="402" y="428" on="1"/>
        <pt x="402" y="319" on="1"/>
      </contour>
      <contour>
        <pt x="79" y="0" on="1"/>
        <pt x="79" y="725" on="1"/>
        <pt x="180" y="725" on="1"/>
        <pt x="180" y="94" on="1"/>
        <pt x="416" y="94" on="1"/>
        <pt x="416" y="0" on="1"/>
      </contour>
    </TTGlyph>
    <TTGlyph name="Lslash" xMin="19" yMin="0" xMax="442" yMax="725">
      <contour>
        <pt x="201" y="327" on="1"/>
        <pt x="201" y="94" on="1"/>
        <pt x="428" y="94" on="1"/>
        <pt x="442" y="0" on="1"/>
        <pt x="100" y="0" on="1"/>
        <pt x="100" y="271" on="1"/>
        <pt x="33" y="233" on="1"/>
        <pt x="19" y="324" on="1"/>
        <pt x="100" y="370" on="1"/>
        <pt x="100" y="725" on="1"/>
        <pt x="201" y="725" on="1"/>
        <pt x="201" y="424" on="1"/>
        <pt x="340" y="503" on="1"/>
        <pt x="340" y="404" on="1"/>
      </contour>
    </TTGlyph>
    <TTGlyph name="Lslash.flat" xMin="25" yMin="0" xMax="440" yMax="725">
      <contour>
        <pt x="201" y="327" on="1"/>
        <pt x="201" y="94" on="1"/>
        <pt x="432" y="94" on="1"/>
        <pt x="440" y="0" on="1"/>
        <pt x="100" y="0" on="1"/>
        <pt x="100" y="272" on="1"/>
        <pt x="25" y="229" on="1"/>
        <pt x="25" y="329" on="1"/>
        <pt x="100" y="371" on="1"/>
        <pt x="100" y="725" on="1"/>
        <pt x="201" y="725" on="1"/>
        <pt x="201" y="424" on="1"/>
        <pt x="340" y="503" on="1"/>
        <pt x="340" y="404" on="1"/>
      </contour>
    </TTGlyph>
    <TTGlyph name="M" xMin="62" yMin="-3" xMax="782" yMax="725">
      <contour>
        <pt x="686" y="0" on="1"/>
        <pt x="651" y="573" on="1"/>
        <pt x="462" y="-3" on="1"/>
        <pt x="378" y="-3" on="1"/>
        <pt x="187" y="573" on="1"/>
        <pt x="156" y="0" on="1"/>
        <pt x="62" y="0" on="1"/>
        <pt x="108" y="725" on="1"/>
        <pt x="231" y="725" on="1"/>
        <pt x="422" y="135" on="1"/>
        <pt x="614" y="725" on="1"/>
        <pt x="736" y="725" on="1"/>
        <pt x="782" y="0" on="1"/>
      </contour>
    </TTGlyph>
    <TTGlyph name="M.alt" xMin="79" yMin="-3" xMax="765" yMax="725">
      <contour>
        <pt x="668" y="0" on="1"/>
        <pt x="669" y="575" on="1"/>
        <pt x="463" y="-3" on="1"/>
        <pt x="377" y="-3" on="1"/>
        <pt x="171" y="575" on="1"/>
        <pt x="172" y="0" on="1"/>
        <pt x="79" y="0" on="1"/>
        <pt x="79" y="725" on="1"/>
        <pt x="213" y="725" on="1"/>
        <pt x="423" y="139" on="1"/>
        <pt x="633" y="725" on="1"/>
        <pt x="765" y="725" on="1"/>
        <pt x="765" y="0" on="1"/>
      </contour>
    </TTGlyph>
    <TTGlyph name="N" xMin="79" yMin="0" xMax="576" yMax="725">
      <contour>
        <pt x="492" y="0" on="1"/>
        <pt x="171" y="549" on="1"/>
        <pt x="174" y="0" on="1"/>
        <pt x="79" y="0" on="1"/>
        <pt x="79" y="725" on="1"/>
        <pt x="176" y="725" on="1"/>
        <pt x="484" y="196" on="1"/>
        <pt x="482" y="725" on="1"/>
        <pt x="576" y="725" on="1"/>
        <pt x="576" y="0" on="1"/>
      </contour>
    </TTGlyph>
    <TTGlyph name="Nacute" xMin="79" yMin="0" xMax="576" yMax="927">
      <component glyphName="acute.cap" x="161" y="202" flags="0x4"/>
      <component glyphName="N" x="0" y="0" flags="0x4"/>
    </TTGlyph>
    <TTGlyph name="Ncaron" xMin="79" yMin="0" xMax="576" yMax="918">
      <component glyphName="caron.cap" x="106" y="202" flags="0x4"/>
      <component glyphName="N" x="0" y="0" flags="0x4"/>
    </TTGlyph>
    <TTGlyph name="Ncommaaccent" xMin="79" yMin="-243" xMax="576" yMax="725">
      <component glyphName="commaaccent.cap" x="108" y="9" flags="0x4"/>
      <component glyphName="N" x="0" y="0" flags="0x4"/>
    </TTGlyph>
    <TTGlyph name="Ntilde" xMin="79" yMin="0" xMax="576" yMax="906">
      <component glyphName="tilde.cap" x="111" y="202" flags="0x4"/>
      <component glyphName="N" x="0" y="0" flags="0x4"/>
    </TTGlyph>
    <TTGlyph name="O" xMin="51" yMin="-14" xMax="628" yMax="738">
      <contour>
        <pt x="628" y="363" on="1"/>
        <pt x="628" y="278" on="0"/>
        <pt x="588" y="139" on="0"/>
        <pt x="513" y="40" on="0"/>
        <pt x="405" y="-14" on="0"/>
        <pt x="338" y="-14" on="1"/>
        <pt x="270" y="-14" on="0"/>
        <pt x="164" y="40" on="0"/>
        <pt x="90" y="138" on="0"/>
        <pt x="51" y="277" on="0"/>
        <pt x="51" y="361" on="1"/>
        <pt x="51" y="446" on="0"/>
        <pt x="91" y="585" on="0"/>
        <pt x="166" y="684" on="0"/>
        <pt x="273" y="738" on="0"/>
        <pt x="340" y="738" on="1"/>
        <pt x="408" y="738" on="0"/>
        <pt x="515" y="684" on="0"/>
        <pt x="589" y="586" on="0"/>
        <pt x="628" y="448" on="0"/>
      </contour>
      <contour>
        <pt x="525" y="362" on="1"/>
        <pt x="525" y="427" on="0"/>
        <pt x="499" y="533" on="0"/>
        <pt x="451" y="607" on="0"/>
        <pt x="382" y="647" on="0"/>
        <pt x="339" y="647" on="1"/>
        <pt x="295" y="647" on="0"/>
        <pt x="227" y="607" on="0"/>
        <pt x="179" y="533" on="0"/>
        <pt x="154" y="427" on="0"/>
        <pt x="154" y="362" on="1"/>
        <pt x="154" y="297" on="0"/>
        <pt x="180" y="192" on="0"/>
        <pt x="228" y="118" on="0"/>
        <pt x="296" y="78" on="0"/>
        <pt x="339" y="78" on="1"/>
        <pt x="382" y="78" on="0"/>
        <pt x="451" y="118" on="0"/>
        <pt x="499" y="192" on="0"/>
        <pt x="525" y="297" on="0"/>
      </contour>
    </TTGlyph>
    <TTGlyph name="OE" xMin="52" yMin="0" xMax="789" yMax="725">
      <contour>
        <pt x="395" y="0" on="1"/>
        <pt x="308" y="0" on="0"/>
        <pt x="180" y="53" on="0"/>
        <pt x="94" y="149" on="0"/>
        <pt x="52" y="281" on="0"/>
        <pt x="52" y="361" on="1"/>
        <pt x="52" y="441" on="0"/>
        <pt x="96" y="575" on="0"/>
        <pt x="183" y="671" on="0"/>
        <pt x="315" y="725" on="0"/>
        <pt x="402" y="725" on="1"/>
        <pt x="778" y="725" on="1"/>
        <pt x="778" y="632" on="1"/>
        <pt x="525" y="632" on="1"/>
        <pt x="525" y="425" on="1"/>
        <pt x="720" y="425" on="1"/>
        <pt x="736" y="333" on="1"/>
        <pt x="525" y="333" on="1"/>
        <pt x="525" y="93" on="1"/>
        <pt x="789" y="93" on="1"/>
        <pt x="789" y="0" on="1"/>
      </contour>
      <contour>
        <pt x="426" y="633" on="1"/>
        <pt x="392" y="633" on="1"/>
        <pt x="281" y="633" on="0"/>
        <pt x="154" y="499" on="0"/>
        <pt x="154" y="362" on="1"/>
        <pt x="154" y="228" on="0"/>
        <pt x="282" y="92" on="0"/>
        <pt x="390" y="92" on="1"/>
        <pt x="426" y="92" on="1"/>
      </contour>
    </TTGlyph>
    <TTGlyph name="OE.flat" xMin="52" yMin="0" xMax="789" yMax="725">
      <contour>
        <pt x="395" y="0" on="1"/>
        <pt x="308" y="0" on="0"/>
        <pt x="180" y="53" on="0"/>
        <pt x="94" y="149" on="0"/>
        <pt x="52" y="281" on="0"/>
        <pt x="52" y="361" on="1"/>
        <pt x="52" y="441" on="0"/>
        <pt x="96" y="575" on="0"/>
        <pt x="183" y="671" on="0"/>
        <pt x="315" y="725" on="0"/>
        <pt x="402" y="725" on="1"/>
        <pt x="778" y="725" on="1"/>
        <pt x="778" y="632" on="1"/>
        <pt x="525" y="632" on="1"/>
        <pt x="525" y="425" on="1"/>
        <pt x="728" y="425" on="1"/>
        <pt x="728" y="333" on="1"/>
        <pt x="525" y="333" on="1"/>
        <pt x="525" y="93" on="1"/>
        <pt x="789" y="93" on="1"/>
        <pt x="789" y="0" on="1"/>
      </contour>
      <contour>
        <pt x="426" y="633" on="1"/>
        <pt x="392" y="633" on="1"/>
        <pt x="281" y="633" on="0"/>
        <pt x="154" y="499" on="0"/>
        <pt x="154" y="362" on="1"/>
        <pt x="154" y="228" on="0"/>
        <pt x="282" y="92" on="0"/>
        <pt x="390" y="92" on="1"/>
        <pt x="426" y="92" on="1"/>
      </contour>
    </TTGlyph>
    <TTGlyph name="Oacute" xMin="51" yMin="-14" xMax="628" yMax="945">
      <component glyphName="acute.cap" x="172" y="220" flags="0x4"/>
      <component glyphName="O" x="0" y="0" flags="0x4"/>
    </TTGlyph>
    <TTGlyph name="Obreve" xMin="51" yMin="-14" xMax="628" yMax="923">
      <component glyphName="breve.cap" x="119" y="220" flags="0x4"/>
      <component glyphName="O" x="0" y="0" flags="0x4"/>
    </TTGlyph>
    <TTGlyph name="Ocircumflex" xMin="51" yMin="-14" xMax="628" yMax="937">
      <component glyphName="O" x="0" y="0" flags="0x204"/>
      <component glyphName="circumflex.cap" x="119" y="220" flags="0x4"/>
    </TTGlyph>
    <TTGlyph name="Odieresis" xMin="51" yMin="-14" xMax="628" yMax="901">
      <component glyphName="dieresis.cap" x="119" y="220" flags="0x4"/>
      <component glyphName="O" x="0" y="0" flags="0x4"/>
    </TTGlyph>
    <TTGlyph name="Ograve" xMin="51" yMin="-14" xMax="628" yMax="945">
      <component glyphName="grave.cap" x="64" y="220" flags="0x4"/>
      <component glyphName="O" x="0" y="0" flags="0x4"/>
    </TTGlyph>
    <TTGlyph name="Ohungarumlaut" xMin="51" yMin="-14" xMax="628" yMax="944">
      <component glyphName="O" x="0" y="0" flags="0x204"/>
      <component glyphName="hungarumlaut.cap" x="168" y="220" flags="0x4"/>
    </TTGlyph>
    <TTGlyph name="Omacron" xMin="51" yMin="-14" xMax="628" yMax="887">
      <component glyphName="macron.cap" x="119" y="220" flags="0x4"/>
      <component glyphName="O" x="0" y="0" flags="0x4"/>
    </TTGlyph>
    <TTGlyph name="Oslash" xMin="41" yMin="-14" xMax="636" yMax="738">
      <contour>
        <pt x="628" y="363" on="1"/>
        <pt x="628" y="278" on="0"/>
        <pt x="588" y="139" on="0"/>
        <pt x="513" y="40" on="0"/>
        <pt x="405" y="-14" on="0"/>
        <pt x="338" y="-14" on="1"/>
        <pt x="238" y="-14" on="0"/>
        <pt x="167" y="46" on="1"/>
        <pt x="128" y="-10" on="1"/>
        <pt x="41" y="11" on="1"/>
        <pt x="112" y="111" on="1"/>
        <pt x="51" y="209" on="0"/>
        <pt x="51" y="361" on="1"/>
        <pt x="51" y="446" on="0"/>
        <pt x="91" y="585" on="0"/>
        <pt x="166" y="684" on="0"/>
        <pt x="273" y="738" on="0"/>
        <pt x="340" y="738" on="1"/>
        <pt x="441" y="738" on="0"/>
        <pt x="512" y="678" on="1"/>
        <pt x="551" y="734" on="1"/>
        <pt x="636" y="713" on="1"/>
        <pt x="566" y="614" on="1"/>
        <pt x="596" y="566" on="0"/>
        <pt x="628" y="440" on="0"/>
      </contour>
      <contour>
        <pt x="339" y="648" on="1"/>
        <pt x="295" y="648" on="0"/>
        <pt x="226" y="608" on="0"/>
        <pt x="178" y="533" on="0"/>
        <pt x="152" y="428" on="0"/>
        <pt x="152" y="362" on="1"/>
        <pt x="152" y="267" on="0"/>
        <pt x="180" y="197" on="1"/>
        <pt x="456" y="596" on="1"/>
        <pt x="409" y="648" on="0"/>
      </contour>
      <contour>
        <pt x="527" y="362" on="1"/>
        <pt x="527" y="458" on="0"/>
        <pt x="499" y="528" on="1"/>
        <pt x="222" y="128" on="1"/>
        <pt x="269" y="76" on="0"/>
        <pt x="339" y="76" on="1"/>
        <pt x="382" y="76" on="0"/>
        <pt x="452" y="116" on="0"/>
        <pt x="501" y="191" on="0"/>
        <pt x="527" y="296" on="0"/>
      </contour>
    </TTGlyph>
    <TTGlyph name="Oslashacute" xMin="41" yMin="-14" xMax="636" yMax="945">
      <component glyphName="Oslash" x="0" y="0" flags="0x204"/>
      <component glyphName="acute.cap" x="178" y="220" flags="0x4"/>
    </TTGlyph>
    <TTGlyph name="Otilde" xMin="51" yMin="-14" xMax="628" yMax="924">
      <component glyphName="tilde.cap" x="122" y="220" flags="0x4"/>
      <component glyphName="O" x="0" y="0" flags="0x4"/>
    </TTGlyph>
    <TTGlyph name="P" xMin="79" yMin="0" xMax="485" yMax="725">
      <contour>
        <pt x="485" y="506" on="1"/>
        <pt x="485" y="449" on="0"/>
        <pt x="449" y="364" on="0"/>
        <pt x="383" y="306" on="0"/>
        <pt x="290" y="277" on="0"/>
        <pt x="233" y="277" on="1"/>
        <pt x="180" y="277" on="1"/>
        <pt x="180" y="0" on="1"/>
        <pt x="79" y="0" on="1"/>
        <pt x="79" y="725" on="1"/>
        <pt x="244" y="725" on="1"/>
        <pt x="358" y="725" on="0"/>
        <pt x="485" y="613" on="0"/>
      </contour>
      <contour>
        <pt x="384" y="503" on="1"/>
        <pt x="384" y="568" on="0"/>
        <pt x="313" y="635" on="0"/>
        <pt x="239" y="635" on="1"/>
        <pt x="180" y="635" on="1"/>
        <pt x="180" y="367" on="1"/>
        <pt x="234" y="367" on="1"/>
        <pt x="307" y="367" on="0"/>
        <pt x="384" y="434" on="0"/>
      </contour>
    </TTGlyph>
    <TTGlyph name="Q" xMin="51" yMin="-145" xMax="628" yMax="738">
      <contour>
        <pt x="628" y="363" on="1"/>
        <pt x="628" y="223" on="0"/>
        <pt x="527" y="45" on="0"/>
        <pt x="436" y="11" on="1"/>
        <pt x="616" y="-55" on="1"/>
        <pt x="594" y="-145" on="1"/>
        <pt x="264" y="-9" on="1"/>
        <pt x="157" y="37" on="0"/>
        <pt x="51" y="214" on="0"/>
        <pt x="51" y="361" on="1"/>
        <pt x="51" y="446" on="0"/>
        <pt x="91" y="585" on="0"/>
        <pt x="166" y="684" on="0"/>
        <pt x="273" y="738" on="0"/>
        <pt x="340" y="738" on="1"/>
        <pt x="408" y="738" on="0"/>
        <pt x="515" y="684" on="0"/>
        <pt x="589" y="586" on="0"/>
        <pt x="628" y="448" on="0"/>
      </contour>
      <contour>
        <pt x="525" y="362" on="1"/>
        <pt x="525" y="427" on="0"/>
        <pt x="499" y="533" on="0"/>
        <pt x="451" y="607" on="0"/>
        <pt x="382" y="647" on="0"/>
        <pt x="339" y="647" on="1"/>
        <pt x="295" y="647" on="0"/>
        <pt x="227" y="607" on="0"/>
        <pt x="179" y="533" on="0"/>
        <pt x="154" y="427" on="0"/>
        <pt x="154" y="362" on="1"/>
        <pt x="154" y="299" on="0"/>
        <pt x="179" y="193" on="0"/>
        <pt x="227" y="116" on="0"/>
        <pt x="296" y="73" on="0"/>
        <pt x="340" y="73" on="1"/>
        <pt x="384" y="73" on="0"/>
        <pt x="453" y="116" on="0"/>
        <pt x="500" y="193" on="0"/>
        <pt x="525" y="299" on="0"/>
      </contour>
    </TTGlyph>
    <TTGlyph name="Q.alt" xMin="50" yMin="-16" xMax="641" yMax="738">
      <contour>
        <pt x="622" y="-16" on="1"/>
        <pt x="528" y="67" on="1"/>
        <pt x="491" y="29" on="0"/>
        <pt x="395" y="-14" on="0"/>
        <pt x="338" y="-14" on="1"/>
        <pt x="270" y="-14" on="0"/>
        <pt x="164" y="40" on="0"/>
        <pt x="89" y="138" on="0"/>
        <pt x="50" y="277" on="0"/>
        <pt x="50" y="361" on="1"/>
        <pt x="50" y="446" on="0"/>
        <pt x="90" y="585" on="0"/>
        <pt x="165" y="684" on="0"/>
        <pt x="272" y="738" on="0"/>
        <pt x="340" y="738" on="1"/>
        <pt x="407" y="738" on="0"/>
        <pt x="514" y="684" on="0"/>
        <pt x="587" y="586" on="0"/>
        <pt x="626" y="448" on="0"/>
        <pt x="626" y="363" on="1"/>
        <pt x="626" y="298" on="0"/>
        <pt x="601" y="186" on="0"/>
        <pt x="578" y="141" on="1"/>
        <pt x="641" y="89" on="1"/>
      </contour>
      <contour>
        <pt x="524" y="362" on="1"/>
        <pt x="524" y="427" on="0"/>
        <pt x="498" y="533" on="0"/>
        <pt x="450" y="607" on="0"/>
        <pt x="381" y="647" on="0"/>
        <pt x="339" y="647" on="1"/>
        <pt x="295" y="647" on="0"/>
        <pt x="226" y="607" on="0"/>
        <pt x="178" y="533" on="0"/>
        <pt x="153" y="427" on="0"/>
        <pt x="153" y="362" on="1"/>
        <pt x="153" y="297" on="0"/>
        <pt x="179" y="192" on="0"/>
        <pt x="227" y="118" on="0"/>
        <pt x="296" y="78" on="0"/>
        <pt x="339" y="78" on="1"/>
        <pt x="409" y="78" on="0"/>
        <pt x="457" y="129" on="1"/>
        <pt x="312" y="251" on="1"/>
        <pt x="425" y="276" on="1"/>
        <pt x="501" y="207" on="1"/>
        <pt x="524" y="273" on="0"/>
      </contour>
    </TTGlyph>
    <TTGlyph name="Q.alt_flat" xMin="50" yMin="-20" xMax="635" yMax="738">
      <contour>
        <pt x="635" y="-20" on="1"/>
        <pt x="528" y="69" on="1"/>
        <pt x="491" y="29" on="0"/>
        <pt x="396" y="-14" on="0"/>
        <pt x="338" y="-14" on="1"/>
        <pt x="270" y="-14" on="0"/>
        <pt x="164" y="40" on="0"/>
        <pt x="89" y="138" on="0"/>
        <pt x="50" y="277" on="0"/>
        <pt x="50" y="361" on="1"/>
        <pt x="50" y="446" on="0"/>
        <pt x="90" y="585" on="0"/>
        <pt x="165" y="684" on="0"/>
        <pt x="272" y="738" on="0"/>
        <pt x="340" y="738" on="1"/>
        <pt x="407" y="738" on="0"/>
        <pt x="514" y="684" on="0"/>
        <pt x="587" y="586" on="0"/>
        <pt x="626" y="448" on="0"/>
        <pt x="626" y="363" on="1"/>
        <pt x="626" y="299" on="0"/>
        <pt x="601" y="188" on="0"/>
        <pt x="578" y="143" on="1"/>
        <pt x="635" y="98" on="1"/>
      </contour>
      <contour>
        <pt x="524" y="362" on="1"/>
        <pt x="524" y="427" on="0"/>
        <pt x="498" y="533" on="0"/>
        <pt x="450" y="607" on="0"/>
        <pt x="381" y="647" on="0"/>
        <pt x="339" y="647" on="1"/>
        <pt x="295" y="647" on="0"/>
        <pt x="226" y="607" on="0"/>
        <pt x="178" y="533" on="0"/>
        <pt x="153" y="427" on="0"/>
        <pt x="153" y="362" on="1"/>
        <pt x="153" y="297" on="0"/>
        <pt x="179" y="192" on="0"/>
        <pt x="227" y="118" on="0"/>
        <pt x="296" y="78" on="0"/>
        <pt x="339" y="78" on="1"/>
        <pt x="409" y="78" on="0"/>
        <pt x="455" y="127" on="1"/>
        <pt x="352" y="207" on="1"/>
        <pt x="352" y="327" on="1"/>
        <pt x="500" y="205" on="1"/>
        <pt x="524" y="268" on="0"/>
      </contour>
    </TTGlyph>
    <TTGlyph name="R" xMin="79" yMin="-7" xMax="537" yMax="725">
      <contour>
        <pt x="434" y="-7" on="1"/>
        <pt x="235" y="307" on="1"/>
        <pt x="180" y="307" on="1"/>
        <pt x="180" y="0" on="1"/>
        <pt x="79" y="0" on="1"/>
        <pt x="79" y="725" on="1"/>
        <pt x="256" y="725" on="1"/>
        <pt x="367" y="725" on="0"/>
        <pt x="490" y="617" on="0"/>
        <pt x="490" y="518" on="1"/>
        <pt x="490" y="437" on="0"/>
        <pt x="407" y="339" on="0"/>
        <pt x="340" y="319" on="1"/>
        <pt x="537" y="16" on="1"/>
      </contour>
      <contour>
        <pt x="390" y="513" on="1"/>
        <pt x="390" y="570" on="0"/>
        <pt x="322" y="635" on="0"/>
        <pt x="252" y="635" on="1"/>
        <pt x="180" y="635" on="1"/>
        <pt x="180" y="391" on="1"/>
        <pt x="244" y="391" on="1"/>
        <pt x="313" y="391" on="0"/>
        <pt x="390" y="455" on="0"/>
      </contour>
    </TTGlyph>
    <TTGlyph name="R.flat" xMin="79" yMin="0" xMax="547" yMax="725">
      <contour>
        <pt x="430" y="0" on="1"/>
        <pt x="235" y="307" on="1"/>
        <pt x="180" y="307" on="1"/>
        <pt x="180" y="0" on="1"/>
        <pt x="79" y="0" on="1"/>
        <pt x="79" y="725" on="1"/>
        <pt x="256" y="725" on="1"/>
        <pt x="367" y="725" on="0"/>
        <pt x="490" y="617" on="0"/>
        <pt x="490" y="518" on="1"/>
        <pt x="490" y="437" on="0"/>
        <pt x="407" y="339" on="0"/>
        <pt x="340" y="319" on="1"/>
        <pt x="547" y="0" on="1"/>
      </contour>
      <contour>
        <pt x="390" y="513" on="1"/>
        <pt x="390" y="570" on="0"/>
        <pt x="322" y="635" on="0"/>
        <pt x="252" y="635" on="1"/>
        <pt x="180" y="635" on="1"/>
        <pt x="180" y="391" on="1"/>
        <pt x="244" y="391" on="1"/>
        <pt x="313" y="391" on="0"/>
        <pt x="390" y="455" on="0"/>
      </contour>
    </TTGlyph>
    <TTGlyph name="R_p" xMin="86" yMin="-196" xMax="983" yMax="717">
      <contour>
        <pt x="241" y="305" on="1"/>
        <pt x="182" y="305" on="1"/>
        <pt x="182" y="0" on="1"/>
        <pt x="86" y="0" on="1"/>
        <pt x="86" y="717" on="1"/>
        <pt x="258" y="717" on="1"/>
        <pt x="369" y="717" on="0"/>
        <pt x="492" y="609" on="0"/>
        <pt x="492" y="512" on="1"/>
        <pt x="492" y="432" on="0"/>
        <pt x="409" y="335" on="0"/>
        <pt x="342" y="316" on="1"/>
        <pt x="534" y="16" on="1"/>
        <pt x="436" y="-7" on="1"/>
      </contour>
      <contour>
        <pt x="983" y="266" on="1"/>
        <pt x="983" y="196" on="0"/>
        <pt x="949" y="94" on="0"/>
        <pt x="892" y="27" on="0"/>
        <pt x="817" y="-6" on="0"/>
        <pt x="776" y="-6" on="1"/>
        <pt x="747" y="-6" on="0"/>
        <pt x="697" y="5" on="0"/>
        <pt x="677" y="13" on="1"/>
        <pt x="677" y="-182" on="1"/>
        <pt x="582" y="-196" on="1"/>
        <pt x="582" y="507" on="1"/>
        <pt x="657" y="507" on="1"/>
        <pt x="668" y="444" on="1"/>
        <pt x="694" y="474" on="0"/>
        <pt x="760" y="518" on="0"/>
        <pt x="807" y="518" on="1"/>
        <pt x="843" y="518" on="0"/>
        <pt x="907" y="488" on="0"/>
        <pt x="955" y="426" on="0"/>
        <pt x="983" y="331" on="0"/>
      </contour>
      <contour>
        <pt x="888" y="262" on="1"/>
        <pt x="888" y="349" on="0"/>
        <pt x="831" y="431" on="0"/>
        <pt x="790" y="431" on="1"/>
        <pt x="758" y="431" on="0"/>
        <pt x="704" y="392" on="0"/>
        <pt x="677" y="359" on="1"/>
        <pt x="677" y="99" on="1"/>
        <pt x="700" y="87" on="0"/>
        <pt x="740" y="77" on="0"/>
        <pt x="769" y="77" on="1"/>
        <pt x="820" y="77" on="0"/>
        <pt x="888" y="168" on="0"/>
      </contour>
      <contour>
        <pt x="248" y="386" on="1"/>
        <pt x="318" y="386" on="0"/>
        <pt x="395" y="451" on="0"/>
        <pt x="395" y="508" on="1"/>
        <pt x="395" y="566" on="0"/>
        <pt x="327" y="631" on="0"/>
        <pt x="256" y="631" on="1"/>
        <pt x="182" y="631" on="1"/>
        <pt x="182" y="386" on="1"/>
      </contour>
    </TTGlyph>
    <TTGlyph name="R_p.flat" xMin="86" yMin="-196" xMax="983" yMax="717">
      <contour>
        <pt x="241" y="305" on="1"/>
        <pt x="182" y="305" on="1"/>
        <pt x="182" y="0" on="1"/>
        <pt x="86" y="0" on="1"/>
        <pt x="86" y="717" on="1"/>
        <pt x="258" y="717" on="1"/>
        <pt x="369" y="717" on="0"/>
        <pt x="492" y="609" on="0"/>
        <pt x="492" y="512" on="1"/>
        <pt x="492" y="432" on="0"/>
        <pt x="409" y="335" on="0"/>
        <pt x="342" y="316" on="1"/>
        <pt x="544" y="0" on="1"/>
        <pt x="431" y="0" on="1"/>
      </contour>
      <contour>
        <pt x="983" y="266" on="1"/>
        <pt x="983" y="196" on="0"/>
        <pt x="949" y="94" on="0"/>
        <pt x="892" y="27" on="0"/>
        <pt x="817" y="-6" on="0"/>
        <pt x="776" y="-6" on="1"/>
        <pt x="747" y="-6" on="0"/>
        <pt x="697" y="5" on="0"/>
        <pt x="677" y="13" on="1"/>
        <pt x="677" y="-182" on="1"/>
        <pt x="582" y="-196" on="1"/>
        <pt x="582" y="507" on="1"/>
        <pt x="657" y="507" on="1"/>
        <pt x="668" y="444" on="1"/>
        <pt x="694" y="474" on="0"/>
        <pt x="760" y="518" on="0"/>
        <pt x="807" y="518" on="1"/>
        <pt x="843" y="518" on="0"/>
        <pt x="907" y="488" on="0"/>
        <pt x="955" y="426" on="0"/>
        <pt x="983" y="331" on="0"/>
      </contour>
      <contour>
        <pt x="888" y="262" on="1"/>
        <pt x="888" y="349" on="0"/>
        <pt x="831" y="431" on="0"/>
        <pt x="790" y="431" on="1"/>
        <pt x="758" y="431" on="0"/>
        <pt x="704" y="392" on="0"/>
        <pt x="677" y="359" on="1"/>
        <pt x="677" y="99" on="1"/>
        <pt x="700" y="87" on="0"/>
        <pt x="740" y="77" on="0"/>
        <pt x="769" y="77" on="1"/>
        <pt x="820" y="77" on="0"/>
        <pt x="888" y="168" on="0"/>
      </contour>
      <contour>
        <pt x="248" y="386" on="1"/>
        <pt x="318" y="386" on="0"/>
        <pt x="395" y="451" on="0"/>
        <pt x="395" y="508" on="1"/>
        <pt x="395" y="566" on="0"/>
        <pt x="327" y="631" on="0"/>
        <pt x="256" y="631" on="1"/>
        <pt x="182" y="631" on="1"/>
        <pt x="182" y="386" on="1"/>
      </contour>
    </TTGlyph>
    <TTGlyph name="Racute" xMin="79" yMin="-7" xMax="537" yMax="938">
      <component glyphName="R" x="0" y="0" flags="0x204"/>
      <component glyphName="acute.cap" x="104" y="213" flags="0x4"/>
    </TTGlyph>
    <TTGlyph name="Racute.flat" xMin="79" yMin="0" xMax="547" yMax="938">
      <component glyphName="acute.cap" x="104" y="213" flags="0x4"/>
      <component glyphName="R.flat" x="0" y="0" flags="0x4"/>
    </TTGlyph>
    <TTGlyph name="Rcaron" xMin="79" yMin="-7" xMax="537" yMax="929">
      <component glyphName="caron.cap" x="49" y="213" flags="0x4"/>
      <component glyphName="R" x="0" y="0" flags="0x4"/>
    </TTGlyph>
    <TTGlyph name="Rcaron.flat" xMin="79" yMin="0" xMax="547" yMax="929">
      <component glyphName="caron.cap" x="49" y="213" flags="0x4"/>
      <component glyphName="R.flat" x="0" y="0" flags="0x4"/>
    </TTGlyph>
    <TTGlyph name="Rcommaaccent" xMin="79" yMin="-243" xMax="537" yMax="725">
      <component glyphName="R" x="0" y="0" flags="0x204"/>
      <component glyphName="commaaccent.cap" x="69" y="9" flags="0x4"/>
    </TTGlyph>
    <TTGlyph name="Rcommaaccent.flat" xMin="79" yMin="-243" xMax="547" yMax="725">
      <component glyphName="R.flat" x="0" y="0" flags="0x204"/>
      <component glyphName="commaaccent.cap" x="69" y="9" flags="0x4"/>
    </TTGlyph>
    <TTGlyph name="S" xMin="48" yMin="-8" xMax="447" yMax="733">
      <contour>
        <pt x="447" y="192" on="1"/>
        <pt x="447" y="148" on="0"/>
        <pt x="416" y="74" on="0"/>
        <pt x="359" y="21" on="0"/>
        <pt x="278" y="-8" on="0"/>
        <pt x="229" y="-8" on="1"/>
        <pt x="177" y="-8" on="0"/>
        <pt x="86" y="16" on="0"/>
        <pt x="48" y="37" on="1"/>
        <pt x="63" y="138" on="1"/>
        <pt x="98" y="115" on="0"/>
        <pt x="183" y="83" on="0"/>
        <pt x="231" y="83" on="1"/>
        <pt x="282" y="83" on="0"/>
        <pt x="348" y="135" on="0"/>
        <pt x="348" y="183" on="1"/>
        <pt x="348" y="206" on="0"/>
        <pt x="336" y="243" on="0"/>
        <pt x="307" y="277" on="0"/>
        <pt x="260" y="311" on="0"/>
        <pt x="226" y="331" on="1"/>
        <pt x="183" y="356" on="0"/>
        <pt x="120" y="401" on="0"/>
        <pt x="79" y="451" on="0"/>
        <pt x="59" y="509" on="0"/>
        <pt x="59" y="547" on="1"/>
        <pt x="59" y="589" on="0"/>
        <pt x="88" y="657" on="0"/>
        <pt x="142" y="706" on="0"/>
        <pt x="219" y="733" on="0"/>
        <pt x="266" y="733" on="1"/>
        <pt x="311" y="733" on="0"/>
        <pt x="384" y="712" on="0"/>
        <pt x="415" y="695" on="1"/>
        <pt x="398" y="594" on="1"/>
        <pt x="369" y="617" on="0"/>
        <pt x="300" y="643" on="0"/>
        <pt x="263" y="643" on="1"/>
        <pt x="210" y="643" on="0"/>
        <pt x="159" y="591" on="0"/>
        <pt x="159" y="553" on="1"/>
        <pt x="159" y="532" on="0"/>
        <pt x="171" y="499" on="0"/>
        <pt x="200" y="468" on="0"/>
        <pt x="246" y="436" on="0"/>
        <pt x="280" y="416" on="1"/>
        <pt x="326" y="389" on="0"/>
        <pt x="389" y="340" on="0"/>
        <pt x="429" y="289" on="0"/>
        <pt x="447" y="230" on="0"/>
      </contour>
    </TTGlyph>
    <TTGlyph name="Sacute" xMin="48" yMin="-8" xMax="447" yMax="945">
      <component glyphName="S" x="0" y="0" flags="0x204"/>
      <component glyphName="acute.cap" x="89" y="220" flags="0x4"/>
    </TTGlyph>
    <TTGlyph name="Scaron" xMin="48" yMin="-8" xMax="447" yMax="936">
      <component glyphName="S" x="0" y="0" flags="0x204"/>
      <component glyphName="caron.cap" x="34" y="220" flags="0x4"/>
    </TTGlyph>
    <TTGlyph name="Scedilla" xMin="48" yMin="-203" xMax="447" yMax="733">
      <component glyphName="S" x="0" y="0" flags="0x204"/>
      <component glyphName="cedilla.cap" x="10" y="-3" flags="0x4"/>
    </TTGlyph>
    <TTGlyph name="Scommaaccent" xMin="48" yMin="-257" xMax="447" yMax="733">
      <component glyphName="S" x="0" y="0" flags="0x204"/>
      <component glyphName="commaaccent.cap" x="31" y="-5" flags="0x4"/>
    </TTGlyph>
    <TTGlyph name="T" xMin="32" yMin="0" xMax="524" yMax="725">
      <contour>
        <pt x="326" y="632" on="1"/>
        <pt x="326" y="0" on="1"/>
        <pt x="225" y="0" on="1"/>
        <pt x="225" y="632" on="1"/>
        <pt x="32" y="632" on="1"/>
        <pt x="32" y="725" on="1"/>
        <pt x="509" y="725" on="1"/>
        <pt x="524" y="632" on="1"/>
      </contour>
    </TTGlyph>
    <TTGlyph name="T.flat" xMin="32" yMin="0" xMax="518" yMax="725">
      <contour>
        <pt x="326" y="632" on="1"/>
        <pt x="326" y="0" on="1"/>
        <pt x="225" y="0" on="1"/>
        <pt x="225" y="632" on="1"/>
        <pt x="32" y="632" on="1"/>
        <pt x="32" y="725" on="1"/>
        <pt x="518" y="725" on="1"/>
        <pt x="518" y="632" on="1"/>
      </contour>
    </TTGlyph>
    <TTGlyph name="Tcaron" xMin="32" yMin="0" xMax="524" yMax="929">
      <component glyphName="caron.cap" x="56" y="213" flags="0x4"/>
      <component glyphName="T" x="0" y="0" flags="0x4"/>
    </TTGlyph>
    <TTGlyph name="Tcaron.flat" xMin="32" yMin="0" xMax="518" yMax="929">
      <component glyphName="caron.cap" x="56" y="213" flags="0x4"/>
      <component glyphName="T.flat" x="0" y="0" flags="0x4"/>
    </TTGlyph>
    <TTGlyph name="Tcommaaccent" xMin="32" yMin="-252" xMax="524" yMax="725">
      <component glyphName="T" x="0" y="0" flags="0x204"/>
      <component glyphName="commaaccent.cap" x="58" y="0" flags="0x4"/>
    </TTGlyph>
    <TTGlyph name="Tcommaaccent.flat" xMin="32" yMin="-252" xMax="518" yMax="725">
      <component glyphName="T.flat" x="0" y="0" flags="0x204"/>
      <component glyphName="commaaccent.cap" x="58" y="0" flags="0x4"/>
    </TTGlyph>
    <TTGlyph name="Thorn" xMin="79" yMin="0" xMax="484" yMax="725">
      <contour>
        <pt x="484" y="376" on="1"/>
        <pt x="484" y="320" on="0"/>
        <pt x="448" y="234" on="0"/>
        <pt x="382" y="177" on="0"/>
        <pt x="289" y="148" on="0"/>
        <pt x="232" y="148" on="1"/>
        <pt x="180" y="148" on="1"/>
        <pt x="180" y="0" on="1"/>
        <pt x="79" y="0" on="1"/>
        <pt x="79" y="725" on="1"/>
        <pt x="180" y="725" on="1"/>
        <pt x="180" y="595" on="1"/>
        <pt x="244" y="595" on="1"/>
        <pt x="358" y="595" on="0"/>
        <pt x="484" y="483" on="0"/>
      </contour>
      <contour>
        <pt x="384" y="374" on="1"/>
        <pt x="384" y="505" on="0"/>
        <pt x="238" y="505" on="1"/>
        <pt x="180" y="505" on="1"/>
        <pt x="180" y="237" on="1"/>
        <pt x="233" y="237" on="1"/>
        <pt x="307" y="237" on="0"/>
        <pt x="384" y="304" on="0"/>
      </contour>
    </TTGlyph>
    <TTGlyph name="U" xMin="74" yMin="-14" xMax="568" yMax="725">
      <contour>
        <pt x="568" y="251" on="1"/>
        <pt x="568" y="189" on="0"/>
        <pt x="535" y="91" on="0"/>
        <pt x="472" y="23" on="0"/>
        <pt x="380" y="-14" on="0"/>
        <pt x="321" y="-14" on="1"/>
        <pt x="200" y="-14" on="0"/>
        <pt x="74" y="124" on="0"/>
        <pt x="74" y="247" on="1"/>
        <pt x="74" y="725" on="1"/>
        <pt x="176" y="725" on="1"/>
        <pt x="176" y="256" on="1"/>
        <pt x="176" y="216" on="0"/>
        <pt x="192" y="151" on="0"/>
        <pt x="226" y="104" on="0"/>
        <pt x="282" y="78" on="0"/>
        <pt x="321" y="78" on="1"/>
        <pt x="397" y="78" on="0"/>
        <pt x="468" y="169" on="0"/>
        <pt x="468" y="254" on="1"/>
        <pt x="468" y="725" on="1"/>
        <pt x="568" y="725" on="1"/>
      </contour>
    </TTGlyph>
    <TTGlyph name="U.alt" xMin="74" yMin="-8" xMax="564" yMax="725">
      <contour>
        <pt x="472" y="69" on="1"/>
        <pt x="427" y="35" on="0"/>
        <pt x="330" y="-8" on="0"/>
        <pt x="273" y="-8" on="1"/>
        <pt x="228" y="-8" on="0"/>
        <pt x="155" y="16" on="0"/>
        <pt x="103" y="67" on="0"/>
        <pt x="74" y="146" on="0"/>
        <pt x="74" y="202" on="1"/>
        <pt x="74" y="725" on="1"/>
        <pt x="175" y="725" on="1"/>
        <pt x="175" y="211" on="1"/>
        <pt x="175" y="145" on="0"/>
        <pt x="230" y="83" on="0"/>
        <pt x="284" y="83" on="1"/>
        <pt x="330" y="83" on="0"/>
        <pt x="416" y="125" on="0"/>
        <pt x="463" y="161" on="1"/>
        <pt x="463" y="725" on="1"/>
        <pt x="564" y="725" on="1"/>
        <pt x="564" y="0" on="1"/>
        <pt x="482" y="0" on="1"/>
      </contour>
    </TTGlyph>
    <TTGlyph name="Uacute" xMin="74" yMin="-14" xMax="568" yMax="927">
      <component glyphName="acute.cap" x="154" y="202" flags="0x4"/>
      <component glyphName="U" x="0" y="0" flags="0x4"/>
    </TTGlyph>
    <TTGlyph name="Uacute.alt" xMin="74" yMin="-8" xMax="564" yMax="927">
      <component glyphName="acute.cap" x="154" y="202" flags="0x4"/>
      <component glyphName="U.alt" x="0" y="0" flags="0x4"/>
    </TTGlyph>
    <TTGlyph name="Ubreve" xMin="74" yMin="-14" xMax="568" yMax="902">
      <component glyphName="breve.cap" x="101" y="199" flags="0x4"/>
      <component glyphName="U" x="0" y="0" flags="0x4"/>
    </TTGlyph>
    <TTGlyph name="Ubreve.alt" xMin="74" yMin="-8" xMax="564" yMax="902">
      <component glyphName="breve.cap" x="99" y="199" flags="0x4"/>
      <component glyphName="U.alt" x="0" y="0" flags="0x4"/>
    </TTGlyph>
    <TTGlyph name="Ucircumflex" xMin="74" yMin="-14" xMax="568" yMax="919">
      <component glyphName="U" x="0" y="0" flags="0x204"/>
      <component glyphName="circumflex.cap" x="101" y="202" flags="0x4"/>
    </TTGlyph>
    <TTGlyph name="Ucircumflex.alt" xMin="74" yMin="-8" xMax="564" yMax="919">
      <component glyphName="circumflex.cap" x="100" y="202" flags="0x4"/>
      <component glyphName="U.alt" x="0" y="0" flags="0x4"/>
    </TTGlyph>
    <TTGlyph name="Udieresis" xMin="74" yMin="-14" xMax="568" yMax="883">
      <component glyphName="dieresis.cap" x="101" y="202" flags="0x4"/>
      <component glyphName="U" x="0" y="0" flags="0x4"/>
    </TTGlyph>
    <TTGlyph name="Udieresis.alt" xMin="74" yMin="-8" xMax="564" yMax="883">
      <component glyphName="dieresis.cap" x="99" y="202" flags="0x4"/>
      <component glyphName="U.alt" x="0" y="0" flags="0x4"/>
    </TTGlyph>
    <TTGlyph name="Ugrave" xMin="74" yMin="-14" xMax="568" yMax="927">
      <component glyphName="grave.cap" x="46" y="202" flags="0x4"/>
      <component glyphName="U" x="0" y="0" flags="0x4"/>
    </TTGlyph>
    <TTGlyph name="Ugrave.alt" xMin="74" yMin="-8" xMax="564" yMax="927">
      <component glyphName="grave.cap" x="46" y="202" flags="0x4"/>
      <component glyphName="U.alt" x="0" y="0" flags="0x4"/>
    </TTGlyph>
    <TTGlyph name="Uhungarumlaut" xMin="74" yMin="-14" xMax="568" yMax="926">
      <component glyphName="U" x="0" y="0" flags="0x204"/>
      <component glyphName="hungarumlaut.cap" x="150" y="202" flags="0x4"/>
    </TTGlyph>
    <TTGlyph name="Uhungarumlaut.alt" xMin="74" yMin="-8" xMax="564" yMax="926">
      <component glyphName="U.alt" x="0" y="0" flags="0x204"/>
      <component glyphName="hungarumlaut.cap" x="149" y="202" flags="0x4"/>
    </TTGlyph>
    <TTGlyph name="Umacron" xMin="74" yMin="-14" xMax="568" yMax="869">
      <component glyphName="macron.cap" x="101" y="202" flags="0x4"/>
      <component glyphName="U" x="0" y="0" flags="0x4"/>
    </TTGlyph>
    <TTGlyph name="Umacron.alt" xMin="74" yMin="-8" xMax="564" yMax="869">
      <component glyphName="macron.cap" x="99" y="202" flags="0x4"/>
      <component glyphName="U.alt" x="0" y="0" flags="0x4"/>
    </TTGlyph>
    <TTGlyph name="Uogonek" xMin="74" yMin="-192" xMax="568" yMax="725">
      <contour>
        <pt x="325" y="-192" on="1"/>
        <pt x="287" y="-192" on="0"/>
        <pt x="243" y="-154" on="0"/>
        <pt x="243" y="-117" on="1"/>
        <pt x="243" y="-70" on="0"/>
        <pt x="291" y="-13" on="1"/>
        <pt x="185" y="-4" on="0"/>
        <pt x="74" y="132" on="0"/>
        <pt x="74" y="247" on="1"/>
        <pt x="74" y="725" on="1"/>
        <pt x="176" y="725" on="1"/>
        <pt x="176" y="256" on="1"/>
        <pt x="176" y="216" on="0"/>
        <pt x="192" y="151" on="0"/>
        <pt x="226" y="104" on="0"/>
        <pt x="282" y="78" on="0"/>
        <pt x="321" y="78" on="1"/>
        <pt x="397" y="78" on="0"/>
        <pt x="468" y="169" on="0"/>
        <pt x="468" y="254" on="1"/>
        <pt x="468" y="725" on="1"/>
        <pt x="568" y="725" on="1"/>
        <pt x="568" y="251" on="1"/>
        <pt x="568" y="139" on="0"/>
        <pt x="462" y="1" on="0"/>
        <pt x="362" y="-11" on="1"/>
        <pt x="351" y="-28" on="1"/>
        <pt x="337" y="-47" on="0"/>
        <pt x="320" y="-78" on="0"/>
        <pt x="320" y="-94" on="1"/>
        <pt x="320" y="-124" on="0"/>
        <pt x="359" y="-124" on="1"/>
        <pt x="368" y="-124" on="0"/>
        <pt x="387" y="-122" on="0"/>
        <pt x="398" y="-120" on="1"/>
        <pt x="397" y="-177" on="1"/>
        <pt x="381" y="-183" on="0"/>
        <pt x="345" y="-192" on="0"/>
      </contour>
    </TTGlyph>
    <TTGlyph name="Uogonek.alt" xMin="74" yMin="-192" xMax="570" yMax="725">
      <contour>
        <pt x="569" y="-177" on="1"/>
        <pt x="553" y="-183" on="0"/>
        <pt x="517" y="-192" on="0"/>
        <pt x="497" y="-192" on="1"/>
        <pt x="459" y="-192" on="0"/>
        <pt x="415" y="-154" on="0"/>
        <pt x="415" y="-117" on="1"/>
        <pt x="415" y="-89" on="0"/>
        <pt x="447" y="-30" on="0"/>
        <pt x="476" y="3" on="1"/>
        <pt x="481" y="9" on="1"/>
        <pt x="472" y="69" on="1"/>
        <pt x="427" y="35" on="0"/>
        <pt x="330" y="-8" on="0"/>
        <pt x="273" y="-8" on="1"/>
        <pt x="228" y="-8" on="0"/>
        <pt x="155" y="16" on="0"/>
        <pt x="103" y="67" on="0"/>
        <pt x="74" y="146" on="0"/>
        <pt x="74" y="202" on="1"/>
        <pt x="74" y="725" on="1"/>
        <pt x="175" y="725" on="1"/>
        <pt x="175" y="211" on="1"/>
        <pt x="175" y="145" on="0"/>
        <pt x="230" y="83" on="0"/>
        <pt x="284" y="83" on="1"/>
        <pt x="330" y="83" on="0"/>
        <pt x="416" y="125" on="0"/>
        <pt x="463" y="161" on="1"/>
        <pt x="463" y="725" on="1"/>
        <pt x="564" y="725" on="1"/>
        <pt x="564" y="0" on="1"/>
        <pt x="542" y="0" on="1"/>
        <pt x="523" y="-28" on="1"/>
        <pt x="509" y="-47" on="0"/>
        <pt x="492" y="-78" on="0"/>
        <pt x="492" y="-94" on="1"/>
        <pt x="492" y="-124" on="0"/>
        <pt x="531" y="-124" on="1"/>
        <pt x="540" y="-124" on="0"/>
        <pt x="559" y="-122" on="0"/>
        <pt x="570" y="-120" on="1"/>
        <pt x="569" y="-177" on="1"/>
      </contour>
    </TTGlyph>
    <TTGlyph name="Uring" xMin="74" yMin="-14" xMax="568" yMax="966">
      <component glyphName="U" x="0" y="0" flags="0x204"/>
      <component glyphName="ring.cap" x="101" y="191" flags="0x4"/>
    </TTGlyph>
    <TTGlyph name="Uring.alt" xMin="74" yMin="-8" xMax="564" yMax="966">
      <component glyphName="ring.cap" x="99" y="191" flags="0x4"/>
      <component glyphName="U.alt" x="0" y="0" flags="0x4"/>
    </TTGlyph>
    <TTGlyph name="V" xMin="31" yMin="-4" xMax="596" yMax="732">
      <contour>
        <pt x="360" y="-4" on="1"/>
        <pt x="264" y="-4" on="1"/>
        <pt x="31" y="710" on="1"/>
        <pt x="132" y="732" on="1"/>
        <pt x="314" y="133" on="1"/>
        <pt x="491" y="725" on="1"/>
        <pt x="596" y="725" on="1"/>
      </contour>
    </TTGlyph>
    <TTGlyph name="V.flat" xMin="29" yMin="-4" xMax="599" yMax="725">
      <contour>
        <pt x="363" y="-4" on="1"/>
        <pt x="266" y="-4" on="1"/>
        <pt x="29" y="725" on="1"/>
        <pt x="136" y="725" on="1"/>
        <pt x="316" y="133" on="1"/>
        <pt x="494" y="725" on="1"/>
        <pt x="599" y="725" on="1"/>
      </contour>
    </TTGlyph>
    <TTGlyph name="W" xMin="37" yMin="-2" xMax="914" yMax="732">
      <contour>
        <pt x="727" y="-2" on="1"/>
        <pt x="636" y="-2" on="1"/>
        <pt x="472" y="580" on="1"/>
        <pt x="310" y="-2" on="1"/>
        <pt x="221" y="-2" on="1"/>
        <pt x="37" y="710" on="1"/>
        <pt x="138" y="732" on="1"/>
        <pt x="270" y="167" on="1"/>
        <pt x="422" y="724" on="1"/>
        <pt x="525" y="724" on="1"/>
        <pt x="682" y="167" on="1"/>
        <pt x="812" y="725" on="1"/>
        <pt x="914" y="725" on="1"/>
      </contour>
    </TTGlyph>
    <TTGlyph name="W.alt" xMin="33" yMin="-3" xMax="905" yMax="732">
      <contour>
        <pt x="687" y="-3" on="1"/>
        <pt x="591" y="-3" on="1"/>
        <pt x="470" y="383" on="1"/>
        <pt x="345" y="-3" on="1"/>
        <pt x="251" y="-3" on="1"/>
        <pt x="33" y="710" on="1"/>
        <pt x="133" y="732" on="1"/>
        <pt x="301" y="141" on="1"/>
        <pt x="425" y="525" on="1"/>
        <pt x="367" y="710" on="1"/>
        <pt x="468" y="732" on="1"/>
        <pt x="641" y="141" on="1"/>
        <pt x="799" y="725" on="1"/>
        <pt x="905" y="725" on="1"/>
      </contour>
    </TTGlyph>
    <TTGlyph name="W.alt_flat" xMin="31" yMin="-3" xMax="908" yMax="725">
      <contour>
        <pt x="689" y="-3" on="1"/>
        <pt x="594" y="-3" on="1"/>
        <pt x="473" y="386" on="1"/>
        <pt x="349" y="-3" on="1"/>
        <pt x="253" y="-3" on="1"/>
        <pt x="31" y="725" on="1"/>
        <pt x="139" y="725" on="1"/>
        <pt x="304" y="141" on="1"/>
        <pt x="427" y="526" on="1"/>
        <pt x="366" y="725" on="1"/>
        <pt x="473" y="725" on="1"/>
        <pt x="644" y="141" on="1"/>
        <pt x="803" y="725" on="1"/>
        <pt x="908" y="725" on="1"/>
      </contour>
    </TTGlyph>
    <TTGlyph name="W.flat" xMin="34" yMin="-2" xMax="914" yMax="725">
      <contour>
        <pt x="727" y="-2" on="1"/>
        <pt x="636" y="-2" on="1"/>
        <pt x="472" y="580" on="1"/>
        <pt x="310" y="-2" on="1"/>
        <pt x="221" y="-2" on="1"/>
        <pt x="34" y="725" on="1"/>
        <pt x="140" y="725" on="1"/>
        <pt x="270" y="167" on="1"/>
        <pt x="422" y="724" on="1"/>
        <pt x="525" y="724" on="1"/>
        <pt x="682" y="167" on="1"/>
        <pt x="812" y="725" on="1"/>
        <pt x="914" y="725" on="1"/>
      </contour>
    </TTGlyph>
    <TTGlyph name="Wacute" xMin="37" yMin="-2" xMax="914" yMax="938">
      <component glyphName="acute.cap" x="306" y="213" flags="0x4"/>
      <component glyphName="W" x="0" y="0" flags="0x4"/>
    </TTGlyph>
    <TTGlyph name="Wacute.alt" xMin="33" yMin="-3" xMax="905" yMax="938">
      <component glyphName="acute.cap" x="295" y="213" flags="0x4"/>
      <component glyphName="W.alt" x="0" y="0" flags="0x4"/>
    </TTGlyph>
    <TTGlyph name="Wacute.alt_flat" xMin="31" yMin="-3" xMax="908" yMax="938">
      <component glyphName="acute.cap" x="296" y="213" flags="0x4"/>
      <component glyphName="W.alt_flat" x="0" y="0" flags="0x4"/>
    </TTGlyph>
    <TTGlyph name="Wacute.flat" xMin="34" yMin="-2" xMax="914" yMax="938">
      <component glyphName="acute.cap" x="306" y="213" flags="0x4"/>
      <component glyphName="W.flat" x="0" y="0" flags="0x4"/>
    </TTGlyph>
    <TTGlyph name="Wcircumflex" xMin="37" yMin="-2" xMax="914" yMax="930">
      <component glyphName="W" x="0" y="0" flags="0x204"/>
      <component glyphName="circumflex.cap" x="253" y="213" flags="0x4"/>
    </TTGlyph>
    <TTGlyph name="Wcircumflex.alt" xMin="33" yMin="-3" xMax="905" yMax="930">
      <component glyphName="W.alt" x="0" y="0" flags="0x204"/>
      <component glyphName="circumflex.cap" x="241" y="213" flags="0x4"/>
    </TTGlyph>
    <TTGlyph name="Wcircumflex.alt_flat" xMin="31" yMin="-3" xMax="908" yMax="930">
      <component glyphName="W.alt_flat" x="0" y="0" flags="0x204"/>
      <component glyphName="circumflex.cap" x="242" y="213" flags="0x4"/>
    </TTGlyph>
    <TTGlyph name="Wcircumflex.flat" xMin="34" yMin="-2" xMax="914" yMax="930">
      <component glyphName="W.flat" x="0" y="0" flags="0x204"/>
      <component glyphName="circumflex.cap" x="253" y="213" flags="0x4"/>
    </TTGlyph>
    <TTGlyph name="Wdieresis" xMin="37" yMin="-2" xMax="914" yMax="894">
      <component glyphName="dieresis.cap" x="252" y="213" flags="0x4"/>
      <component glyphName="W" x="0" y="0" flags="0x4"/>
    </TTGlyph>
    <TTGlyph name="Wdieresis.alt" xMin="33" yMin="-3" xMax="905" yMax="894">
      <component glyphName="dieresis.cap" x="240" y="213" flags="0x4"/>
      <component glyphName="W.alt" x="0" y="0" flags="0x4"/>
    </TTGlyph>
    <TTGlyph name="Wdieresis.alt_flat" xMin="31" yMin="-3" xMax="908" yMax="894">
      <component glyphName="dieresis.cap" x="242" y="213" flags="0x4"/>
      <component glyphName="W.alt_flat" x="0" y="0" flags="0x4"/>
    </TTGlyph>
    <TTGlyph name="Wdieresis.flat" xMin="34" yMin="-2" xMax="914" yMax="894">
      <component glyphName="dieresis.cap" x="252" y="213" flags="0x4"/>
      <component glyphName="W.flat" x="0" y="0" flags="0x4"/>
    </TTGlyph>
    <TTGlyph name="Wgrave" xMin="37" yMin="-2" xMax="914" yMax="938">
      <component glyphName="grave.cap" x="198" y="213" flags="0x4"/>
      <component glyphName="W" x="0" y="0" flags="0x4"/>
    </TTGlyph>
    <TTGlyph name="Wgrave.alt" xMin="33" yMin="-3" xMax="905" yMax="938">
      <component glyphName="grave.cap" x="187" y="213" flags="0x4"/>
      <component glyphName="W.alt" x="0" y="0" flags="0x4"/>
    </TTGlyph>
    <TTGlyph name="Wgrave.alt_flat" xMin="31" yMin="-3" xMax="908" yMax="938">
      <component glyphName="grave.cap" x="188" y="213" flags="0x4"/>
      <component glyphName="W.alt_flat" x="0" y="0" flags="0x4"/>
    </TTGlyph>
    <TTGlyph name="Wgrave.flat" xMin="34" yMin="-2" xMax="914" yMax="938">
      <component glyphName="grave.cap" x="198" y="213" flags="0x4"/>
      <component glyphName="W.flat" x="0" y="0" flags="0x4"/>
    </TTGlyph>
    <TTGlyph name="X" xMin="23" yMin="-8" xMax="564" yMax="732">
      <contour>
        <pt x="462" y="-8" on="1"/>
        <pt x="293" y="297" on="1"/>
        <pt x="132" y="0" on="1"/>
        <pt x="23" y="0" on="1"/>
        <pt x="240" y="376" on="1"/>
        <pt x="45" y="711" on="1"/>
        <pt x="147" y="732" on="1"/>
        <pt x="297" y="462" on="1"/>
        <pt x="438" y="725" on="1"/>
        <pt x="548" y="725" on="1"/>
        <pt x="350" y="382" on="1"/>
        <pt x="564" y="14" on="1"/>
      </contour>
    </TTGlyph>
    <TTGlyph name="X.flat" xMin="23" yMin="0" xMax="563" yMax="725">
      <contour>
        <pt x="450" y="0" on="1"/>
        <pt x="291" y="293" on="1"/>
        <pt x="132" y="0" on="1"/>
        <pt x="23" y="0" on="1"/>
        <pt x="238" y="373" on="1"/>
        <pt x="39" y="725" on="1"/>
        <pt x="153" y="725" on="1"/>
        <pt x="295" y="460" on="1"/>
        <pt x="438" y="725" on="1"/>
        <pt x="547" y="725" on="1"/>
        <pt x="349" y="379" on="1"/>
        <pt x="563" y="0" on="1"/>
      </contour>
    </TTGlyph>
    <TTGlyph name="Y" xMin="22" yMin="0" xMax="571" yMax="732">
      <contour>
        <pt x="344" y="286" on="1"/>
        <pt x="344" y="0" on="1"/>
        <pt x="243" y="0" on="1"/>
        <pt x="243" y="286" on="1"/>
        <pt x="22" y="711" on="1"/>
        <pt x="123" y="732" on="1"/>
        <pt x="294" y="387" on="1"/>
        <pt x="458" y="725" on="1"/>
        <pt x="571" y="725" on="1"/>
      </contour>
    </TTGlyph>
    <TTGlyph name="Y.flat" xMin="18" yMin="0" xMax="573" yMax="725">
      <contour>
        <pt x="346" y="286" on="1"/>
        <pt x="346" y="0" on="1"/>
        <pt x="245" y="0" on="1"/>
        <pt x="245" y="286" on="1"/>
        <pt x="18" y="725" on="1"/>
        <pt x="131" y="725" on="1"/>
        <pt x="298" y="387" on="1"/>
        <pt x="461" y="725" on="1"/>
        <pt x="573" y="725" on="1"/>
      </contour>
    </TTGlyph>
    <TTGlyph name="Yacute" xMin="22" yMin="0" xMax="571" yMax="927">
      <component glyphName="Y" x="0" y="0" flags="0x204"/>
      <component glyphName="acute.cap" x="129" y="202" flags="0x4"/>
    </TTGlyph>
    <TTGlyph name="Yacute.flat" xMin="18" yMin="0" xMax="573" yMax="927">
      <component glyphName="acute.cap" x="129" y="202" flags="0x4"/>
      <component glyphName="Y.flat" x="0" y="0" flags="0x4"/>
    </TTGlyph>
    <TTGlyph name="Ycircumflex" xMin="22" yMin="0" xMax="571" yMax="919">
      <component glyphName="Y" x="0" y="0" flags="0x204"/>
      <component glyphName="circumflex.cap" x="76" y="202" flags="0x4"/>
    </TTGlyph>
    <TTGlyph name="Ycircumflex.flat" xMin="18" yMin="0" xMax="573" yMax="919">
      <component glyphName="Y.flat" x="0" y="0" flags="0x204"/>
      <component glyphName="circumflex.cap" x="75" y="202" flags="0x4"/>
    </TTGlyph>
    <TTGlyph name="Ydieresis" xMin="22" yMin="0" xMax="571" yMax="883">
      <component glyphName="Y" x="0" y="0" flags="0x204"/>
      <component glyphName="dieresis.cap" x="74" y="202" flags="0x4"/>
    </TTGlyph>
    <TTGlyph name="Ydieresis.flat" xMin="18" yMin="0" xMax="573" yMax="883">
      <component glyphName="dieresis.cap" x="74" y="202" flags="0x4"/>
      <component glyphName="Y.flat" x="0" y="0" flags="0x4"/>
    </TTGlyph>
    <TTGlyph name="Ygrave" xMin="22" yMin="0" xMax="571" yMax="927">
      <component glyphName="Y" x="0" y="0" flags="0x204"/>
      <component glyphName="grave.cap" x="21" y="202" flags="0x4"/>
    </TTGlyph>
    <TTGlyph name="Ygrave.flat" xMin="18" yMin="0" xMax="573" yMax="927">
      <component glyphName="grave.cap" x="21" y="202" flags="0x4"/>
      <component glyphName="Y.flat" x="0" y="0" flags="0x4"/>
    </TTGlyph>
    <TTGlyph name="Z" xMin="45" yMin="0" xMax="512" yMax="725">
      <contour>
        <pt x="45" y="0" on="1"/>
        <pt x="45" y="77" on="1"/>
        <pt x="388" y="634" on="1"/>
        <pt x="74" y="634" on="1"/>
        <pt x="60" y="725" on="1"/>
        <pt x="506" y="725" on="1"/>
        <pt x="506" y="647" on="1"/>
        <pt x="162" y="90" on="1"/>
        <pt x="498" y="90" on="1"/>
        <pt x="512" y="0" on="1"/>
      </contour>
    </TTGlyph>
    <TTGlyph name="Z.flat" xMin="45" yMin="0" xMax="506" yMax="725">
      <contour>
        <pt x="45" y="0" on="1"/>
        <pt x="45" y="77" on="1"/>
        <pt x="388" y="634" on="1"/>
        <pt x="65" y="634" on="1"/>
        <pt x="65" y="725" on="1"/>
        <pt x="506" y="725" on="1"/>
        <pt x="506" y="647" on="1"/>
        <pt x="162" y="90" on="1"/>
        <pt x="503" y="90" on="1"/>
        <pt x="503" y="0" on="1"/>
      </contour>
    </TTGlyph>
    <TTGlyph name="Zacute" xMin="45" yMin="0" xMax="512" yMax="938">
      <component glyphName="Z" x="0" y="0" flags="0x204"/>
      <component glyphName="acute.cap" x="110" y="213" flags="0x4"/>
    </TTGlyph>
    <TTGlyph name="Zacute.flat" xMin="45" yMin="0" xMax="506" yMax="938">
      <component glyphName="acute.cap" x="110" y="213" flags="0x4"/>
      <component glyphName="Z.flat" x="0" y="0" flags="0x4"/>
    </TTGlyph>
    <TTGlyph name="Zcaron" xMin="45" yMin="0" xMax="512" yMax="929">
      <component glyphName="caron.cap" x="55" y="213" flags="0x4"/>
      <component glyphName="Z" x="0" y="0" flags="0x4"/>
    </TTGlyph>
    <TTGlyph name="Zcaron.flat" xMin="45" yMin="0" xMax="506" yMax="929">
      <component glyphName="caron.cap" x="55" y="213" flags="0x4"/>
      <component glyphName="Z.flat" x="0" y="0" flags="0x4"/>
    </TTGlyph>
    <TTGlyph name="Zdotaccent" xMin="45" yMin="0" xMax="512" yMax="894">
      <component glyphName="dotaccent.cap" x="55" y="213" flags="0x4"/>
      <component glyphName="Z" x="0" y="0" flags="0x4"/>
    </TTGlyph>
    <TTGlyph name="Zdotaccent.flat" xMin="45" yMin="0" xMax="506" yMax="894">
      <component glyphName="dotaccent.cap" x="55" y="213" flags="0x4"/>
      <component glyphName="Z.flat" x="0" y="0" flags="0x4"/>
    </TTGlyph>
    <TTGlyph name="a" xMin="44" yMin="-11" xMax="437" yMax="550">
      <contour>
        <pt x="357" y="0" on="1"/>
        <pt x="348" y="65" on="1"/>
        <pt x="314" y="30" on="0"/>
        <pt x="240" y="-11" on="0"/>
        <pt x="186" y="-11" on="1"/>
        <pt x="123" y="-11" on="0"/>
        <pt x="44" y="72" on="0"/>
        <pt x="44" y="142" on="1"/>
        <pt x="44" y="189" on="0"/>
        <pt x="81" y="258" on="0"/>
        <pt x="155" y="308" on="0"/>
        <pt x="266" y="340" on="0"/>
        <pt x="339" y="350" on="1"/>
        <pt x="339" y="374" on="1"/>
        <pt x="339" y="421" on="0"/>
        <pt x="292" y="463" on="0"/>
        <pt x="249" y="463" on="1"/>
        <pt x="207" y="463" on="0"/>
        <pt x="126" y="438" on="0"/>
        <pt x="88" y="418" on="1"/>
        <pt x="74" y="507" on="1"/>
        <pt x="115" y="524" on="0"/>
        <pt x="205" y="550" on="0"/>
        <pt x="260" y="550" on="1"/>
        <pt x="352" y="550" on="0"/>
        <pt x="437" y="466" on="0"/>
        <pt x="437" y="378" on="1"/>
        <pt x="437" y="0" on="1"/>
      </contour>
      <contour>
        <pt x="339" y="273" on="1"/>
        <pt x="280" y="265" on="0"/>
        <pt x="204" y="240" on="0"/>
        <pt x="158" y="207" on="0"/>
        <pt x="140" y="167" on="0"/>
        <pt x="140" y="146" on="1"/>
        <pt x="140" y="113" on="0"/>
        <pt x="176" y="74" on="0"/>
        <pt x="208" y="74" on="1"/>
        <pt x="242" y="74" on="0"/>
        <pt x="306" y="109" on="0"/>
        <pt x="339" y="141" on="1"/>
      </contour>
    </TTGlyph>
    <TTGlyph name="aacute" xMin="44" yMin="-11" xMax="437" yMax="775">
      <component glyphName="a" x="0" y="0" flags="0x204"/>
      <component glyphName="acute" x="74" y="3" flags="0x4"/>
    </TTGlyph>
    <TTGlyph name="abreve" xMin="44" yMin="-11" xMax="437" yMax="752">
      <component glyphName="a" x="0" y="0" flags="0x204"/>
      <component glyphName="breve" x="17" y="3" flags="0x4"/>
    </TTGlyph>
    <TTGlyph name="acircumflex" xMin="44" yMin="-11" xMax="437" yMax="767">
      <component glyphName="a" x="0" y="0" flags="0x204"/>
      <component glyphName="circumflex" x="17" y="3" flags="0x4"/>
    </TTGlyph>
    <TTGlyph name="acute" xMin="140" yMin="608" xMax="338" yMax="772">
      <contour>
        <pt x="208" y="608" on="1"/>
        <pt x="140" y="608" on="1"/>
        <pt x="225" y="772" on="1"/>
        <pt x="338" y="745" on="1"/>
      </contour>
    </TTGlyph>
    <TTGlyph name="acute.cap" xMin="131" yMin="571" xMax="318" yMax="725">
      <contour>
        <pt x="196" y="571" on="1"/>
        <pt x="131" y="571" on="1"/>
        <pt x="209" y="725" on="1"/>
        <pt x="318" y="698" on="1"/>
      </contour>
    </TTGlyph>
    <TTGlyph name="adieresis" xMin="44" yMin="-11" xMax="437" yMax="727">
      <component glyphName="a" x="0" y="0" flags="0x204"/>
      <component glyphName="dieresis" x="17" y="3" flags="0x4"/>
    </TTGlyph>
    <TTGlyph name="ae" xMin="44" yMin="-11" xMax="750" yMax="551">
      <contour>
        <pt x="750" y="251" on="1"/>
        <pt x="431" y="251" on="1"/>
        <pt x="435" y="165" on="0"/>
        <pt x="505" y="76" on="0"/>
        <pt x="568" y="76" on="1"/>
        <pt x="615" y="76" on="0"/>
        <pt x="694" y="111" on="0"/>
        <pt x="734" y="143" on="1"/>
        <pt x="749" y="55" on="1"/>
        <pt x="713" y="26" on="0"/>
        <pt x="620" y="-10" on="0"/>
        <pt x="560" y="-10" on="1"/>
        <pt x="506" y="-10" on="0"/>
        <pt x="418" y="30" on="0"/>
        <pt x="388" y="69" on="1"/>
        <pt x="350" y="34" on="0"/>
        <pt x="261" y="-11" on="0"/>
        <pt x="206" y="-11" on="1"/>
        <pt x="171" y="-11" on="0"/>
        <pt x="112" y="9" on="0"/>
        <pt x="68" y="48" on="0"/>
        <pt x="44" y="105" on="0"/>
        <pt x="44" y="141" on="1"/>
        <pt x="44" y="233" on="0"/>
        <pt x="187" y="329" on="0"/>
        <pt x="333" y="349" on="1"/>
        <pt x="333" y="374" on="1"/>
        <pt x="333" y="421" on="0"/>
        <pt x="293" y="463" on="0"/>
        <pt x="250" y="463" on="1"/>
        <pt x="208" y="463" on="0"/>
        <pt x="126" y="438" on="0"/>
        <pt x="88" y="418" on="1"/>
        <pt x="74" y="507" on="1"/>
        <pt x="115" y="524" on="0"/>
        <pt x="203" y="550" on="0"/>
        <pt x="257" y="550" on="1"/>
        <pt x="317" y="550" on="0"/>
        <pt x="385" y="517" on="0"/>
        <pt x="404" y="480" on="1"/>
        <pt x="429" y="514" on="0"/>
        <pt x="499" y="551" on="0"/>
        <pt x="547" y="551" on="1"/>
        <pt x="601" y="551" on="0"/>
        <pt x="678" y="508" on="0"/>
        <pt x="727" y="433" on="0"/>
        <pt x="750" y="334" on="0"/>
        <pt x="750" y="278" on="1"/>
      </contour>
      <contour>
        <pt x="651" y="329" on="1"/>
        <pt x="645" y="395" on="0"/>
        <pt x="595" y="472" on="0"/>
        <pt x="545" y="472" on="1"/>
        <pt x="503" y="472" on="0"/>
        <pt x="444" y="398" on="0"/>
        <pt x="435" y="329" on="1"/>
      </contour>
      <contour>
        <pt x="352" y="138" on="1"/>
        <pt x="343" y="167" on="0"/>
        <pt x="332" y="234" on="0"/>
        <pt x="332" y="272" on="1"/>
        <pt x="332" y="273" on="1"/>
        <pt x="276" y="265" on="0"/>
        <pt x="202" y="239" on="0"/>
        <pt x="158" y="206" on="0"/>
        <pt x="140" y="167" on="0"/>
        <pt x="140" y="146" on="1"/>
        <pt x="140" y="112" on="0"/>
        <pt x="182" y="74" on="0"/>
        <pt x="217" y="74" on="1"/>
        <pt x="282" y="74" on="0"/>
      </contour>
    </TTGlyph>
    <TTGlyph name="aeacute" xMin="44" yMin="-11" xMax="750" yMax="772">
      <component glyphName="acute" x="229" y="0" flags="0x4"/>
      <component glyphName="ae" x="0" y="0" flags="0x4"/>
    </TTGlyph>
    <TTGlyph name="agrave" xMin="44" yMin="-11" xMax="437" yMax="775">
      <component glyphName="a" x="0" y="0" flags="0x204"/>
      <component glyphName="grave" x="-41" y="3" flags="0x4"/>
    </TTGlyph>
    <TTGlyph name="amacron" xMin="44" yMin="-11" xMax="437" yMax="713">
      <component glyphName="a" x="0" y="0" flags="0x204"/>
      <component glyphName="macron" x="17" y="3" flags="0x4"/>
    </TTGlyph>
    <TTGlyph name="ampersand" xMin="38" yMin="-13" xMax="639" yMax="739">
      <contour>
        <pt x="542" y="-7" on="1"/>
        <pt x="454" y="95" on="1"/>
        <pt x="416" y="43" on="0"/>
        <pt x="315" y="-13" on="0"/>
        <pt x="251" y="-13" on="1"/>
        <pt x="200" y="-13" on="0"/>
        <pt x="120" y="16" on="0"/>
        <pt x="66" y="68" on="0"/>
        <pt x="38" y="140" on="0"/>
        <pt x="38" y="183" on="1"/>
        <pt x="38" y="222" on="0"/>
        <pt x="61" y="288" on="0"/>
        <pt x="102" y="343" on="0"/>
        <pt x="156" y="388" on="0"/>
        <pt x="186" y="406" on="1"/>
        <pt x="155" y="445" on="0"/>
        <pt x="126" y="515" on="0"/>
        <pt x="126" y="560" on="1"/>
        <pt x="126" y="597" on="0"/>
        <pt x="151" y="662" on="0"/>
        <pt x="199" y="711" on="0"/>
        <pt x="269" y="739" on="0"/>
        <pt x="314" y="739" on="1"/>
        <pt x="358" y="739" on="0"/>
        <pt x="434" y="716" on="0"/>
        <pt x="466" y="697" on="1"/>
        <pt x="448" y="601" on="1"/>
        <pt x="413" y="624" on="0"/>
        <pt x="346" y="651" on="0"/>
        <pt x="314" y="651" on="1"/>
        <pt x="274" y="651" on="0"/>
        <pt x="225" y="606" on="0"/>
        <pt x="225" y="562" on="1"/>
        <pt x="225" y="528" on="0"/>
        <pt x="256" y="469" on="0"/>
        <pt x="291" y="427" on="1"/>
        <pt x="441" y="251" on="1"/>
        <pt x="470" y="323" on="0"/>
        <pt x="485" y="422" on="1"/>
        <pt x="571" y="402" on="1"/>
        <pt x="550" y="274" on="0"/>
        <pt x="504" y="177" on="1"/>
        <pt x="639" y="18" on="1"/>
      </contour>
      <contour>
        <pt x="253" y="75" on="1"/>
        <pt x="295" y="75" on="0"/>
        <pt x="366" y="117" on="0"/>
        <pt x="396" y="163" on="1"/>
        <pt x="241" y="342" on="1"/>
        <pt x="193" y="315" on="0"/>
        <pt x="137" y="240" on="0"/>
        <pt x="137" y="189" on="1"/>
        <pt x="137" y="137" on="0"/>
        <pt x="202" y="75" on="0"/>
      </contour>
    </TTGlyph>
    <TTGlyph name="ampersand.flat" xMin="38" yMin="-13" xMax="654" yMax="739">
      <contour>
        <pt x="537" y="0" on="1"/>
        <pt x="455" y="95" on="1"/>
        <pt x="416" y="43" on="0"/>
        <pt x="315" y="-13" on="0"/>
        <pt x="251" y="-13" on="1"/>
        <pt x="200" y="-13" on="0"/>
        <pt x="120" y="16" on="0"/>
        <pt x="66" y="68" on="0"/>
        <pt x="38" y="140" on="0"/>
        <pt x="38" y="183" on="1"/>
        <pt x="38" y="222" on="0"/>
        <pt x="61" y="288" on="0"/>
        <pt x="102" y="343" on="0"/>
        <pt x="156" y="388" on="0"/>
        <pt x="186" y="406" on="1"/>
        <pt x="155" y="445" on="0"/>
        <pt x="126" y="515" on="0"/>
        <pt x="126" y="560" on="1"/>
        <pt x="126" y="597" on="0"/>
        <pt x="151" y="662" on="0"/>
        <pt x="199" y="711" on="0"/>
        <pt x="269" y="739" on="0"/>
        <pt x="314" y="739" on="1"/>
        <pt x="358" y="739" on="0"/>
        <pt x="434" y="716" on="0"/>
        <pt x="466" y="697" on="1"/>
        <pt x="448" y="601" on="1"/>
        <pt x="413" y="624" on="0"/>
        <pt x="346" y="651" on="0"/>
        <pt x="314" y="651" on="1"/>
        <pt x="274" y="651" on="0"/>
        <pt x="225" y="606" on="0"/>
        <pt x="225" y="562" on="1"/>
        <pt x="225" y="528" on="0"/>
        <pt x="257" y="469" on="0"/>
        <pt x="291" y="427" on="1"/>
        <pt x="441" y="250" on="1"/>
        <pt x="470" y="324" on="0"/>
        <pt x="485" y="422" on="1"/>
        <pt x="571" y="402" on="1"/>
        <pt x="550" y="274" on="0"/>
        <pt x="504" y="177" on="1"/>
        <pt x="654" y="0" on="1"/>
      </contour>
      <contour>
        <pt x="253" y="75" on="1"/>
        <pt x="295" y="75" on="0"/>
        <pt x="365" y="116" on="0"/>
        <pt x="397" y="162" on="1"/>
        <pt x="241" y="342" on="1"/>
        <pt x="193" y="315" on="0"/>
        <pt x="137" y="240" on="0"/>
        <pt x="137" y="189" on="1"/>
        <pt x="137" y="137" on="0"/>
        <pt x="202" y="75" on="0"/>
      </contour>
    </TTGlyph>
    <TTGlyph name="aogonek" xMin="44" yMin="-203" xMax="450" yMax="550">
      <contour>
        <pt x="420" y="0" on="1"/>
        <pt x="400" y="-29" on="1"/>
        <pt x="385" y="-50" on="0"/>
        <pt x="367" y="-84" on="0"/>
        <pt x="367" y="-101" on="1"/>
        <pt x="367" y="-133" on="0"/>
        <pt x="409" y="-133" on="1"/>
        <pt x="418" y="-133" on="0"/>
        <pt x="439" y="-131" on="0"/>
        <pt x="450" y="-129" on="1"/>
        <pt x="450" y="-188" on="1"/>
        <pt x="433" y="-195" on="0"/>
        <pt x="393" y="-203" on="0"/>
        <pt x="373" y="-203" on="1"/>
        <pt x="332" y="-203" on="0"/>
        <pt x="287" y="-163" on="0"/>
        <pt x="287" y="-125" on="1"/>
        <pt x="287" y="-95" on="0"/>
        <pt x="319" y="-32" on="0"/>
        <pt x="351" y="3" on="1"/>
        <pt x="356" y="9" on="1"/>
        <pt x="348" y="65" on="1"/>
        <pt x="314" y="30" on="0"/>
        <pt x="240" y="-11" on="0"/>
        <pt x="186" y="-11" on="1"/>
        <pt x="123" y="-11" on="0"/>
        <pt x="44" y="72" on="0"/>
        <pt x="44" y="142" on="1"/>
        <pt x="44" y="189" on="0"/>
        <pt x="81" y="258" on="0"/>
        <pt x="155" y="308" on="0"/>
        <pt x="266" y="340" on="0"/>
        <pt x="339" y="350" on="1"/>
        <pt x="339" y="374" on="1"/>
        <pt x="339" y="421" on="0"/>
        <pt x="292" y="463" on="0"/>
        <pt x="249" y="463" on="1"/>
        <pt x="207" y="463" on="0"/>
        <pt x="126" y="438" on="0"/>
        <pt x="88" y="418" on="1"/>
        <pt x="74" y="507" on="1"/>
        <pt x="115" y="524" on="0"/>
        <pt x="205" y="550" on="0"/>
        <pt x="260" y="550" on="1"/>
        <pt x="352" y="550" on="0"/>
        <pt x="437" y="466" on="0"/>
        <pt x="437" y="378" on="1"/>
        <pt x="437" y="0" on="1"/>
      </contour>
      <contour>
        <pt x="339" y="273" on="1"/>
        <pt x="280" y="265" on="0"/>
        <pt x="204" y="240" on="0"/>
        <pt x="158" y="207" on="0"/>
        <pt x="140" y="167" on="0"/>
        <pt x="140" y="146" on="1"/>
        <pt x="140" y="113" on="0"/>
        <pt x="176" y="74" on="0"/>
        <pt x="208" y="74" on="1"/>
        <pt x="242" y="74" on="0"/>
        <pt x="306" y="109" on="0"/>
        <pt x="339" y="141" on="1"/>
      </contour>
    </TTGlyph>
    <TTGlyph name="aring" xMin="44" yMin="-11" xMax="437" yMax="828">
      <component glyphName="a" x="0" y="0" flags="0x204"/>
      <component glyphName="ring" x="17" y="3" flags="0x4"/>
    </TTGlyph>
    <TTGlyph name="aringacute" xMin="44" yMin="-11" xMax="437" yMax="1033">
      <contour>
        <pt x="357" y="0" on="1"/>
        <pt x="348" y="65" on="1"/>
        <pt x="314" y="30" on="0"/>
        <pt x="240" y="-11" on="0"/>
        <pt x="186" y="-11" on="1"/>
        <pt x="123" y="-11" on="0"/>
        <pt x="44" y="72" on="0"/>
        <pt x="44" y="142" on="1"/>
        <pt x="44" y="189" on="0"/>
        <pt x="81" y="258" on="0"/>
        <pt x="155" y="308" on="0"/>
        <pt x="266" y="340" on="0"/>
        <pt x="339" y="350" on="1"/>
        <pt x="339" y="374" on="1"/>
        <pt x="339" y="421" on="0"/>
        <pt x="292" y="463" on="0"/>
        <pt x="249" y="463" on="1"/>
        <pt x="207" y="463" on="0"/>
        <pt x="126" y="438" on="0"/>
        <pt x="88" y="418" on="1"/>
        <pt x="74" y="507" on="1"/>
        <pt x="115" y="524" on="0"/>
        <pt x="205" y="550" on="0"/>
        <pt x="260" y="550" on="1"/>
        <pt x="352" y="550" on="0"/>
        <pt x="437" y="466" on="0"/>
        <pt x="437" y="378" on="1"/>
        <pt x="437" y="0" on="1"/>
      </contour>
      <contour>
        <pt x="339" y="273" on="1"/>
        <pt x="280" y="265" on="0"/>
        <pt x="204" y="240" on="0"/>
        <pt x="158" y="207" on="0"/>
        <pt x="140" y="167" on="0"/>
        <pt x="140" y="146" on="1"/>
        <pt x="140" y="113" on="0"/>
        <pt x="176" y="74" on="0"/>
        <pt x="208" y="74" on="1"/>
        <pt x="242" y="74" on="0"/>
        <pt x="306" y="109" on="0"/>
        <pt x="339" y="141" on="1"/>
      </contour>
      <contour>
        <pt x="282" y="869" on="1"/>
        <pt x="214" y="869" on="1"/>
        <pt x="299" y="1033" on="1"/>
        <pt x="412" y="1006" on="1"/>
      </contour>
      <contour>
        <pt x="363" y="718" on="1"/>
        <pt x="363" y="694" on="0"/>
        <pt x="346" y="654" on="0"/>
        <pt x="316" y="624" on="0"/>
        <pt x="276" y="608" on="0"/>
        <pt x="252" y="608" on="1"/>
        <pt x="204" y="608" on="0"/>
        <pt x="141" y="670" on="0"/>
        <pt x="141" y="718" on="1"/>
        <pt x="141" y="742" on="0"/>
        <pt x="158" y="782" on="0"/>
        <pt x="187" y="811" on="0"/>
        <pt x="228" y="828" on="0"/>
        <pt x="252" y="828" on="1"/>
        <pt x="300" y="828" on="0"/>
        <pt x="363" y="766" on="0"/>
      </contour>
      <contour>
        <pt x="311" y="718" on="1"/>
        <pt x="311" y="745" on="0"/>
        <pt x="278" y="781" on="0"/>
        <pt x="252" y="781" on="1"/>
        <pt x="226" y="781" on="0"/>
        <pt x="193" y="745" on="0"/>
        <pt x="193" y="718" on="1"/>
        <pt x="193" y="691" on="0"/>
        <pt x="226" y="655" on="0"/>
        <pt x="252" y="655" on="1"/>
        <pt x="278" y="655" on="0"/>
        <pt x="311" y="691" on="0"/>
      </contour>
    </TTGlyph>
    <TTGlyph name="asciicircum" xMin="68" yMin="538" xMax="361" yMax="727">
      <contour>
        <pt x="289" y="538" on="1"/>
        <pt x="215" y="645" on="1"/>
        <pt x="139" y="538" on="1"/>
        <pt x="68" y="538" on="1"/>
        <pt x="175" y="727" on="1"/>
        <pt x="255" y="727" on="1"/>
        <pt x="361" y="538" on="1"/>
      </contour>
    </TTGlyph>
    <TTGlyph name="asciitilde" xMin="57" yMin="255" xMax="393" yMax="407">
      <contour>
        <pt x="393" y="395" on="1"/>
        <pt x="386" y="323" on="0"/>
        <pt x="340" y="260" on="0"/>
        <pt x="304" y="260" on="1"/>
        <pt x="284" y="260" on="0"/>
        <pt x="241" y="279" on="0"/>
        <pt x="221" y="290" on="1"/>
        <pt x="195" y="304" on="0"/>
        <pt x="165" y="317" on="0"/>
        <pt x="154" y="317" on="1"/>
        <pt x="141" y="317" on="0"/>
        <pt x="128" y="293" on="0"/>
        <pt x="121" y="255" on="1"/>
        <pt x="57" y="267" on="1"/>
        <pt x="64" y="339" on="0"/>
        <pt x="109" y="403" on="0"/>
        <pt x="146" y="403" on="1"/>
        <pt x="166" y="403" on="0"/>
        <pt x="208" y="384" on="0"/>
        <pt x="229" y="373" on="1"/>
        <pt x="255" y="359" on="0"/>
        <pt x="285" y="345" on="0"/>
        <pt x="296" y="345" on="1"/>
        <pt x="308" y="345" on="0"/>
        <pt x="322" y="369" on="0"/>
        <pt x="329" y="407" on="1"/>
      </contour>
    </TTGlyph>
    <TTGlyph name="asterisk" xMin="36" yMin="465" xMax="366" yMax="778">
      <contour>
        <pt x="253" y="594" on="1"/>
        <pt x="313" y="483" on="1"/>
        <pt x="286" y="465" on="1"/>
        <pt x="201" y="556" on="1"/>
        <pt x="114" y="465" on="1"/>
        <pt x="88" y="483" on="1"/>
        <pt x="147" y="594" on="1"/>
        <pt x="36" y="648" on="1"/>
        <pt x="46" y="679" on="1"/>
        <pt x="168" y="657" on="1"/>
        <pt x="182" y="778" on="1"/>
        <pt x="218" y="778" on="1"/>
        <pt x="232" y="657" on="1"/>
        <pt x="355" y="679" on="1"/>
        <pt x="366" y="648" on="1"/>
      </contour>
    </TTGlyph>
    <TTGlyph name="at" xMin="54" yMin="-155" xMax="815" yMax="702">
      <contour>
        <pt x="620" y="50" on="1"/>
        <pt x="568" y="50" on="0"/>
        <pt x="505" y="103" on="0"/>
        <pt x="499" y="150" on="1"/>
        <pt x="459" y="102" on="0"/>
        <pt x="393" y="50" on="0"/>
        <pt x="352" y="50" on="1"/>
        <pt x="330" y="50" on="0"/>
        <pt x="289" y="67" on="0"/>
        <pt x="257" y="102" on="0"/>
        <pt x="238" y="155" on="0"/>
        <pt x="238" y="190" on="1"/>
        <pt x="238" y="257" on="0"/>
        <pt x="281" y="372" on="0"/>
        <pt x="352" y="456" on="0"/>
        <pt x="444" y="504" on="0"/>
        <pt x="494" y="504" on="1"/>
        <pt x="530" y="504" on="0"/>
        <pt x="591" y="489" on="0"/>
        <pt x="622" y="476" on="1"/>
        <pt x="580" y="207" on="1"/>
        <pt x="579" y="199" on="0"/>
        <pt x="575" y="175" on="0"/>
        <pt x="575" y="165" on="1"/>
        <pt x="575" y="136" on="0"/>
        <pt x="605" y="105" on="0"/>
        <pt x="632" y="105" on="1"/>
        <pt x="660" y="105" on="0"/>
        <pt x="709" y="143" on="0"/>
        <pt x="746" y="212" on="0"/>
        <pt x="767" y="305" on="0"/>
        <pt x="767" y="361" on="1"/>
        <pt x="767" y="436" on="0"/>
        <pt x="725" y="548" on="0"/>
        <pt x="651" y="624" on="0"/>
        <pt x="549" y="662" on="0"/>
        <pt x="489" y="662" on="1"/>
        <pt x="412" y="662" on="0"/>
        <pt x="271" y="590" on="0"/>
        <pt x="165" y="464" on="0"/>
        <pt x="102" y="294" on="0"/>
        <pt x="102" y="197" on="1"/>
        <pt x="102" y="119" on="0"/>
        <pt x="145" y="3" on="0"/>
        <pt x="221" y="-75" on="0"/>
        <pt x="325" y="-114" on="0"/>
        <pt x="387" y="-114" on="1"/>
        <pt x="453" y="-114" on="0"/>
        <pt x="561" y="-85" on="0"/>
        <pt x="608" y="-59" on="1"/>
        <pt x="615" y="-101" on="1"/>
        <pt x="567" y="-124" on="0"/>
        <pt x="456" y="-155" on="0"/>
        <pt x="385" y="-155" on="1"/>
        <pt x="309" y="-155" on="0"/>
        <pt x="187" y="-107" on="0"/>
        <pt x="101" y="-16" on="0"/>
        <pt x="54" y="114" on="0"/>
        <pt x="54" y="196" on="1"/>
        <pt x="54" y="300" on="0"/>
        <pt x="124" y="484" on="0"/>
        <pt x="244" y="622" on="0"/>
        <pt x="403" y="702" on="0"/>
        <pt x="492" y="702" on="1"/>
        <pt x="563" y="702" on="0"/>
        <pt x="682" y="657" on="0"/>
        <pt x="767" y="570" on="0"/>
        <pt x="815" y="444" on="0"/>
        <pt x="815" y="363" on="1"/>
        <pt x="815" y="296" on="0"/>
        <pt x="787" y="181" on="0"/>
        <pt x="735" y="97" on="0"/>
        <pt x="663" y="50" on="0"/>
      </contour>
      <contour>
        <pt x="374" y="125" on="1"/>
        <pt x="400" y="125" on="0"/>
        <pt x="462" y="181" on="0"/>
        <pt x="498" y="227" on="1"/>
        <pt x="530" y="425" on="1"/>
        <pt x="519" y="428" on="0"/>
        <pt x="499" y="432" on="0"/>
        <pt x="482" y="432" on="1"/>
        <pt x="451" y="432" on="0"/>
        <pt x="393" y="394" on="0"/>
        <pt x="349" y="331" on="0"/>
        <pt x="322" y="248" on="0"/>
        <pt x="322" y="202" on="1"/>
        <pt x="322" y="125" on="0"/>
      </contour>
    </TTGlyph>
    <TTGlyph name="atilde" xMin="44" yMin="-11" xMax="437" yMax="752">
      <component glyphName="a" x="0" y="0" flags="0x204"/>
      <component glyphName="tilde" x="20" y="3" flags="0x4"/>
    </TTGlyph>
    <TTGlyph name="b" xMin="75" yMin="-7" xMax="501" yMax="809">
      <contour>
        <pt x="501" y="284" on="1"/>
        <pt x="501" y="209" on="0"/>
        <pt x="464" y="99" on="0"/>
        <pt x="400" y="28" on="0"/>
        <pt x="312" y="-7" on="0"/>
        <pt x="261" y="-7" on="1"/>
        <pt x="207" y="-7" on="0"/>
        <pt x="121" y="13" on="0"/>
        <pt x="75" y="30" on="1"/>
        <pt x="75" y="794" on="1"/>
        <pt x="174" y="809" on="1"/>
        <pt x="174" y="486" on="1"/>
        <pt x="200" y="512" on="0"/>
        <pt x="265" y="551" on="0"/>
        <pt x="311" y="551" on="1"/>
        <pt x="350" y="551" on="0"/>
        <pt x="419" y="519" on="0"/>
        <pt x="471" y="454" on="0"/>
        <pt x="501" y="353" on="0"/>
      </contour>
      <contour>
        <pt x="401" y="279" on="1"/>
        <pt x="401" y="373" on="0"/>
        <pt x="340" y="462" on="0"/>
        <pt x="295" y="462" on="1"/>
        <pt x="263" y="462" on="0"/>
        <pt x="203" y="421" on="0"/>
        <pt x="174" y="388" on="1"/>
        <pt x="174" y="96" on="1"/>
        <pt x="195" y="88" on="0"/>
        <pt x="233" y="80" on="0"/>
        <pt x="260" y="80" on="1"/>
        <pt x="324" y="80" on="0"/>
        <pt x="401" y="175" on="0"/>
      </contour>
    </TTGlyph>
    <TTGlyph name="backslash" xMin="24" yMin="-144" xMax="503" yMax="783">
      <contour>
        <pt x="421" y="-144" on="1"/>
        <pt x="24" y="765" on="1"/>
        <pt x="107" y="783" on="1"/>
        <pt x="503" y="-125" on="1"/>
      </contour>
    </TTGlyph>
    <TTGlyph name="baht" xMin="-17" yMin="-131" xMax="498" yMax="772">
      <contour>
        <pt x="-17" y="-112" on="1"/>
        <pt x="81" y="81" on="1"/>
        <pt x="81" y="717" on="1"/>
        <pt x="244" y="717" on="1"/>
        <pt x="282" y="717" on="0"/>
        <pt x="348" y="703" on="0"/>
        <pt x="375" y="689" on="1"/>
        <pt x="417" y="772" on="1"/>
        <pt x="498" y="752" on="1"/>
        <pt x="437" y="637" on="1"/>
        <pt x="468" y="595" on="0"/>
        <pt x="468" y="537" on="1"/>
        <pt x="468" y="478" on="0"/>
        <pt x="410" y="401" on="0"/>
        <pt x="365" y="383" on="1"/>
        <pt x="423" y="364" on="0"/>
        <pt x="491" y="278" on="0"/>
        <pt x="491" y="208" on="1"/>
        <pt x="491" y="156" on="0"/>
        <pt x="455" y="78" on="0"/>
        <pt x="388" y="26" on="0"/>
        <pt x="293" y="0" on="0"/>
        <pt x="235" y="0" on="1"/>
        <pt x="130" y="0" on="1"/>
        <pt x="63" y="-131" on="1"/>
      </contour>
      <contour>
        <pt x="175" y="337" on="1"/>
        <pt x="175" y="82" on="1"/>
        <pt x="240" y="82" on="1"/>
        <pt x="317" y="82" on="0"/>
        <pt x="397" y="146" on="0"/>
        <pt x="397" y="208" on="1"/>
        <pt x="397" y="268" on="0"/>
        <pt x="318" y="337" on="0"/>
        <pt x="237" y="337" on="1"/>
      </contour>
      <contour>
        <pt x="175" y="635" on="1"/>
        <pt x="175" y="415" on="1"/>
        <pt x="237" y="415" on="1"/>
        <pt x="304" y="415" on="0"/>
        <pt x="373" y="477" on="0"/>
        <pt x="373" y="528" on="1"/>
        <pt x="373" y="575" on="0"/>
        <pt x="312" y="635" on="0"/>
        <pt x="242" y="635" on="1"/>
      </contour>
    </TTGlyph>
    <TTGlyph name="bar" xMin="102" yMin="-208" xMax="185" yMax="807">
      <contour>
        <pt x="102" y="-208" on="1"/>
        <pt x="102" y="795" on="1"/>
        <pt x="185" y="807" on="1"/>
        <pt x="185" y="-196" on="1"/>
      </contour>
    </TTGlyph>
    <TTGlyph name="bar.tab" xMin="90" yMin="-148" xMax="174" yMax="904">
      <contour>
        <pt x="90" y="-148" on="1"/>
        <pt x="90" y="890" on="1"/>
        <pt x="174" y="904" on="1"/>
        <pt x="174" y="-135" on="1"/>
      </contour>
    </TTGlyph>
    <TTGlyph name="braceleft" xMin="43" yMin="-105" xMax="450" yMax="784">
      <contour>
        <pt x="337" y="-105" on="1"/>
        <pt x="256" y="-105" on="0"/>
        <pt x="181" y="-32" on="0"/>
        <pt x="181" y="40" on="1"/>
        <pt x="181" y="78" on="0"/>
        <pt x="195" y="156" on="0"/>
        <pt x="195" y="196" on="1"/>
        <pt x="195" y="226" on="0"/>
        <pt x="179" y="267" on="0"/>
        <pt x="150" y="292" on="0"/>
        <pt x="111" y="303" on="0"/>
        <pt x="89" y="303" on="1"/>
        <pt x="55" y="303" on="1"/>
        <pt x="43" y="378" on="1"/>
        <pt x="90" y="378" on="1"/>
        <pt x="136" y="378" on="0"/>
        <pt x="195" y="424" on="0"/>
        <pt x="195" y="483" on="1"/>
        <pt x="195" y="524" on="0"/>
        <pt x="181" y="599" on="0"/>
        <pt x="181" y="637" on="1"/>
        <pt x="181" y="709" on="0"/>
        <pt x="256" y="784" on="0"/>
        <pt x="337" y="784" on="1"/>
        <pt x="444" y="784" on="1"/>
        <pt x="444" y="708" on="1"/>
        <pt x="346" y="708" on="1"/>
        <pt x="309" y="708" on="0"/>
        <pt x="275" y="672" on="0"/>
        <pt x="275" y="640" on="1"/>
        <pt x="275" y="605" on="0"/>
        <pt x="291" y="521" on="0"/>
        <pt x="291" y="484" on="1"/>
        <pt x="291" y="449" on="0"/>
        <pt x="275" y="401" on="0"/>
        <pt x="245" y="367" on="0"/>
        <pt x="204" y="347" on="0"/>
        <pt x="179" y="341" on="1"/>
        <pt x="179" y="339" on="1"/>
        <pt x="204" y="333" on="0"/>
        <pt x="245" y="313" on="0"/>
        <pt x="275" y="279" on="0"/>
        <pt x="291" y="230" on="0"/>
        <pt x="291" y="195" on="1"/>
        <pt x="291" y="159" on="0"/>
        <pt x="275" y="75" on="0"/>
        <pt x="275" y="41" on="1"/>
        <pt x="275" y="9" on="0"/>
        <pt x="308" y="-29" on="0"/>
        <pt x="344" y="-29" on="1"/>
        <pt x="438" y="-29" on="1"/>
        <pt x="450" y="-105" on="1"/>
      </contour>
    </TTGlyph>
    <TTGlyph name="braceleft.flat" xMin="48" yMin="-105" xMax="444" yMax="784">
      <contour>
        <pt x="337" y="-105" on="1"/>
        <pt x="256" y="-105" on="0"/>
        <pt x="181" y="-32" on="0"/>
        <pt x="181" y="40" on="1"/>
        <pt x="181" y="78" on="0"/>
        <pt x="195" y="156" on="0"/>
        <pt x="195" y="196" on="1"/>
        <pt x="195" y="226" on="0"/>
        <pt x="179" y="267" on="0"/>
        <pt x="150" y="292" on="0"/>
        <pt x="111" y="303" on="0"/>
        <pt x="89" y="303" on="1"/>
        <pt x="48" y="303" on="1"/>
        <pt x="48" y="378" on="1"/>
        <pt x="90" y="378" on="1"/>
        <pt x="136" y="378" on="0"/>
        <pt x="195" y="424" on="0"/>
        <pt x="195" y="483" on="1"/>
        <pt x="195" y="524" on="0"/>
        <pt x="181" y="599" on="0"/>
        <pt x="181" y="637" on="1"/>
        <pt x="181" y="709" on="0"/>
        <pt x="256" y="784" on="0"/>
        <pt x="337" y="784" on="1"/>
        <pt x="444" y="784" on="1"/>
        <pt x="444" y="708" on="1"/>
        <pt x="346" y="708" on="1"/>
        <pt x="309" y="708" on="0"/>
        <pt x="275" y="672" on="0"/>
        <pt x="275" y="640" on="1"/>
        <pt x="275" y="605" on="0"/>
        <pt x="291" y="521" on="0"/>
        <pt x="291" y="484" on="1"/>
        <pt x="291" y="449" on="0"/>
        <pt x="275" y="401" on="0"/>
        <pt x="245" y="367" on="0"/>
        <pt x="204" y="347" on="0"/>
        <pt x="179" y="341" on="1"/>
        <pt x="179" y="339" on="1"/>
        <pt x="204" y="333" on="0"/>
        <pt x="245" y="313" on="0"/>
        <pt x="275" y="279" on="0"/>
        <pt x="291" y="230" on="0"/>
        <pt x="291" y="195" on="1"/>
        <pt x="291" y="159" on="0"/>
        <pt x="275" y="75" on="0"/>
        <pt x="275" y="41" on="1"/>
        <pt x="275" y="9" on="0"/>
        <pt x="308" y="-29" on="0"/>
        <pt x="344" y="-29" on="1"/>
        <pt x="444" y="-29" on="1"/>
        <pt x="444" y="-105" on="1"/>
      </contour>
    </TTGlyph>
    <TTGlyph name="braceright" xMin="45" yMin="-105" xMax="453" yMax="784">
      <contour>
        <pt x="158" y="784" on="1"/>
        <pt x="239" y="784" on="0"/>
        <pt x="314" y="712" on="0"/>
        <pt x="314" y="640" on="1"/>
        <pt x="314" y="602" on="0"/>
        <pt x="299" y="524" on="0"/>
        <pt x="299" y="483" on="1"/>
        <pt x="299" y="423" on="0"/>
        <pt x="360" y="377" on="0"/>
        <pt x="406" y="377" on="1"/>
        <pt x="440" y="377" on="1"/>
        <pt x="453" y="302" on="1"/>
        <pt x="405" y="302" on="1"/>
        <pt x="359" y="302" on="0"/>
        <pt x="299" y="255" on="0"/>
        <pt x="299" y="196" on="1"/>
        <pt x="299" y="156" on="0"/>
        <pt x="314" y="80" on="0"/>
        <pt x="314" y="42" on="1"/>
        <pt x="314" y="-30" on="0"/>
        <pt x="239" y="-105" on="0"/>
        <pt x="158" y="-105" on="1"/>
        <pt x="52" y="-105" on="1"/>
        <pt x="52" y="-29" on="1"/>
        <pt x="150" y="-29" on="1"/>
        <pt x="187" y="-29" on="0"/>
        <pt x="220" y="8" on="0"/>
        <pt x="220" y="40" on="1"/>
        <pt x="220" y="75" on="0"/>
        <pt x="205" y="158" on="0"/>
        <pt x="205" y="195" on="1"/>
        <pt x="205" y="229" on="0"/>
        <pt x="221" y="279" on="0"/>
        <pt x="250" y="312" on="0"/>
        <pt x="291" y="333" on="0"/>
        <pt x="316" y="339" on="1"/>
        <pt x="316" y="341" on="1"/>
        <pt x="291" y="346" on="0"/>
        <pt x="250" y="366" on="0"/>
        <pt x="221" y="400" on="0"/>
        <pt x="205" y="449" on="0"/>
        <pt x="205" y="484" on="1"/>
        <pt x="205" y="502" on="0"/>
        <pt x="210" y="542" on="0"/>
        <pt x="215" y="583" on="0"/>
        <pt x="220" y="623" on="0"/>
        <pt x="220" y="640" on="1"/>
        <pt x="220" y="672" on="0"/>
        <pt x="188" y="708" on="0"/>
        <pt x="150" y="708" on="1"/>
        <pt x="57" y="708" on="1"/>
        <pt x="45" y="784" on="1"/>
      </contour>
    </TTGlyph>
    <TTGlyph name="braceright.flat" xMin="52" yMin="-105" xMax="446" yMax="784">
      <contour>
        <pt x="158" y="784" on="1"/>
        <pt x="239" y="784" on="0"/>
        <pt x="314" y="712" on="0"/>
        <pt x="314" y="640" on="1"/>
        <pt x="314" y="602" on="0"/>
        <pt x="299" y="524" on="0"/>
        <pt x="299" y="483" on="1"/>
        <pt x="299" y="423" on="0"/>
        <pt x="360" y="377" on="0"/>
        <pt x="406" y="377" on="1"/>
        <pt x="446" y="377" on="1"/>
        <pt x="446" y="302" on="1"/>
        <pt x="405" y="302" on="1"/>
        <pt x="359" y="302" on="0"/>
        <pt x="299" y="255" on="0"/>
        <pt x="299" y="196" on="1"/>
        <pt x="299" y="156" on="0"/>
        <pt x="314" y="80" on="0"/>
        <pt x="314" y="42" on="1"/>
        <pt x="314" y="-30" on="0"/>
        <pt x="239" y="-105" on="0"/>
        <pt x="158" y="-105" on="1"/>
        <pt x="52" y="-105" on="1"/>
        <pt x="52" y="-29" on="1"/>
        <pt x="150" y="-29" on="1"/>
        <pt x="187" y="-29" on="0"/>
        <pt x="220" y="8" on="0"/>
        <pt x="220" y="40" on="1"/>
        <pt x="220" y="75" on="0"/>
        <pt x="205" y="158" on="0"/>
        <pt x="205" y="195" on="1"/>
        <pt x="205" y="229" on="0"/>
        <pt x="221" y="279" on="0"/>
        <pt x="250" y="312" on="0"/>
        <pt x="291" y="333" on="0"/>
        <pt x="316" y="339" on="1"/>
        <pt x="316" y="341" on="1"/>
        <pt x="291" y="346" on="0"/>
        <pt x="250" y="366" on="0"/>
        <pt x="221" y="400" on="0"/>
        <pt x="205" y="449" on="0"/>
        <pt x="205" y="484" on="1"/>
        <pt x="205" y="502" on="0"/>
        <pt x="210" y="542" on="0"/>
        <pt x="215" y="583" on="0"/>
        <pt x="220" y="623" on="0"/>
        <pt x="220" y="640" on="1"/>
        <pt x="220" y="672" on="0"/>
        <pt x="188" y="708" on="0"/>
        <pt x="150" y="708" on="1"/>
        <pt x="52" y="708" on="1"/>
        <pt x="52" y="784" on="1"/>
      </contour>
    </TTGlyph>
    <TTGlyph name="bracketleft" xMin="102" yMin="-105" xMax="383" yMax="784">
      <contour>
        <pt x="102" y="-105" on="1"/>
        <pt x="102" y="784" on="1"/>
        <pt x="378" y="784" on="1"/>
        <pt x="378" y="708" on="1"/>
        <pt x="194" y="708" on="1"/>
        <pt x="194" y="-29" on="1"/>
        <pt x="371" y="-29" on="1"/>
        <pt x="383" y="-105" on="1"/>
      </contour>
    </TTGlyph>
    <TTGlyph name="bracketleft.flat" xMin="102" yMin="-105" xMax="378" yMax="784">
      <contour>
        <pt x="102" y="-105" on="1"/>
        <pt x="102" y="784" on="1"/>
        <pt x="378" y="784" on="1"/>
        <pt x="378" y="708" on="1"/>
        <pt x="194" y="708" on="1"/>
        <pt x="194" y="-29" on="1"/>
        <pt x="378" y="-29" on="1"/>
        <pt x="378" y="-105" on="1"/>
      </contour>
    </TTGlyph>
    <TTGlyph name="bracketright" xMin="45" yMin="-105" xMax="327" yMax="784">
      <contour>
        <pt x="327" y="784" on="1"/>
        <pt x="327" y="-105" on="1"/>
        <pt x="52" y="-105" on="1"/>
        <pt x="52" y="-29" on="1"/>
        <pt x="234" y="-29" on="1"/>
        <pt x="234" y="709" on="1"/>
        <pt x="57" y="709" on="1"/>
        <pt x="45" y="784" on="1"/>
      </contour>
    </TTGlyph>
    <TTGlyph name="bracketright.flat" xMin="52" yMin="-105" xMax="327" yMax="784">
      <contour>
        <pt x="327" y="784" on="1"/>
        <pt x="327" y="-105" on="1"/>
        <pt x="52" y="-105" on="1"/>
        <pt x="52" y="-29" on="1"/>
        <pt x="234" y="-29" on="1"/>
        <pt x="234" y="709" on="1"/>
        <pt x="52" y="709" on="1"/>
        <pt x="52" y="784" on="1"/>
      </contour>
    </TTGlyph>
    <TTGlyph name="breve" xMin="93" yMin="607" xMax="378" yMax="749">
      <contour>
        <pt x="378" y="736" on="1"/>
        <pt x="370" y="673" on="0"/>
        <pt x="298" y="607" on="0"/>
        <pt x="234" y="607" on="1"/>
        <pt x="174" y="607" on="0"/>
        <pt x="101" y="673" on="0"/>
        <pt x="93" y="736" on="1"/>
        <pt x="160" y="749" on="1"/>
        <pt x="165" y="714" on="0"/>
        <pt x="205" y="683" on="0"/>
        <pt x="235" y="683" on="1"/>
        <pt x="266" y="683" on="0"/>
        <pt x="304" y="714" on="0"/>
        <pt x="311" y="749" on="1"/>
      </contour>
    </TTGlyph>
    <TTGlyph name="breve.cap" xMin="86" yMin="569" xMax="356" yMax="703">
      <contour>
        <pt x="356" y="691" on="1"/>
        <pt x="348" y="631" on="0"/>
        <pt x="280" y="569" on="0"/>
        <pt x="220" y="569" on="1"/>
        <pt x="163" y="569" on="0"/>
        <pt x="94" y="631" on="0"/>
        <pt x="86" y="691" on="1"/>
        <pt x="150" y="703" on="1"/>
        <pt x="156" y="671" on="0"/>
        <pt x="193" y="642" on="0"/>
        <pt x="221" y="642" on="1"/>
        <pt x="250" y="642" on="0"/>
        <pt x="286" y="671" on="0"/>
        <pt x="292" y="703" on="1"/>
      </contour>
    </TTGlyph>
    <TTGlyph name="bullet" xMin="85" yMin="211" xMax="355" yMax="513">
      <contour>
        <pt x="335" y="230" on="1"/>
        <pt x="220" y="211" on="1"/>
        <pt x="107" y="230" on="1"/>
        <pt x="85" y="362" on="1"/>
        <pt x="107" y="495" on="1"/>
        <pt x="220" y="513" on="1"/>
        <pt x="335" y="495" on="1"/>
        <pt x="355" y="362" on="1"/>
      </contour>
    </TTGlyph>
    <TTGlyph name="c" xMin="47" yMin="-10" xMax="427" yMax="551">
      <contour>
        <pt x="427" y="37" on="1"/>
        <pt x="395" y="14" on="0"/>
        <pt x="322" y="-10" on="0"/>
        <pt x="274" y="-10" on="1"/>
        <pt x="223" y="-10" on="0"/>
        <pt x="139" y="27" on="0"/>
        <pt x="79" y="99" on="0"/>
        <pt x="47" y="203" on="0"/>
        <pt x="47" y="270" on="1"/>
        <pt x="47" y="337" on="0"/>
        <pt x="81" y="442" on="0"/>
        <pt x="142" y="514" on="0"/>
        <pt x="229" y="551" on="0"/>
        <pt x="282" y="551" on="1"/>
        <pt x="329" y="551" on="0"/>
        <pt x="399" y="529" on="0"/>
        <pt x="423" y="513" on="1"/>
        <pt x="407" y="416" on="1"/>
        <pt x="377" y="439" on="0"/>
        <pt x="316" y="464" on="0"/>
        <pt x="281" y="464" on="1"/>
        <pt x="218" y="464" on="0"/>
        <pt x="146" y="364" on="0"/>
        <pt x="146" y="271" on="1"/>
        <pt x="146" y="174" on="0"/>
        <pt x="223" y="77" on="0"/>
        <pt x="283" y="77" on="1"/>
        <pt x="317" y="77" on="0"/>
        <pt x="379" y="100" on="0"/>
        <pt x="414" y="126" on="1"/>
      </contour>
    </TTGlyph>
    <TTGlyph name="cacute" xMin="47" yMin="-10" xMax="430" yMax="775">
      <component glyphName="acute" x="92" y="3" flags="0x4"/>
      <component glyphName="c" x="0" y="0" flags="0x4"/>
    </TTGlyph>
    <TTGlyph name="caron" xMin="93" yMin="608" xMax="378" yMax="763">
      <contour>
        <pt x="157" y="763" on="1"/>
        <pt x="235" y="684" on="1"/>
        <pt x="314" y="763" on="1"/>
        <pt x="378" y="763" on="1"/>
        <pt x="280" y="608" on="1"/>
        <pt x="191" y="608" on="1"/>
        <pt x="93" y="763" on="1"/>
      </contour>
    </TTGlyph>
    <TTGlyph name="caron.alt" xMin="175" yMin="602" xMax="294" yMax="809">
      <contour>
        <pt x="273" y="809" on="1"/>
        <pt x="294" y="771" on="0"/>
        <pt x="294" y="732" on="1"/>
        <pt x="294" y="694" on="0"/>
        <pt x="254" y="628" on="0"/>
        <pt x="224" y="602" on="1"/>
        <pt x="175" y="613" on="1"/>
        <pt x="194" y="642" on="0"/>
        <pt x="210" y="686" on="0"/>
        <pt x="210" y="711" on="1"/>
        <pt x="210" y="731" on="0"/>
        <pt x="196" y="771" on="0"/>
        <pt x="185" y="794" on="1"/>
      </contour>
    </TTGlyph>
    <TTGlyph name="caron.alt.cap" xMin="164" yMin="564" xMax="278" yMax="759">
      <contour>
        <pt x="258" y="759" on="1"/>
        <pt x="267" y="742" on="0"/>
        <pt x="278" y="705" on="0"/>
        <pt x="278" y="686" on="1"/>
        <pt x="278" y="651" on="0"/>
        <pt x="240" y="589" on="0"/>
        <pt x="211" y="564" on="1"/>
        <pt x="164" y="575" on="1"/>
        <pt x="182" y="602" on="0"/>
        <pt x="197" y="644" on="0"/>
        <pt x="197" y="667" on="1"/>
        <pt x="197" y="686" on="0"/>
        <pt x="184" y="722" on="0"/>
        <pt x="173" y="745" on="1"/>
      </contour>
    </TTGlyph>
    <TTGlyph name="caron.cap" xMin="86" yMin="571" xMax="356" yMax="716">
      <contour>
        <pt x="148" y="716" on="1"/>
        <pt x="221" y="642" on="1"/>
        <pt x="294" y="716" on="1"/>
        <pt x="356" y="716" on="1"/>
        <pt x="264" y="571" on="1"/>
        <pt x="178" y="571" on="1"/>
        <pt x="86" y="716" on="1"/>
      </contour>
    </TTGlyph>
    <TTGlyph name="ccaron" xMin="47" yMin="-10" xMax="427" yMax="766">
      <component glyphName="caron" x="34" y="3" flags="0x4"/>
      <component glyphName="c" x="0" y="0" flags="0x4"/>
    </TTGlyph>
    <TTGlyph name="ccedilla" xMin="47" yMin="-213" xMax="427" yMax="551">
      <component glyphName="c" x="0" y="0" flags="0x204"/>
      <component glyphName="cedilla" x="9" y="0" flags="0x4"/>
    </TTGlyph>
    <TTGlyph name="cdotaccent" xMin="47" yMin="-10" xMax="427" yMax="727">
      <component glyphName="c" x="0" y="0" flags="0x204"/>
      <component glyphName="dotaccent" x="34" y="3" flags="0x4"/>
    </TTGlyph>
    <TTGlyph name="cedilla" xMin="133" yMin="-213" xMax="324" yMax="-64">
      <contour>
        <pt x="199" y="-213" on="1"/>
        <pt x="133" y="-213" on="1"/>
        <pt x="209" y="-64" on="1"/>
        <pt x="324" y="-92" on="1"/>
      </contour>
    </TTGlyph>
    <TTGlyph name="cedilla.cap" xMin="125" yMin="-200" xMax="305" yMax="-60">
      <contour>
        <pt x="188" y="-200" on="1"/>
        <pt x="125" y="-200" on="1"/>
        <pt x="195" y="-60" on="1"/>
        <pt x="305" y="-87" on="1"/>
      </contour>
    </TTGlyph>
    <TTGlyph name="cent" xMin="43" yMin="-12" xMax="409" yMax="727">
      <contour>
        <pt x="409" y="147" on="1"/>
        <pt x="377" y="122" on="0"/>
        <pt x="305" y="100" on="0"/>
        <pt x="255" y="100" on="1"/>
        <pt x="251" y="100" on="1"/>
        <pt x="234" y="-12" on="1"/>
        <pt x="165" y="4" on="1"/>
        <pt x="182" y="112" on="1"/>
        <pt x="120" y="134" on="0"/>
        <pt x="43" y="255" on="0"/>
        <pt x="43" y="357" on="1"/>
        <pt x="43" y="421" on="0"/>
        <pt x="76" y="518" on="0"/>
        <pt x="133" y="583" on="0"/>
        <pt x="211" y="616" on="0"/>
        <pt x="257" y="616" on="1"/>
        <pt x="261" y="616" on="1"/>
        <pt x="279" y="727" on="1"/>
        <pt x="347" y="712" on="1"/>
        <pt x="331" y="609" on="1"/>
        <pt x="354" y="604" on="0"/>
        <pt x="389" y="588" on="0"/>
        <pt x="406" y="577" on="1"/>
        <pt x="392" y="485" on="1"/>
        <pt x="376" y="499" on="0"/>
        <pt x="339" y="521" on="0"/>
        <pt x="316" y="528" on="1"/>
        <pt x="262" y="182" on="1"/>
        <pt x="270" y="182" on="1"/>
        <pt x="345" y="182" on="0"/>
        <pt x="397" y="231" on="1"/>
      </contour>
      <contour>
        <pt x="134" y="359" on="1"/>
        <pt x="134" y="301" on="0"/>
        <pt x="167" y="221" on="0"/>
        <pt x="199" y="201" on="1"/>
        <pt x="250" y="536" on="1"/>
        <pt x="246" y="536" on="0"/>
        <pt x="244" y="535" on="1"/>
        <pt x="193" y="530" on="0"/>
        <pt x="133" y="438" on="0"/>
      </contour>
    </TTGlyph>
    <TTGlyph name="cent.tab" xMin="70" yMin="-12" xMax="457" yMax="727">
      <contour>
        <pt x="457" y="150" on="1"/>
        <pt x="422" y="124" on="0"/>
        <pt x="347" y="102" on="0"/>
        <pt x="294" y="102" on="1"/>
        <pt x="291" y="102" on="1"/>
        <pt x="274" y="-12" on="1"/>
        <pt x="205" y="4" on="1"/>
        <pt x="223" y="112" on="1"/>
        <pt x="154" y="133" on="0"/>
        <pt x="70" y="256" on="0"/>
        <pt x="70" y="357" on="1"/>
        <pt x="70" y="420" on="0"/>
        <pt x="104" y="516" on="0"/>
        <pt x="164" y="581" on="0"/>
        <pt x="247" y="615" on="0"/>
        <pt x="295" y="615" on="1"/>
        <pt x="300" y="615" on="1"/>
        <pt x="318" y="727" on="1"/>
        <pt x="387" y="711" on="1"/>
        <pt x="371" y="608" on="1"/>
        <pt x="397" y="603" on="0"/>
        <pt x="436" y="585" on="0"/>
        <pt x="453" y="574" on="1"/>
        <pt x="440" y="483" on="1"/>
        <pt x="422" y="497" on="0"/>
        <pt x="381" y="519" on="0"/>
        <pt x="356" y="526" on="1"/>
        <pt x="302" y="183" on="1"/>
        <pt x="307" y="183" on="1"/>
        <pt x="350" y="183" on="0"/>
        <pt x="415" y="207" on="0"/>
        <pt x="446" y="233" on="1"/>
      </contour>
      <contour>
        <pt x="159" y="359" on="1"/>
        <pt x="159" y="232" on="0"/>
        <pt x="238" y="196" on="1"/>
        <pt x="289" y="534" on="1"/>
        <pt x="284" y="534" on="1"/>
        <pt x="226" y="530" on="0"/>
        <pt x="159" y="440" on="0"/>
      </contour>
    </TTGlyph>
    <TTGlyph name="circumflex" xMin="92" yMin="608" xMax="377" yMax="764">
      <contour>
        <pt x="312" y="608" on="1"/>
        <pt x="234" y="687" on="1"/>
        <pt x="156" y="608" on="1"/>
        <pt x="92" y="608" on="1"/>
        <pt x="190" y="764" on="1"/>
        <pt x="280" y="764" on="1"/>
        <pt x="377" y="608" on="1"/>
      </contour>
    </TTGlyph>
    <TTGlyph name="circumflex.cap" xMin="85" yMin="571" xMax="355" yMax="717">
      <contour>
        <pt x="293" y="571" on="1"/>
        <pt x="220" y="644" on="1"/>
        <pt x="147" y="571" on="1"/>
        <pt x="85" y="571" on="1"/>
        <pt x="177" y="717" on="1"/>
        <pt x="264" y="717" on="1"/>
        <pt x="355" y="571" on="1"/>
      </contour>
    </TTGlyph>
    <TTGlyph name="colon" xMin="65" yMin="0" xMax="174" yMax="540">
      <contour>
        <pt x="65" y="406" on="1"/>
        <pt x="65" y="540" on="1"/>
        <pt x="174" y="540" on="1"/>
        <pt x="174" y="406" on="1"/>
      </contour>
      <contour>
        <pt x="65" y="0" on="1"/>
        <pt x="65" y="135" on="1"/>
        <pt x="174" y="135" on="1"/>
        <pt x="174" y="0" on="1"/>
      </contour>
    </TTGlyph>
    <TTGlyph name="colon.tab" xMin="78" yMin="0" xMax="186" yMax="540">
      <contour>
        <pt x="78" y="406" on="1"/>
        <pt x="78" y="540" on="1"/>
        <pt x="186" y="540" on="1"/>
        <pt x="186" y="406" on="1"/>
      </contour>
      <contour>
        <pt x="78" y="0" on="1"/>
        <pt x="78" y="135" on="1"/>
        <pt x="186" y="135" on="1"/>
        <pt x="186" y="0" on="1"/>
      </contour>
    </TTGlyph>
    <TTGlyph name="colonmonetary" xMin="47" yMin="-126" xMax="528" yMax="798">
      <contour>
        <pt x="167" y="-110" on="1"/>
        <pt x="189" y="29" on="1"/>
        <pt x="120" y="69" on="0"/>
        <pt x="47" y="238" on="0"/>
        <pt x="47" y="354" on="1"/>
        <pt x="47" y="431" on="0"/>
        <pt x="81" y="562" on="0"/>
        <pt x="146" y="658" on="0"/>
        <pt x="242" y="715" on="0"/>
        <pt x="304" y="720" on="1"/>
        <pt x="317" y="798" on="1"/>
        <pt x="385" y="783" on="1"/>
        <pt x="374" y="717" on="1"/>
        <pt x="393" y="714" on="0"/>
        <pt x="426" y="703" on="0"/>
        <pt x="442" y="696" on="1"/>
        <pt x="459" y="798" on="1"/>
        <pt x="528" y="783" on="1"/>
        <pt x="414" y="94" on="1"/>
        <pt x="431" y="102" on="0"/>
        <pt x="466" y="122" on="0"/>
        <pt x="484" y="135" on="1"/>
        <pt x="497" y="51" on="1"/>
        <pt x="475" y="37" on="0"/>
        <pt x="427" y="14" on="0"/>
        <pt x="399" y="6" on="1"/>
        <pt x="377" y="-126" on="1"/>
        <pt x="308" y="-110" on="1"/>
        <pt x="326" y="-4" on="1"/>
        <pt x="314" y="-4" on="1"/>
        <pt x="284" y="-4" on="0"/>
        <pt x="256" y="2" on="1"/>
        <pt x="236" y="-126" on="1"/>
      </contour>
      <contour>
        <pt x="139" y="347" on="1"/>
        <pt x="139" y="270" on="0"/>
        <pt x="173" y="153" on="0"/>
        <pt x="208" y="118" on="1"/>
        <pt x="295" y="639" on="1"/>
        <pt x="256" y="634" on="0"/>
        <pt x="197" y="586" on="0"/>
        <pt x="158" y="509" on="0"/>
        <pt x="139" y="407" on="0"/>
      </contour>
      <contour>
        <pt x="322" y="76" on="1"/>
        <pt x="329" y="76" on="0"/>
        <pt x="341" y="76" on="0"/>
        <pt x="347" y="77" on="1"/>
        <pt x="435" y="610" on="1"/>
        <pt x="398" y="632" on="0"/>
        <pt x="356" y="638" on="1"/>
        <pt x="266" y="84" on="1"/>
        <pt x="293" y="76" on="0"/>
      </contour>
    </TTGlyph>
    <TTGlyph name="comma" xMin="27" yMin="-141" xMax="187" yMax="135">
      <contour>
        <pt x="83" y="-141" on="1"/>
        <pt x="27" y="-130" on="1"/>
        <pt x="73" y="135" on="1"/>
        <pt x="187" y="135" on="1"/>
      </contour>
    </TTGlyph>
    <TTGlyph name="comma.alt" xMin="25" yMin="-144" xMax="176" yMax="135">
      <contour>
        <pt x="168" y="135" on="1"/>
        <pt x="176" y="98" on="0"/>
        <pt x="176" y="66" on="1"/>
        <pt x="176" y="9" on="0"/>
        <pt x="127" y="-96" on="0"/>
        <pt x="82" y="-144" on="1"/>
        <pt x="25" y="-126" on="1"/>
        <pt x="54" y="-76" on="0"/>
        <pt x="77" y="10" on="0"/>
        <pt x="77" y="52" on="1"/>
        <pt x="77" y="72" on="0"/>
        <pt x="72" y="110" on="0"/>
        <pt x="67" y="135" on="1"/>
      </contour>
    </TTGlyph>
    <TTGlyph name="comma.tab" xMin="46" yMin="-149" xMax="207" yMax="135">
      <contour>
        <pt x="104" y="-149" on="1"/>
        <pt x="46" y="-137" on="1"/>
        <pt x="94" y="135" on="1"/>
        <pt x="207" y="135" on="1"/>
      </contour>
    </TTGlyph>
    <TTGlyph name="comma.tab_alt" xMin="43" yMin="-149" xMax="195" yMax="135">
      <contour>
        <pt x="186" y="135" on="1"/>
        <pt x="190" y="118" on="0"/>
        <pt x="195" y="82" on="0"/>
        <pt x="195" y="65" on="1"/>
        <pt x="195" y="7" on="0"/>
        <pt x="144" y="-99" on="0"/>
        <pt x="98" y="-149" on="1"/>
        <pt x="43" y="-131" on="1"/>
        <pt x="72" y="-79" on="0"/>
        <pt x="95" y="9" on="0"/>
        <pt x="95" y="51" on="1"/>
        <pt x="95" y="71" on="0"/>
        <pt x="90" y="109" on="0"/>
        <pt x="85" y="135" on="1"/>
      </contour>
    </TTGlyph>
    <TTGlyph name="commaaccent" xMin="159" yMin="-267" xMax="295" yMax="-64">
      <contour>
        <pt x="255" y="-64" on="1"/>
        <pt x="275" y="-85" on="0"/>
        <pt x="295" y="-125" on="0"/>
        <pt x="295" y="-148" on="1"/>
        <pt x="295" y="-174" on="0"/>
        <pt x="261" y="-231" on="0"/>
        <pt x="219" y="-267" on="1"/>
        <pt x="159" y="-252" on="1"/>
        <pt x="182" y="-222" on="0"/>
        <pt x="202" y="-178" on="0"/>
        <pt x="202" y="-158" on="1"/>
        <pt x="202" y="-139" on="0"/>
        <pt x="184" y="-109" on="0"/>
        <pt x="166" y="-89" on="1"/>
      </contour>
    </TTGlyph>
    <TTGlyph name="commaaccent.cap" xMin="150" yMin="-252" xMax="278" yMax="-60">
      <contour>
        <pt x="241" y="-60" on="1"/>
        <pt x="259" y="-80" on="0"/>
        <pt x="278" y="-117" on="0"/>
        <pt x="278" y="-139" on="1"/>
        <pt x="278" y="-164" on="0"/>
        <pt x="247" y="-217" on="0"/>
        <pt x="207" y="-252" on="1"/>
        <pt x="150" y="-237" on="1"/>
        <pt x="170" y="-208" on="0"/>
        <pt x="189" y="-168" on="0"/>
        <pt x="189" y="-149" on="1"/>
        <pt x="189" y="-131" on="0"/>
        <pt x="172" y="-103" on="0"/>
        <pt x="155" y="-83" on="1"/>
      </contour>
    </TTGlyph>
    <TTGlyph name="commaaccent.rot" xMin="177" yMin="610" xMax="312" yMax="813">
      <contour>
        <pt x="216" y="610" on="1"/>
        <pt x="196" y="631" on="0"/>
        <pt x="177" y="670" on="0"/>
        <pt x="177" y="694" on="1"/>
        <pt x="177" y="720" on="0"/>
        <pt x="210" y="776" on="0"/>
        <pt x="252" y="813" on="1"/>
        <pt x="312" y="798" on="1"/>
        <pt x="289" y="768" on="0"/>
        <pt x="270" y="724" on="0"/>
        <pt x="270" y="704" on="1"/>
        <pt x="270" y="685" on="0"/>
        <pt x="287" y="654" on="0"/>
        <pt x="305" y="634" on="1"/>
      </contour>
    </TTGlyph>
    <TTGlyph name="copyright" xMin="54" yMin="-19" xMax="709" yMax="744">
      <contour>
        <pt x="709" y="363" on="1"/>
        <pt x="709" y="278" on="0"/>
        <pt x="661" y="137" on="0"/>
        <pt x="575" y="37" on="0"/>
        <pt x="453" y="-19" on="0"/>
        <pt x="380" y="-19" on="1"/>
        <pt x="307" y="-19" on="0"/>
        <pt x="187" y="36" on="0"/>
        <pt x="101" y="136" on="0"/>
        <pt x="54" y="276" on="0"/>
        <pt x="54" y="361" on="1"/>
        <pt x="54" y="447" on="0"/>
        <pt x="102" y="588" on="0"/>
        <pt x="188" y="689" on="0"/>
        <pt x="309" y="744" on="0"/>
        <pt x="382" y="744" on="1"/>
        <pt x="455" y="744" on="0"/>
        <pt x="576" y="689" on="0"/>
        <pt x="662" y="589" on="0"/>
        <pt x="709" y="448" on="0"/>
      </contour>
      <contour>
        <pt x="663" y="362" on="1"/>
        <pt x="663" y="444" on="0"/>
        <pt x="618" y="572" on="0"/>
        <pt x="542" y="659" on="0"/>
        <pt x="440" y="705" on="0"/>
        <pt x="382" y="705" on="1"/>
        <pt x="323" y="705" on="0"/>
        <pt x="220" y="659" on="0"/>
        <pt x="144" y="572" on="0"/>
        <pt x="100" y="444" on="0"/>
        <pt x="100" y="362" on="1"/>
        <pt x="100" y="280" on="0"/>
        <pt x="144" y="153" on="0"/>
        <pt x="221" y="66" on="0"/>
        <pt x="323" y="21" on="0"/>
        <pt x="381" y="21" on="1"/>
        <pt x="440" y="21" on="0"/>
        <pt x="543" y="66" on="0"/>
        <pt x="619" y="153" on="0"/>
        <pt x="663" y="280" on="0"/>
      </contour>
      <contour>
        <pt x="506" y="189" on="1"/>
        <pt x="482" y="171" on="0"/>
        <pt x="424" y="150" on="0"/>
        <pt x="392" y="150" on="1"/>
        <pt x="353" y="150" on="0"/>
        <pt x="290" y="179" on="0"/>
        <pt x="244" y="235" on="0"/>
        <pt x="219" y="315" on="0"/>
        <pt x="219" y="365" on="1"/>
        <pt x="219" y="414" on="0"/>
        <pt x="244" y="494" on="0"/>
        <pt x="291" y="550" on="0"/>
        <pt x="356" y="581" on="0"/>
        <pt x="396" y="581" on="1"/>
        <pt x="427" y="581" on="0"/>
        <pt x="475" y="565" on="0"/>
        <pt x="498" y="550" on="1"/>
        <pt x="489" y="479" on="1"/>
        <pt x="463" y="497" on="0"/>
        <pt x="421" y="513" on="0"/>
        <pt x="396" y="513" on="1"/>
        <pt x="348" y="513" on="0"/>
        <pt x="291" y="431" on="0"/>
        <pt x="291" y="365" on="1"/>
        <pt x="291" y="299" on="0"/>
        <pt x="346" y="218" on="0"/>
        <pt x="394" y="218" on="1"/>
        <pt x="421" y="218" on="0"/>
        <pt x="468" y="237" on="0"/>
        <pt x="496" y="257" on="1"/>
      </contour>
    </TTGlyph>
    <TTGlyph name="d" xMin="47" yMin="-11" xMax="477" yMax="809">
      <contour>
        <pt x="399" y="0" on="1"/>
        <pt x="387" y="68" on="1"/>
        <pt x="359" y="36" on="0"/>
        <pt x="287" y="-11" on="0"/>
        <pt x="236" y="-11" on="1"/>
        <pt x="197" y="-11" on="0"/>
        <pt x="129" y="21" on="0"/>
        <pt x="77" y="87" on="0"/>
        <pt x="47" y="189" on="0"/>
        <pt x="47" y="258" on="1"/>
        <pt x="47" y="332" on="0"/>
        <pt x="83" y="441" on="0"/>
        <pt x="145" y="512" on="0"/>
        <pt x="226" y="547" on="0"/>
        <pt x="270" y="547" on="1"/>
        <pt x="302" y="547" on="0"/>
        <pt x="355" y="535" on="0"/>
        <pt x="378" y="527" on="1"/>
        <pt x="378" y="794" on="1"/>
        <pt x="477" y="809" on="1"/>
        <pt x="477" y="0" on="1"/>
      </contour>
      <contour>
        <pt x="378" y="437" on="1"/>
        <pt x="352" y="450" on="0"/>
        <pt x="308" y="462" on="0"/>
        <pt x="276" y="462" on="1"/>
        <pt x="220" y="462" on="0"/>
        <pt x="146" y="363" on="0"/>
        <pt x="146" y="261" on="1"/>
        <pt x="146" y="167" on="0"/>
        <pt x="207" y="79" on="0"/>
        <pt x="252" y="79" on="1"/>
        <pt x="288" y="79" on="0"/>
        <pt x="348" y="122" on="0"/>
        <pt x="378" y="157" on="1"/>
      </contour>
    </TTGlyph>
    <TTGlyph name="dagger" xMin="60" yMin="-103" xMax="458" yMax="725">
      <contour>
        <pt x="276" y="519" on="1"/>
        <pt x="242" y="519" on="1"/>
        <pt x="220" y="650" on="1"/>
        <pt x="220" y="725" on="1"/>
        <pt x="299" y="725" on="1"/>
        <pt x="299" y="650" on="1"/>
      </contour>
      <contour>
        <pt x="423" y="441" on="1"/>
        <pt x="298" y="462" on="1"/>
        <pt x="298" y="495" on="1"/>
        <pt x="423" y="518" on="1"/>
        <pt x="458" y="518" on="1"/>
        <pt x="458" y="441" on="1"/>
      </contour>
      <contour>
        <pt x="95" y="441" on="1"/>
        <pt x="60" y="441" on="1"/>
        <pt x="60" y="518" on="1"/>
        <pt x="95" y="518" on="1"/>
        <pt x="220" y="495" on="1"/>
        <pt x="220" y="462" on="1"/>
      </contour>
      <contour>
        <pt x="274" y="-103" on="1"/>
        <pt x="244" y="-103" on="1"/>
        <pt x="222" y="34" on="1"/>
        <pt x="222" y="314" on="1"/>
        <pt x="242" y="440" on="1"/>
        <pt x="276" y="440" on="1"/>
        <pt x="296" y="314" on="1"/>
        <pt x="296" y="34" on="1"/>
      </contour>
    </TTGlyph>
    <TTGlyph name="daggerdbl" xMin="65" yMin="-171" xMax="462" yMax="725">
      <contour>
        <pt x="281" y="519" on="1"/>
        <pt x="247" y="519" on="1"/>
        <pt x="224" y="650" on="1"/>
        <pt x="224" y="725" on="1"/>
        <pt x="303" y="725" on="1"/>
        <pt x="303" y="650" on="1"/>
      </contour>
      <contour>
        <pt x="427" y="441" on="1"/>
        <pt x="304" y="462" on="1"/>
        <pt x="304" y="495" on="1"/>
        <pt x="427" y="518" on="1"/>
        <pt x="462" y="518" on="1"/>
        <pt x="462" y="441" on="1"/>
      </contour>
      <contour>
        <pt x="100" y="441" on="1"/>
        <pt x="65" y="441" on="1"/>
        <pt x="65" y="518" on="1"/>
        <pt x="100" y="518" on="1"/>
        <pt x="225" y="495" on="1"/>
        <pt x="225" y="462" on="1"/>
      </contour>
      <contour>
        <pt x="281" y="115" on="1"/>
        <pt x="247" y="115" on="1"/>
        <pt x="228" y="241" on="1"/>
        <pt x="228" y="314" on="1"/>
        <pt x="247" y="440" on="1"/>
        <pt x="281" y="440" on="1"/>
        <pt x="300" y="314" on="1"/>
        <pt x="300" y="241" on="1"/>
      </contour>
      <contour>
        <pt x="427" y="37" on="1"/>
        <pt x="304" y="58" on="1"/>
        <pt x="304" y="93" on="1"/>
        <pt x="427" y="114" on="1"/>
        <pt x="462" y="114" on="1"/>
        <pt x="462" y="37" on="1"/>
      </contour>
      <contour>
        <pt x="100" y="37" on="1"/>
        <pt x="65" y="37" on="1"/>
        <pt x="65" y="114" on="1"/>
        <pt x="100" y="114" on="1"/>
        <pt x="225" y="93" on="1"/>
        <pt x="225" y="58" on="1"/>
      </contour>
      <contour>
        <pt x="224" y="-171" on="1"/>
        <pt x="224" y="-97" on="1"/>
        <pt x="247" y="36" on="1"/>
        <pt x="281" y="36" on="1"/>
        <pt x="303" y="-97" on="1"/>
        <pt x="303" y="-171" on="1"/>
      </contour>
    </TTGlyph>
    <TTGlyph name="dcaron" xMin="47" yMin="-11" xMax="636" yMax="809">
      <component glyphName="caron.alt" x="342" y="0" flags="0x4"/>
      <component glyphName="d" x="0" y="0" flags="0x4"/>
    </TTGlyph>
    <TTGlyph name="dcroat" xMin="47" yMin="-11" xMax="549" yMax="809">
      <contour>
        <pt x="399" y="0" on="1"/>
        <pt x="387" y="68" on="1"/>
        <pt x="359" y="36" on="0"/>
        <pt x="287" y="-11" on="0"/>
        <pt x="236" y="-11" on="1"/>
        <pt x="197" y="-11" on="0"/>
        <pt x="129" y="21" on="0"/>
        <pt x="77" y="87" on="0"/>
        <pt x="47" y="189" on="0"/>
        <pt x="47" y="258" on="1"/>
        <pt x="47" y="332" on="0"/>
        <pt x="83" y="441" on="0"/>
        <pt x="145" y="512" on="0"/>
        <pt x="226" y="547" on="0"/>
        <pt x="270" y="547" on="1"/>
        <pt x="302" y="547" on="0"/>
        <pt x="355" y="535" on="0"/>
        <pt x="378" y="527" on="1"/>
        <pt x="378" y="633" on="1"/>
        <pt x="250" y="633" on="1"/>
        <pt x="238" y="714" on="1"/>
        <pt x="378" y="714" on="1"/>
        <pt x="378" y="794" on="1"/>
        <pt x="477" y="809" on="1"/>
        <pt x="477" y="714" on="1"/>
        <pt x="549" y="714" on="1"/>
        <pt x="549" y="633" on="1"/>
        <pt x="477" y="633" on="1"/>
        <pt x="477" y="0" on="1"/>
      </contour>
      <contour>
        <pt x="378" y="437" on="1"/>
        <pt x="352" y="450" on="0"/>
        <pt x="308" y="462" on="0"/>
        <pt x="276" y="462" on="1"/>
        <pt x="220" y="462" on="0"/>
        <pt x="146" y="363" on="0"/>
        <pt x="146" y="261" on="1"/>
        <pt x="146" y="167" on="0"/>
        <pt x="207" y="78" on="0"/>
        <pt x="252" y="78" on="1"/>
        <pt x="288" y="78" on="0"/>
        <pt x="348" y="122" on="0"/>
        <pt x="378" y="157" on="1"/>
      </contour>
    </TTGlyph>
    <TTGlyph name="dcroat.flat" xMin="47" yMin="-11" xMax="549" yMax="809">
      <contour>
        <pt x="399" y="0" on="1"/>
        <pt x="387" y="68" on="1"/>
        <pt x="359" y="36" on="0"/>
        <pt x="287" y="-11" on="0"/>
        <pt x="236" y="-11" on="1"/>
        <pt x="197" y="-11" on="0"/>
        <pt x="129" y="21" on="0"/>
        <pt x="77" y="87" on="0"/>
        <pt x="47" y="189" on="0"/>
        <pt x="47" y="258" on="1"/>
        <pt x="47" y="332" on="0"/>
        <pt x="83" y="441" on="0"/>
        <pt x="145" y="512" on="0"/>
        <pt x="226" y="547" on="0"/>
        <pt x="270" y="547" on="1"/>
        <pt x="302" y="547" on="0"/>
        <pt x="355" y="535" on="0"/>
        <pt x="378" y="527" on="1"/>
        <pt x="378" y="633" on="1"/>
        <pt x="243" y="633" on="1"/>
        <pt x="243" y="714" on="1"/>
        <pt x="378" y="714" on="1"/>
        <pt x="378" y="794" on="1"/>
        <pt x="477" y="809" on="1"/>
        <pt x="477" y="714" on="1"/>
        <pt x="549" y="714" on="1"/>
        <pt x="549" y="633" on="1"/>
        <pt x="477" y="633" on="1"/>
        <pt x="477" y="0" on="1"/>
      </contour>
      <contour>
        <pt x="378" y="437" on="1"/>
        <pt x="352" y="450" on="0"/>
        <pt x="308" y="462" on="0"/>
        <pt x="276" y="462" on="1"/>
        <pt x="220" y="462" on="0"/>
        <pt x="146" y="363" on="0"/>
        <pt x="146" y="261" on="1"/>
        <pt x="146" y="167" on="0"/>
        <pt x="207" y="78" on="0"/>
        <pt x="252" y="78" on="1"/>
        <pt x="288" y="78" on="0"/>
        <pt x="348" y="122" on="0"/>
        <pt x="378" y="157" on="1"/>
      </contour>
    </TTGlyph>
    <TTGlyph name="degree" xMin="46" yMin="405" xMax="366" yMax="725">
      <contour>
        <pt x="366" y="564" on="1"/>
        <pt x="366" y="529" on="0"/>
        <pt x="342" y="471" on="0"/>
        <pt x="300" y="429" on="0"/>
        <pt x="242" y="405" on="0"/>
        <pt x="207" y="405" on="1"/>
        <pt x="172" y="405" on="0"/>
        <pt x="113" y="429" on="0"/>
        <pt x="70" y="471" on="0"/>
        <pt x="46" y="529" on="0"/>
        <pt x="46" y="564" on="1"/>
        <pt x="46" y="599" on="0"/>
        <pt x="70" y="658" on="0"/>
        <pt x="113" y="701" on="0"/>
        <pt x="172" y="725" on="0"/>
        <pt x="207" y="725" on="1"/>
        <pt x="241" y="725" on="0"/>
        <pt x="300" y="701" on="0"/>
        <pt x="342" y="658" on="0"/>
        <pt x="366" y="599" on="0"/>
      </contour>
      <contour>
        <pt x="297" y="564" on="1"/>
        <pt x="297" y="605" on="0"/>
        <pt x="246" y="659" on="0"/>
        <pt x="207" y="659" on="1"/>
        <pt x="166" y="659" on="0"/>
        <pt x="116" y="605" on="0"/>
        <pt x="116" y="564" on="1"/>
        <pt x="116" y="524" on="0"/>
        <pt x="167" y="472" on="0"/>
        <pt x="207" y="472" on="1"/>
        <pt x="247" y="472" on="0"/>
        <pt x="297" y="524" on="0"/>
      </contour>
    </TTGlyph>
    <TTGlyph name="degree.tab" xMin="86" yMin="368" xMax="444" yMax="726">
      <contour>
        <pt x="444" y="546" on="1"/>
        <pt x="444" y="507" on="0"/>
        <pt x="417" y="442" on="0"/>
        <pt x="369" y="394" on="0"/>
        <pt x="303" y="368" on="0"/>
        <pt x="264" y="368" on="1"/>
        <pt x="225" y="368" on="0"/>
        <pt x="160" y="394" on="0"/>
        <pt x="112" y="442" on="0"/>
        <pt x="86" y="507" on="0"/>
        <pt x="86" y="546" on="1"/>
        <pt x="86" y="585" on="0"/>
        <pt x="113" y="651" on="0"/>
        <pt x="161" y="699" on="0"/>
        <pt x="226" y="726" on="0"/>
        <pt x="264" y="726" on="1"/>
        <pt x="303" y="726" on="0"/>
        <pt x="369" y="699" on="0"/>
        <pt x="417" y="651" on="0"/>
        <pt x="444" y="585" on="0"/>
      </contour>
      <contour>
        <pt x="155" y="546" on="1"/>
        <pt x="155" y="496" on="0"/>
        <pt x="217" y="435" on="0"/>
        <pt x="264" y="435" on="1"/>
        <pt x="310" y="435" on="0"/>
        <pt x="373" y="496" on="0"/>
        <pt x="373" y="546" on="1"/>
        <pt x="373" y="570" on="0"/>
        <pt x="356" y="611" on="0"/>
        <pt x="327" y="641" on="0"/>
        <pt x="287" y="658" on="0"/>
        <pt x="264" y="658" on="1"/>
        <pt x="241" y="658" on="0"/>
        <pt x="201" y="641" on="0"/>
        <pt x="172" y="611" on="0"/>
        <pt x="155" y="570" on="0"/>
      </contour>
    </TTGlyph>
    <TTGlyph name="dieresis" xMin="94" yMin="613" xMax="376" yMax="724">
      <contour>
        <pt x="94" y="613" on="1"/>
        <pt x="94" y="724" on="1"/>
        <pt x="196" y="724" on="1"/>
        <pt x="196" y="613" on="1"/>
      </contour>
      <contour>
        <pt x="274" y="613" on="1"/>
        <pt x="274" y="724" on="1"/>
        <pt x="376" y="724" on="1"/>
        <pt x="376" y="613" on="1"/>
      </contour>
    </TTGlyph>
    <TTGlyph name="dieresis.cap" xMin="87" yMin="574" xMax="355" yMax="681">
      <contour>
        <pt x="87" y="574" on="1"/>
        <pt x="87" y="681" on="1"/>
        <pt x="185" y="681" on="1"/>
        <pt x="185" y="574" on="1"/>
      </contour>
      <contour>
        <pt x="257" y="574" on="1"/>
        <pt x="257" y="681" on="1"/>
        <pt x="355" y="681" on="1"/>
        <pt x="355" y="574" on="1"/>
      </contour>
    </TTGlyph>
    <TTGlyph name="divide" xMin="57" yMin="135" xMax="479" yMax="583">
      <contour>
        <pt x="220" y="477" on="1"/>
        <pt x="220" y="583" on="1"/>
        <pt x="315" y="583" on="1"/>
        <pt x="315" y="477" on="1"/>
      </contour>
      <contour>
        <pt x="57" y="320" on="1"/>
        <pt x="57" y="397" on="1"/>
        <pt x="479" y="397" on="1"/>
        <pt x="479" y="320" on="1"/>
      </contour>
      <contour>
        <pt x="220" y="135" on="1"/>
        <pt x="220" y="241" on="1"/>
        <pt x="315" y="241" on="1"/>
        <pt x="315" y="135" on="1"/>
      </contour>
    </TTGlyph>
    <TTGlyph name="divide.tab" xMin="54" yMin="135" xMax="475" yMax="583">
      <contour>
        <pt x="216" y="477" on="1"/>
        <pt x="216" y="583" on="1"/>
        <pt x="312" y="583" on="1"/>
        <pt x="312" y="477" on="1"/>
      </contour>
      <contour>
        <pt x="54" y="320" on="1"/>
        <pt x="54" y="397" on="1"/>
        <pt x="475" y="397" on="1"/>
        <pt x="475" y="320" on="1"/>
      </contour>
      <contour>
        <pt x="216" y="135" on="1"/>
        <pt x="216" y="241" on="1"/>
        <pt x="312" y="241" on="1"/>
        <pt x="312" y="135" on="1"/>
      </contour>
    </TTGlyph>
    <TTGlyph name="dollar" xMin="36" yMin="-130" xMax="466" yMax="801">
      <contour>
        <pt x="354" y="713" on="1"/>
        <pt x="381" y="707" on="0"/>
        <pt x="427" y="689" on="0"/>
        <pt x="446" y="679" on="1"/>
        <pt x="431" y="587" on="1"/>
        <pt x="411" y="601" on="0"/>
        <pt x="364" y="624" on="0"/>
        <pt x="337" y="632" on="1"/>
        <pt x="302" y="400" on="1"/>
        <pt x="387" y="359" on="0"/>
        <pt x="466" y="265" on="0"/>
        <pt x="466" y="193" on="1"/>
        <pt x="466" y="145" on="0"/>
        <pt x="434" y="72" on="0"/>
        <pt x="375" y="22" on="0"/>
        <pt x="293" y="-4" on="0"/>
        <pt x="243" y="-4" on="1"/>
        <pt x="241" y="-4" on="1"/>
        <pt x="222" y="-130" on="1"/>
        <pt x="155" y="-116" on="1"/>
        <pt x="173" y="2" on="1"/>
        <pt x="131" y="10" on="0"/>
        <pt x="60" y="36" on="0"/>
        <pt x="36" y="52" on="1"/>
        <pt x="49" y="143" on="1"/>
        <pt x="79" y="123" on="0"/>
        <pt x="149" y="91" on="0"/>
        <pt x="189" y="83" on="1"/>
        <pt x="227" y="334" on="1"/>
        <pt x="184" y="355" on="0"/>
        <pt x="121" y="396" on="0"/>
        <pt x="81" y="444" on="0"/>
        <pt x="61" y="501" on="0"/>
        <pt x="61" y="538" on="1"/>
        <pt x="61" y="580" on="0"/>
        <pt x="91" y="648" on="0"/>
        <pt x="147" y="696" on="0"/>
        <pt x="224" y="722" on="0"/>
        <pt x="272" y="722" on="1"/>
        <pt x="286" y="722" on="1"/>
        <pt x="298" y="801" on="1"/>
        <pt x="364" y="786" on="1"/>
      </contour>
      <contour>
        <pt x="376" y="185" on="1"/>
        <pt x="376" y="203" on="0"/>
        <pt x="369" y="234" on="0"/>
        <pt x="349" y="262" on="0"/>
        <pt x="314" y="290" on="0"/>
        <pt x="287" y="305" on="1"/>
        <pt x="253" y="77" on="1"/>
        <pt x="258" y="77" on="1"/>
        <pt x="317" y="79" on="0"/>
        <pt x="376" y="135" on="0"/>
      </contour>
      <contour>
        <pt x="149" y="546" on="1"/>
        <pt x="149" y="527" on="0"/>
        <pt x="158" y="497" on="0"/>
        <pt x="180" y="469" on="0"/>
        <pt x="215" y="443" on="0"/>
        <pt x="242" y="429" on="1"/>
        <pt x="274" y="642" on="1"/>
        <pt x="262" y="642" on="1"/>
        <pt x="207" y="642" on="0"/>
        <pt x="149" y="590" on="0"/>
      </contour>
    </TTGlyph>
    <TTGlyph name="dollar.tab" xMin="40" yMin="-130" xMax="480" yMax="801">
      <contour>
        <pt x="165" y="-115" on="1"/>
        <pt x="182" y="1" on="1"/>
        <pt x="104" y="13" on="0"/>
        <pt x="40" y="47" on="1"/>
        <pt x="56" y="138" on="1"/>
        <pt x="95" y="115" on="0"/>
        <pt x="160" y="87" on="0"/>
        <pt x="196" y="81" on="1"/>
        <pt x="233" y="335" on="1"/>
        <pt x="146" y="369" on="0"/>
        <pt x="62" y="458" on="0"/>
        <pt x="62" y="532" on="1"/>
        <pt x="62" y="575" on="0"/>
        <pt x="91" y="646" on="0"/>
        <pt x="145" y="695" on="0"/>
        <pt x="221" y="722" on="0"/>
        <pt x="268" y="722" on="1"/>
        <pt x="289" y="722" on="1"/>
        <pt x="301" y="801" on="1"/>
        <pt x="367" y="786" on="1"/>
        <pt x="356" y="714" on="1"/>
        <pt x="388" y="708" on="0"/>
        <pt x="439" y="689" on="0"/>
        <pt x="459" y="680" on="1"/>
        <pt x="444" y="589" on="1"/>
        <pt x="420" y="603" on="0"/>
        <pt x="370" y="626" on="0"/>
        <pt x="341" y="633" on="1"/>
        <pt x="307" y="402" on="1"/>
        <pt x="354" y="383" on="0"/>
        <pt x="420" y="341" on="0"/>
        <pt x="461" y="292" on="0"/>
        <pt x="480" y="232" on="0"/>
        <pt x="480" y="196" on="1"/>
        <pt x="480" y="105" on="0"/>
        <pt x="361" y="-4" on="0"/>
        <pt x="252" y="-4" on="1"/>
        <pt x="249" y="-4" on="1"/>
        <pt x="231" y="-130" on="1"/>
      </contour>
      <contour>
        <pt x="149" y="540" on="1"/>
        <pt x="149" y="521" on="0"/>
        <pt x="157" y="490" on="0"/>
        <pt x="179" y="463" on="0"/>
        <pt x="216" y="439" on="0"/>
        <pt x="246" y="426" on="1"/>
        <pt x="278" y="643" on="1"/>
        <pt x="265" y="643" on="1"/>
        <pt x="263" y="643" on="1"/>
        <pt x="209" y="643" on="0"/>
        <pt x="149" y="585" on="0"/>
      </contour>
      <contour>
        <pt x="391" y="191" on="1"/>
        <pt x="391" y="207" on="0"/>
        <pt x="383" y="239" on="0"/>
        <pt x="362" y="269" on="0"/>
        <pt x="324" y="298" on="0"/>
        <pt x="294" y="311" on="1"/>
        <pt x="260" y="76" on="1"/>
        <pt x="261" y="76" on="1"/>
        <pt x="324" y="76" on="0"/>
        <pt x="391" y="139" on="0"/>
      </contour>
    </TTGlyph>
    <TTGlyph name="dotaccent" xMin="182" yMin="613" xMax="287" yMax="724">
      <contour>
        <pt x="182" y="613" on="1"/>
        <pt x="182" y="724" on="1"/>
        <pt x="287" y="724" on="1"/>
        <pt x="287" y="613" on="1"/>
      </contour>
    </TTGlyph>
    <TTGlyph name="dotaccent.cap" xMin="170" yMin="575" xMax="271" yMax="681">
      <contour>
        <pt x="170" y="575" on="1"/>
        <pt x="170" y="681" on="1"/>
        <pt x="271" y="681" on="1"/>
        <pt x="271" y="575" on="1"/>
      </contour>
    </TTGlyph>
    <TTGlyph name="dotlessi" xMin="83" yMin="0" xMax="182" yMax="540">
      <contour>
        <pt x="83" y="0" on="1"/>
        <pt x="83" y="540" on="1"/>
        <pt x="182" y="540" on="1"/>
        <pt x="182" y="0" on="1"/>
      </contour>
    </TTGlyph>
    <TTGlyph name="e" xMin="46" yMin="-10" xMax="462" yMax="551">
      <contour>
        <pt x="461" y="55" on="1"/>
        <pt x="425" y="26" on="0"/>
        <pt x="332" y="-10" on="0"/>
        <pt x="273" y="-10" on="1"/>
        <pt x="222" y="-10" on="0"/>
        <pt x="138" y="25" on="0"/>
        <pt x="79" y="96" on="0"/>
        <pt x="46" y="201" on="0"/>
        <pt x="46" y="272" on="1"/>
        <pt x="46" y="334" on="0"/>
        <pt x="76" y="437" on="0"/>
        <pt x="132" y="510" on="0"/>
        <pt x="211" y="551" on="0"/>
        <pt x="259" y="551" on="1"/>
        <pt x="313" y="551" on="0"/>
        <pt x="390" y="508" on="0"/>
        <pt x="439" y="433" on="0"/>
        <pt x="462" y="334" on="0"/>
        <pt x="462" y="278" on="1"/>
        <pt x="462" y="251" on="1"/>
        <pt x="144" y="251" on="1"/>
        <pt x="148" y="166" on="0"/>
        <pt x="219" y="76" on="0"/>
        <pt x="282" y="76" on="1"/>
        <pt x="327" y="76" on="0"/>
        <pt x="407" y="111" on="0"/>
        <pt x="447" y="143" on="1"/>
      </contour>
      <contour>
        <pt x="258" y="472" on="1"/>
        <pt x="217" y="472" on="0"/>
        <pt x="158" y="398" on="0"/>
        <pt x="148" y="329" on="1"/>
        <pt x="364" y="329" on="1"/>
        <pt x="358" y="395" on="0"/>
        <pt x="308" y="472" on="0"/>
      </contour>
    </TTGlyph>
    <TTGlyph name="eacute" xMin="46" yMin="-10" xMax="462" yMax="775">
      <component glyphName="acute" x="89" y="3" flags="0x4"/>
      <component glyphName="e" x="0" y="0" flags="0x4"/>
    </TTGlyph>
    <TTGlyph name="ebreve" xMin="46" yMin="-10" xMax="462" yMax="752">
      <component glyphName="e" x="0" y="0" flags="0x204"/>
      <component glyphName="breve" x="31" y="3" flags="0x4"/>
    </TTGlyph>
    <TTGlyph name="ecaron" xMin="46" yMin="-10" xMax="462" yMax="766">
      <component glyphName="caron" x="31" y="3" flags="0x4"/>
      <component glyphName="e" x="0" y="0" flags="0x4"/>
    </TTGlyph>
    <TTGlyph name="ecircumflex" xMin="46" yMin="-10" xMax="462" yMax="767">
      <component glyphName="circumflex" x="32" y="3" flags="0x4"/>
      <component glyphName="e" x="0" y="0" flags="0x4"/>
    </TTGlyph>
    <TTGlyph name="edieresis" xMin="46" yMin="-10" xMax="462" yMax="727">
      <component glyphName="dieresis" x="31" y="3" flags="0x4"/>
      <component glyphName="e" x="0" y="0" flags="0x4"/>
    </TTGlyph>
    <TTGlyph name="edotaccent" xMin="46" yMin="-10" xMax="462" yMax="727">
      <component glyphName="e" x="0" y="0" flags="0x204"/>
      <component glyphName="dotaccent" x="31" y="3" flags="0x4"/>
    </TTGlyph>
    <TTGlyph name="egrave" xMin="46" yMin="-10" xMax="462" yMax="775">
      <component glyphName="e" x="0" y="0" flags="0x204"/>
      <component glyphName="grave" x="-28" y="3" flags="0x4"/>
    </TTGlyph>
    <TTGlyph name="eight" xMin="44" yMin="-14" xMax="506" yMax="731">
      <contour>
        <pt x="44" y="185" on="1"/>
        <pt x="44" y="245" on="0"/>
        <pt x="117" y="342" on="0"/>
        <pt x="176" y="379" on="1"/>
        <pt x="125" y="409" on="0"/>
        <pt x="66" y="491" on="0"/>
        <pt x="66" y="552" on="1"/>
        <pt x="66" y="591" on="0"/>
        <pt x="98" y="657" on="0"/>
        <pt x="154" y="705" on="0"/>
        <pt x="231" y="731" on="0"/>
        <pt x="276" y="731" on="1"/>
        <pt x="323" y="731" on="0"/>
        <pt x="400" y="704" on="0"/>
        <pt x="455" y="656" on="0"/>
        <pt x="485" y="589" on="0"/>
        <pt x="485" y="549" on="1"/>
        <pt x="485" y="491" on="0"/>
        <pt x="419" y="409" on="0"/>
        <pt x="371" y="377" on="1"/>
        <pt x="401" y="361" on="0"/>
        <pt x="451" y="325" on="0"/>
        <pt x="486" y="278" on="0"/>
        <pt x="506" y="220" on="0"/>
        <pt x="506" y="183" on="1"/>
        <pt x="506" y="141" on="0"/>
        <pt x="473" y="68" on="0"/>
        <pt x="413" y="16" on="0"/>
        <pt x="327" y="-14" on="0"/>
        <pt x="274" y="-14" on="1"/>
        <pt x="220" y="-14" on="0"/>
        <pt x="134" y="18" on="0"/>
        <pt x="75" y="72" on="0"/>
        <pt x="44" y="144" on="0"/>
      </contour>
      <contour>
        <pt x="139" y="190" on="1"/>
        <pt x="139" y="134" on="0"/>
        <pt x="215" y="66" on="0"/>
        <pt x="275" y="66" on="1"/>
        <pt x="336" y="66" on="0"/>
        <pt x="411" y="132" on="0"/>
        <pt x="411" y="185" on="1"/>
        <pt x="411" y="213" on="0"/>
        <pt x="393" y="255" on="0"/>
        <pt x="354" y="291" on="0"/>
        <pt x="295" y="324" on="0"/>
        <pt x="253" y="342" on="1"/>
        <pt x="202" y="313" on="0"/>
        <pt x="139" y="235" on="0"/>
      </contour>
      <contour>
        <pt x="159" y="554" on="1"/>
        <pt x="159" y="529" on="0"/>
        <pt x="176" y="490" on="0"/>
        <pt x="211" y="457" on="0"/>
        <pt x="262" y="427" on="0"/>
        <pt x="296" y="411" on="1"/>
        <pt x="338" y="438" on="0"/>
        <pt x="392" y="506" on="0"/>
        <pt x="392" y="546" on="1"/>
        <pt x="392" y="592" on="0"/>
        <pt x="327" y="652" on="0"/>
        <pt x="275" y="652" on="1"/>
        <pt x="223" y="652" on="0"/>
        <pt x="159" y="597" on="0"/>
      </contour>
    </TTGlyph>
    <TTGlyph name="eight.den" xMin="40" yMin="-11" xMax="312" yMax="377">
      <component glyphName="eight.num" x="0" y="-351" flags="0x204"/>
    </TTGlyph>
    <TTGlyph name="eight.inf" xMin="40" yMin="-168" xMax="312" yMax="220">
      <component glyphName="eight.num" x="0" y="-508" flags="0x204"/>
    </TTGlyph>
    <TTGlyph name="eight.num" xMin="40" yMin="340" xMax="312" yMax="728">
      <contour>
        <pt x="40" y="444" on="1"/>
        <pt x="40" y="505" on="0"/>
        <pt x="106" y="544" on="1"/>
        <pt x="76" y="561" on="0"/>
        <pt x="51" y="604" on="0"/>
        <pt x="51" y="628" on="1"/>
        <pt x="51" y="671" on="0"/>
        <pt x="121" y="728" on="0"/>
        <pt x="176" y="728" on="1"/>
        <pt x="230" y="728" on="0"/>
        <pt x="300" y="675" on="0"/>
        <pt x="300" y="633" on="1"/>
        <pt x="300" y="604" on="0"/>
        <pt x="268" y="560" on="0"/>
        <pt x="243" y="544" on="1"/>
        <pt x="281" y="526" on="0"/>
        <pt x="312" y="476" on="0"/>
        <pt x="312" y="445" on="1"/>
        <pt x="312" y="424" on="0"/>
        <pt x="293" y="385" on="0"/>
        <pt x="257" y="357" on="0"/>
        <pt x="206" y="340" on="0"/>
        <pt x="175" y="340" on="1"/>
        <pt x="109" y="340" on="0"/>
        <pt x="40" y="401" on="0"/>
      </contour>
      <contour>
        <pt x="238" y="448" on="1"/>
        <pt x="238" y="474" on="0"/>
        <pt x="201" y="506" on="0"/>
        <pt x="157" y="522" on="1"/>
        <pt x="133" y="505" on="0"/>
        <pt x="112" y="470" on="0"/>
        <pt x="112" y="451" on="1"/>
        <pt x="112" y="425" on="0"/>
        <pt x="147" y="393" on="0"/>
        <pt x="176" y="393" on="1"/>
        <pt x="205" y="393" on="0"/>
        <pt x="238" y="425" on="0"/>
      </contour>
      <contour>
        <pt x="122" y="628" on="1"/>
        <pt x="122" y="608" on="0"/>
        <pt x="152" y="581" on="0"/>
        <pt x="193" y="564" on="1"/>
        <pt x="229" y="594" on="0"/>
        <pt x="229" y="626" on="1"/>
        <pt x="229" y="648" on="0"/>
        <pt x="201" y="677" on="0"/>
        <pt x="175" y="677" on="1"/>
        <pt x="149" y="677" on="0"/>
        <pt x="122" y="648" on="0"/>
      </contour>
    </TTGlyph>
    <TTGlyph name="eight.sup" xMin="40" yMin="438" xMax="312" yMax="826">
      <component glyphName="eight.num" x="0" y="98" flags="0x204"/>
    </TTGlyph>
    <TTGlyph name="eight.tab" xMin="42" yMin="-11" xMax="483" yMax="732">
      <contour>
        <pt x="483" y="185" on="1"/>
        <pt x="483" y="144" on="0"/>
        <pt x="453" y="73" on="0"/>
        <pt x="397" y="20" on="0"/>
        <pt x="315" y="-11" on="0"/>
        <pt x="264" y="-11" on="1"/>
        <pt x="211" y="-11" on="0"/>
        <pt x="129" y="21" on="0"/>
        <pt x="72" y="75" on="0"/>
        <pt x="42" y="147" on="0"/>
        <pt x="42" y="186" on="1"/>
        <pt x="42" y="247" on="0"/>
        <pt x="106" y="345" on="0"/>
        <pt x="164" y="383" on="1"/>
        <pt x="117" y="412" on="0"/>
        <pt x="64" y="493" on="0"/>
        <pt x="64" y="550" on="1"/>
        <pt x="64" y="590" on="0"/>
        <pt x="93" y="657" on="0"/>
        <pt x="146" y="705" on="0"/>
        <pt x="220" y="732" on="0"/>
        <pt x="264" y="732" on="1"/>
        <pt x="308" y="732" on="0"/>
        <pt x="381" y="705" on="0"/>
        <pt x="434" y="657" on="0"/>
        <pt x="463" y="590" on="0"/>
        <pt x="463" y="550" on="1"/>
        <pt x="463" y="521" on="0"/>
        <pt x="446" y="471" on="0"/>
        <pt x="418" y="428" on="0"/>
        <pt x="381" y="392" on="0"/>
        <pt x="361" y="377" on="1"/>
        <pt x="424" y="342" on="0"/>
        <pt x="483" y="250" on="0"/>
      </contour>
      <contour>
        <pt x="389" y="189" on="1"/>
        <pt x="389" y="216" on="0"/>
        <pt x="374" y="257" on="0"/>
        <pt x="338" y="293" on="0"/>
        <pt x="278" y="328" on="0"/>
        <pt x="234" y="348" on="1"/>
        <pt x="183" y="317" on="0"/>
        <pt x="136" y="237" on="0"/>
        <pt x="136" y="193" on="1"/>
        <pt x="136" y="136" on="0"/>
        <pt x="209" y="70" on="0"/>
        <pt x="264" y="70" on="1"/>
        <pt x="321" y="70" on="0"/>
        <pt x="389" y="136" on="0"/>
      </contour>
      <contour>
        <pt x="156" y="549" on="1"/>
        <pt x="156" y="526" on="0"/>
        <pt x="170" y="491" on="0"/>
        <pt x="202" y="459" on="0"/>
        <pt x="253" y="428" on="0"/>
        <pt x="290" y="411" on="1"/>
        <pt x="331" y="440" on="0"/>
        <pt x="370" y="510" on="0"/>
        <pt x="370" y="548" on="1"/>
        <pt x="370" y="594" on="0"/>
        <pt x="314" y="652" on="0"/>
        <pt x="264" y="652" on="1"/>
        <pt x="213" y="652" on="0"/>
        <pt x="156" y="594" on="0"/>
      </contour>
    </TTGlyph>
    <TTGlyph name="ellipsis" xMin="67" yMin="0" xMax="639" yMax="135">
      <contour>
        <pt x="530" y="0" on="1"/>
        <pt x="530" y="135" on="1"/>
        <pt x="639" y="135" on="1"/>
        <pt x="639" y="0" on="1"/>
      </contour>
      <contour>
        <pt x="299" y="0" on="1"/>
        <pt x="299" y="135" on="1"/>
        <pt x="406" y="135" on="1"/>
        <pt x="406" y="0" on="1"/>
      </contour>
      <contour>
        <pt x="67" y="0" on="1"/>
        <pt x="67" y="135" on="1"/>
        <pt x="176" y="135" on="1"/>
        <pt x="176" y="0" on="1"/>
      </contour>
    </TTGlyph>
    <TTGlyph name="emacron" xMin="46" yMin="-10" xMax="462" yMax="713">
      <component glyphName="e" x="0" y="0" flags="0x204"/>
      <component glyphName="macron" x="31" y="3" flags="0x4"/>
    </TTGlyph>
    <TTGlyph name="emdash" xMin="55" yMin="275" xMax="848" yMax="367">
      <contour>
        <pt x="55" y="275" on="1"/>
        <pt x="55" y="367" on="1"/>
        <pt x="848" y="367" on="1"/>
        <pt x="848" y="275" on="1"/>
      </contour>
    </TTGlyph>
    <TTGlyph name="endash" xMin="55" yMin="275" xMax="409" yMax="368">
      <contour>
        <pt x="55" y="275" on="1"/>
        <pt x="55" y="368" on="1"/>
        <pt x="409" y="368" on="1"/>
        <pt x="409" y="275" on="1"/>
      </contour>
    </TTGlyph>
    <TTGlyph name="eogonek" xMin="46" yMin="-203" xMax="462" yMax="551">
      <contour>
        <pt x="365" y="-203" on="1"/>
        <pt x="324" y="-203" on="0"/>
        <pt x="279" y="-163" on="0"/>
        <pt x="279" y="-125" on="1"/>
        <pt x="279" y="-95" on="0"/>
        <pt x="309" y="-36" on="0"/>
        <pt x="337" y="-4" on="1"/>
        <pt x="307" y="-10" on="0"/>
        <pt x="274" y="-10" on="1"/>
        <pt x="223" y="-10" on="0"/>
        <pt x="139" y="25" on="0"/>
        <pt x="79" y="96" on="0"/>
        <pt x="46" y="201" on="0"/>
        <pt x="46" y="272" on="1"/>
        <pt x="46" y="334" on="0"/>
        <pt x="76" y="437" on="0"/>
        <pt x="132" y="510" on="0"/>
        <pt x="211" y="551" on="0"/>
        <pt x="259" y="551" on="1"/>
        <pt x="313" y="551" on="0"/>
        <pt x="390" y="508" on="0"/>
        <pt x="439" y="433" on="0"/>
        <pt x="462" y="334" on="0"/>
        <pt x="462" y="278" on="1"/>
        <pt x="462" y="251" on="1"/>
        <pt x="144" y="251" on="1"/>
        <pt x="147" y="165" on="0"/>
        <pt x="218" y="76" on="0"/>
        <pt x="282" y="76" on="1"/>
        <pt x="327" y="76" on="0"/>
        <pt x="407" y="111" on="0"/>
        <pt x="447" y="143" on="1"/>
        <pt x="460" y="63" on="1"/>
        <pt x="405" y="-8" on="1"/>
        <pt x="377" y="-43" on="0"/>
        <pt x="359" y="-84" on="0"/>
        <pt x="359" y="-101" on="1"/>
        <pt x="359" y="-133" on="0"/>
        <pt x="400" y="-133" on="1"/>
        <pt x="410" y="-133" on="0"/>
        <pt x="431" y="-131" on="0"/>
        <pt x="442" y="-129" on="1"/>
        <pt x="442" y="-188" on="1"/>
        <pt x="425" y="-195" on="0"/>
        <pt x="385" y="-203" on="0"/>
      </contour>
      <contour>
        <pt x="364" y="329" on="1"/>
        <pt x="358" y="395" on="0"/>
        <pt x="308" y="472" on="0"/>
        <pt x="258" y="472" on="1"/>
        <pt x="216" y="472" on="0"/>
        <pt x="158" y="398" on="0"/>
        <pt x="147" y="329" on="1"/>
      </contour>
    </TTGlyph>
    <TTGlyph name="equal" xMin="70" yMin="217" xMax="475" yMax="501">
      <contour>
        <pt x="70" y="419" on="1"/>
        <pt x="70" y="501" on="1"/>
        <pt x="475" y="501" on="1"/>
        <pt x="475" y="419" on="1"/>
      </contour>
      <contour>
        <pt x="70" y="217" on="1"/>
        <pt x="70" y="299" on="1"/>
        <pt x="475" y="299" on="1"/>
        <pt x="475" y="217" on="1"/>
      </contour>
    </TTGlyph>
    <TTGlyph name="equal.tab" xMin="63" yMin="217" xMax="467" yMax="501">
      <contour>
        <pt x="63" y="419" on="1"/>
        <pt x="63" y="501" on="1"/>
        <pt x="467" y="501" on="1"/>
        <pt x="467" y="419" on="1"/>
      </contour>
      <contour>
        <pt x="63" y="217" on="1"/>
        <pt x="63" y="299" on="1"/>
        <pt x="467" y="299" on="1"/>
        <pt x="467" y="217" on="1"/>
      </contour>
    </TTGlyph>
    <TTGlyph name="eth" xMin="47" yMin="-11" xMax="504" yMax="809">
      <contour>
        <pt x="192" y="567" on="1"/>
        <pt x="260" y="671" on="1"/>
        <pt x="210" y="706" on="0"/>
        <pt x="147" y="726" on="1"/>
        <pt x="161" y="809" on="1"/>
        <pt x="202" y="798" on="0"/>
        <pt x="276" y="766" on="0"/>
        <pt x="308" y="745" on="1"/>
        <pt x="352" y="809" on="1"/>
        <pt x="434" y="793" on="1"/>
        <pt x="368" y="698" on="1"/>
        <pt x="432" y="637" on="0"/>
        <pt x="504" y="457" on="0"/>
        <pt x="504" y="330" on="1"/>
        <pt x="504" y="226" on="0"/>
        <pt x="455" y="88" on="0"/>
        <pt x="417" y="48" on="1"/>
        <pt x="388" y="19" on="0"/>
        <pt x="318" y="-11" on="0"/>
        <pt x="270" y="-11" on="1"/>
        <pt x="222" y="-11" on="0"/>
        <pt x="140" y="23" on="0"/>
        <pt x="80" y="86" on="0"/>
        <pt x="47" y="178" on="0"/>
        <pt x="47" y="237" on="1"/>
        <pt x="47" y="294" on="0"/>
        <pt x="78" y="391" on="0"/>
        <pt x="135" y="462" on="0"/>
        <pt x="216" y="503" on="0"/>
        <pt x="267" y="503" on="1"/>
        <pt x="306" y="503" on="0"/>
        <pt x="369" y="481" on="0"/>
        <pt x="395" y="463" on="1"/>
        <pt x="376" y="560" on="0"/>
        <pt x="317" y="623" on="1"/>
        <pt x="278" y="567" on="1"/>
      </contour>
      <contour>
        <pt x="274" y="73" on="1"/>
        <pt x="332" y="73" on="0"/>
        <pt x="408" y="199" on="0"/>
        <pt x="408" y="327" on="1"/>
        <pt x="408" y="337" on="0"/>
        <pt x="406" y="363" on="0"/>
        <pt x="405" y="371" on="1"/>
        <pt x="377" y="394" on="0"/>
        <pt x="314" y="420" on="0"/>
        <pt x="281" y="420" on="1"/>
        <pt x="217" y="420" on="0"/>
        <pt x="146" y="323" on="0"/>
        <pt x="146" y="243" on="1"/>
        <pt x="146" y="166" on="0"/>
        <pt x="215" y="73" on="0"/>
      </contour>
    </TTGlyph>
    <TTGlyph name="exclam" xMin="81" yMin="0" xMax="195" yMax="725">
      <contour>
        <pt x="168" y="232" on="1"/>
        <pt x="107" y="218" on="1"/>
        <pt x="81" y="725" on="1"/>
        <pt x="195" y="725" on="1"/>
      </contour>
      <contour>
        <pt x="86" y="0" on="1"/>
        <pt x="86" y="129" on="1"/>
        <pt x="190" y="129" on="1"/>
        <pt x="190" y="0" on="1"/>
      </contour>
    </TTGlyph>
    <TTGlyph name="exclam.flat" xMin="81" yMin="0" xMax="195" yMax="725">
      <contour>
        <pt x="168" y="225" on="1"/>
        <pt x="109" y="225" on="1"/>
        <pt x="81" y="725" on="1"/>
        <pt x="195" y="725" on="1"/>
      </contour>
      <contour>
        <pt x="86" y="0" on="1"/>
        <pt x="86" y="129" on="1"/>
        <pt x="190" y="129" on="1"/>
        <pt x="190" y="0" on="1"/>
      </contour>
    </TTGlyph>
</ttFont>
